<svg width="550" height="259" viewBox="0 0 550 259" fill="none" xmlns="http://www.w3.org/2000/svg">
<path d="M8.16913 111.55C3.69495 111.55 0.0679018 115.177 0.0679016 119.652C0.0679014 124.126 3.69495 127.753 8.16913 127.753C12.6433 127.753 16.2704 124.126 16.2704 119.652C16.2704 115.177 12.6433 111.55 8.16913 111.55ZM110.488 204.008L110.488 202.489L110.488 204.008ZM8.16913 121.171L80.1079 121.17L80.1079 118.132L8.16913 118.133L8.16913 121.171ZM93.7788 134.841L93.7788 188.818L96.8168 188.818L96.8168 134.841L93.7788 134.841ZM110.488 205.527L260.453 205.527L260.453 202.489L110.488 202.489L110.488 205.527ZM277.162 188.818L277.162 137.018L274.124 137.018L274.124 188.818L277.162 188.818ZM260.453 205.527C269.681 205.527 277.162 198.046 277.162 188.818L274.124 188.818C274.124 196.368 268.003 202.489 260.453 202.489L260.453 205.527ZM93.7788 188.818C93.7788 198.046 101.26 205.527 110.488 205.527L110.488 202.489C102.937 202.489 96.8168 196.368 96.8168 188.818L93.7788 188.818ZM80.1079 121.17C87.6582 121.17 93.7788 127.291 93.7788 134.841L96.8168 134.841C96.8168 125.613 89.336 118.132 80.1079 118.132L80.1079 121.17Z" fill="white"/>
<path d="M541.832 128.178C537.358 128.178 533.731 131.805 533.731 136.279C533.731 140.753 537.358 144.38 541.832 144.38C546.306 144.38 549.933 140.753 549.933 136.279C549.933 131.805 546.306 128.178 541.832 128.178ZM472.059 136.279L472.059 137.798L472.059 136.279ZM347.028 136.279L347.028 134.76L347.028 136.279ZM276.655 88.878L276.655 17.3724L273.617 17.3724L273.617 88.878L276.655 88.878ZM290.326 3.70159L316.648 3.70159L316.648 0.663627L290.326 0.663625L290.326 3.70159ZM330.319 17.3724L330.319 121.089L333.357 121.089L333.357 17.3724L330.319 17.3724ZM347.028 137.798L472.059 137.798L472.059 134.76L347.028 134.76L347.028 137.798ZM472.059 137.798L541.832 137.798L541.832 134.76L472.059 134.76L472.059 137.798ZM330.319 121.089C330.319 130.317 337.8 137.798 347.028 137.798L347.028 134.76C339.478 134.76 333.357 128.64 333.357 121.089L330.319 121.089ZM316.648 3.70159C324.199 3.70159 330.319 9.82223 330.319 17.3724L333.357 17.3724C333.357 8.14441 325.876 0.663627 316.648 0.663627L316.648 3.70159ZM276.655 17.3724C276.655 9.82224 282.775 3.70159 290.326 3.70159L290.326 0.663625C281.098 0.663625 273.617 8.14443 273.617 17.3724L276.655 17.3724Z" fill="white"/>
<path d="M262.478 119.144C261.639 119.144 260.959 119.824 260.959 120.663L260.959 127.637C260.959 134.132 266.437 139.397 273.195 139.397L278.09 139.397C284.848 139.397 290.326 134.132 290.326 127.637L290.326 120.663C290.326 119.824 289.646 119.144 288.807 119.144L262.478 119.144Z" fill="white"/>
<path d="M288.805 94.688C289.644 94.688 290.324 94.0079 290.324 93.169L290.324 85.8895C290.324 79.0882 284.846 73.5747 278.088 73.5747L273.194 73.5747C266.436 73.5747 260.958 79.0882 260.958 85.8895L260.958 93.169C260.958 94.0079 261.638 94.688 262.477 94.688L288.805 94.688Z" fill="white"/>
<path fill-rule="evenodd" clip-rule="evenodd" d="M279.691 100.704C279.691 102.102 280.824 103.236 282.222 103.236C283.62 103.236 284.754 102.102 284.754 100.704L284.754 88.1747C284.754 86.7765 283.62 85.6431 282.222 85.6431C280.824 85.6431 279.691 86.7765 279.691 88.1747L279.691 100.704ZM265.848 100.704C265.848 102.102 266.981 103.236 268.379 103.236C269.778 103.236 270.911 102.102 270.911 100.704L270.911 88.1747C270.911 86.7765 269.778 85.6431 268.379 85.6431C266.981 85.6431 265.848 86.7765 265.848 88.1747L265.848 100.704Z" fill="white"/>
<g opacity="0.3" filter="url(#filter0_f_1616_66790)">
<path d="M417.968 77.1445C418.239 77.1445 418.459 77.3685 418.459 77.6449L418.459 84.6497C418.459 84.926 418.239 85.15 417.968 85.15L411.092 85.15C410.821 85.15 410.601 84.926 410.601 84.6497L410.601 77.6449C410.601 77.3685 410.821 77.1445 411.092 77.1445L417.968 77.1445Z" fill="white"/>
<path d="M381.296 77.1445C381.567 77.1445 381.787 77.3685 381.787 77.6449L381.787 84.6497C381.787 84.926 381.567 85.15 381.296 85.15L374.42 85.15C374.149 85.15 373.929 84.926 373.929 84.6497L373.929 77.6449C373.929 77.3685 374.149 77.1445 374.42 77.1445L381.296 77.1445Z" fill="white"/>
<path d="M427.719 49.6527C427.719 49.3764 427.499 49.1523 427.228 49.1523L420.352 49.1523C420.08 49.1523 419.86 49.3764 419.86 49.6527L419.86 56.6575C419.86 56.9338 420.08 57.1578 420.352 57.1578L427.228 57.1578C427.499 57.1578 427.719 56.9338 427.719 56.6575L427.719 49.6527Z" fill="#9F56FB"/>
<path d="M418.551 49.6527C418.551 49.3764 418.331 49.1523 418.06 49.1523L411.184 49.1523C410.912 49.1523 410.692 49.3764 410.692 49.6527L410.692 56.6575C410.692 56.9338 410.912 57.1578 411.184 57.1578L418.06 57.1578C418.331 57.1578 418.551 56.9338 418.551 56.6575L418.551 49.6527Z" fill="#9F56FB"/>
<path d="M409.383 49.6527C409.383 49.3764 409.163 49.1523 408.892 49.1523L402.016 49.1523C401.744 49.1523 401.525 49.3763 401.525 49.6527L401.525 56.6575C401.525 56.9338 401.744 57.1578 402.016 57.1578L408.892 57.1578C409.163 57.1578 409.383 56.9338 409.383 56.6575L409.383 49.6527Z" fill="#9F56FB"/>
<path d="M400.215 49.6527C400.215 49.3763 399.995 49.1523 399.724 49.1523L392.848 49.1523C392.576 49.1523 392.357 49.3763 392.357 49.6527L392.357 56.6575C392.357 56.9338 392.576 57.1578 392.848 57.1578L399.724 57.1578C399.995 57.1578 400.215 56.9338 400.215 56.6575L400.215 49.6527Z" fill="#9F56FB"/>
<path d="M391.047 49.6527C391.047 49.3763 390.827 49.1523 390.556 49.1523L383.68 49.1523C383.408 49.1523 383.189 49.3763 383.189 49.6527L383.189 56.6575C383.189 56.9338 383.408 57.1578 383.68 57.1578L390.556 57.1578C390.827 57.1578 391.047 56.9338 391.047 56.6575L391.047 49.6527Z" fill="#9F56FB"/>
<path d="M427.719 58.9924C427.719 58.7161 427.499 58.4921 427.228 58.4921L420.352 58.4921C420.08 58.4921 419.86 58.7161 419.86 58.9924L419.86 65.9972C419.86 66.2735 420.08 66.4975 420.352 66.4975L427.228 66.4975C427.499 66.4975 427.719 66.2735 427.719 65.9972L427.719 58.9924Z" fill="#9F56FB"/>
<path d="M381.879 58.9924C381.879 58.7161 381.659 58.4921 381.388 58.4921L374.512 58.4921C374.24 58.4921 374.021 58.7161 374.021 58.9924L374.021 65.9972C374.021 66.2735 374.24 66.4975 374.512 66.4975L381.388 66.4975C381.659 66.4975 381.879 66.2735 381.879 65.9972L381.879 58.9924Z" fill="#9F56FB"/>
<path d="M418.551 58.9924C418.551 58.7161 418.331 58.4921 418.06 58.4921L411.184 58.4921C410.912 58.4921 410.692 58.7161 410.692 58.9924L410.692 65.9972C410.692 66.2735 410.912 66.4975 411.184 66.4975L418.06 66.4975C418.331 66.4975 418.551 66.2735 418.551 65.9972L418.551 58.9924Z" fill="#9F56FB"/>
<path d="M409.383 58.9924C409.383 58.7161 409.163 58.4921 408.892 58.4921L402.016 58.4921C401.744 58.4921 401.525 58.7161 401.525 58.9924L401.525 65.9972C401.525 66.2735 401.744 66.4975 402.016 66.4975L408.892 66.4975C409.163 66.4975 409.383 66.2735 409.383 65.9972L409.383 58.9924Z" fill="#9F56FB"/>
<path d="M400.215 58.9924C400.215 58.7161 399.995 58.4921 399.724 58.4921L392.848 58.4921C392.576 58.4921 392.357 58.7161 392.357 58.9924L392.357 65.9972C392.357 66.2735 392.576 66.4975 392.848 66.4975L399.724 66.4975C399.995 66.4975 400.215 66.2735 400.215 65.9972L400.215 58.9924Z" fill="#9F56FB"/>
<path d="M391.047 58.9924C391.047 58.7161 390.827 58.4921 390.556 58.4921L383.68 58.4921C383.408 58.4921 383.189 58.7161 383.189 58.9924L383.189 65.9972C383.189 66.2735 383.408 66.4975 383.68 66.4975L390.556 66.4975C390.827 66.4975 391.047 66.2735 391.047 65.9972L391.047 58.9924Z" fill="#9F56FB"/>
<path d="M372.711 68.3321C372.711 68.0558 372.491 67.8318 372.22 67.8318L365.344 67.8318C365.072 67.8318 364.853 68.0558 364.853 68.3321L364.853 75.3369C364.853 75.6132 365.072 75.8372 365.344 75.8372L372.22 75.8372C372.491 75.8372 372.711 75.6132 372.711 75.3369L372.711 68.3321Z" fill="#9F56FB"/>
<path d="M409.383 68.3321C409.383 68.0558 409.163 67.8318 408.892 67.8318L402.016 67.8318C401.744 67.8318 401.525 68.0558 401.525 68.3321L401.524 75.3369C401.524 75.6132 401.744 75.8372 402.016 75.8372L408.892 75.8372C409.163 75.8372 409.383 75.6132 409.383 75.3369L409.383 68.3321Z" fill="#9F56FB"/>
<path d="M400.215 68.3321C400.215 68.0558 399.995 67.8318 399.724 67.8318L392.848 67.8318C392.576 67.8318 392.357 68.0558 392.357 68.3321L392.357 75.3369C392.357 75.6132 392.576 75.8372 392.848 75.8372L399.724 75.8372C399.995 75.8372 400.215 75.6132 400.215 75.3369L400.215 68.3321Z" fill="#9F56FB"/>
<path d="M372.711 77.6718C372.711 77.3955 372.491 77.1715 372.22 77.1715L365.344 77.1715C365.072 77.1715 364.853 77.3955 364.853 77.6718L364.853 84.6766C364.853 84.9529 365.072 85.177 365.344 85.177L372.22 85.177C372.491 85.177 372.711 84.9529 372.711 84.6766L372.711 77.6718Z" fill="#9F56FB"/>
<path d="M409.383 77.6718C409.383 77.3955 409.163 77.1715 408.892 77.1715L402.016 77.1715C401.744 77.1715 401.524 77.3955 401.524 77.6718L401.524 84.6766C401.524 84.9529 401.744 85.177 402.016 85.177L408.892 85.177C409.163 85.177 409.383 84.953 409.383 84.6766L409.383 77.6718Z" fill="#9F56FB"/>
<path d="M400.215 77.6718C400.215 77.3955 399.995 77.1715 399.724 77.1715L392.848 77.1715C392.576 77.1715 392.357 77.3955 392.357 77.6718L392.357 84.6766C392.357 84.9529 392.576 85.177 392.848 85.177L399.724 85.177C399.995 85.177 400.215 84.9529 400.215 84.6766L400.215 77.6718Z" fill="#9F56FB"/>
<path d="M372.711 87.0115C372.711 86.7352 372.491 86.5112 372.22 86.5112L365.344 86.5112C365.072 86.5112 364.853 86.7352 364.853 87.0115L364.853 94.0163C364.853 94.2927 365.072 94.5167 365.344 94.5167L372.22 94.5167C372.491 94.5167 372.711 94.2927 372.711 94.0163L372.711 87.0115Z" fill="#9F56FB"/>
<path d="M381.879 96.3513C381.879 96.0749 381.659 95.8509 381.388 95.8509L374.512 95.8509C374.24 95.8509 374.021 96.0749 374.021 96.3513L374.021 103.356C374.021 103.632 374.24 103.856 374.512 103.856L381.388 103.856C381.659 103.856 381.879 103.632 381.879 103.356L381.879 96.3513Z" fill="#9F56FB"/>
<path d="M381.388 86.5112C381.659 86.5112 381.879 86.7352 381.879 87.0115L381.879 94.0163C381.879 94.2927 381.659 94.5167 381.388 94.5167L374.512 94.5167C374.24 94.5167 374.021 94.2927 374.021 94.0163L374.021 87.0115C374.021 86.7352 374.24 86.5112 374.512 86.5112L381.388 86.5112Z" fill="#9F56FB"/>
<path d="M445.939 68.2625C445.939 67.9862 445.72 67.7622 445.448 67.7622L438.572 67.7622C438.301 67.7622 438.081 67.9862 438.081 68.2625L438.081 75.2673C438.081 75.5437 438.301 75.7677 438.572 75.7677L445.448 75.7677C445.72 75.7677 445.939 75.5437 445.939 75.2673L445.939 68.2625Z" fill="#9F56FB"/>
<path d="M436.771 68.2625C436.771 67.9862 436.552 67.7622 436.28 67.7622L429.404 67.7622C429.133 67.7622 428.913 67.9862 428.913 68.2625L428.913 75.2673C428.913 75.5437 429.133 75.7677 429.404 75.7677L436.28 75.7677C436.552 75.7677 436.771 75.5437 436.771 75.2673L436.771 68.2625Z" fill="#9F56FB"/>
<path d="M445.448 77.1019C445.72 77.1019 445.939 77.3259 445.939 77.6023L445.939 84.6071C445.939 84.8834 445.72 85.1074 445.448 85.1074L438.572 85.1074C438.301 85.1074 438.081 84.8834 438.081 84.6071L438.081 77.6023C438.081 77.3259 438.301 77.1019 438.572 77.1019L445.448 77.1019Z" fill="#9F56FB"/>
<path d="M445.939 86.942C445.939 86.6657 445.72 86.4416 445.448 86.4416L438.572 86.4416C438.301 86.4416 438.081 86.6657 438.081 86.942L438.081 93.9468C438.081 94.2231 438.301 94.4471 438.572 94.4471L445.448 94.4471C445.72 94.4471 445.939 94.2231 445.939 93.9468L445.939 86.942Z" fill="#9F56FB"/>
<path d="M417.944 86.4416C418.216 86.4416 418.435 86.6657 418.435 86.942L418.435 93.9468C418.435 94.2231 418.216 94.4471 417.944 94.4471L411.068 94.4471C410.797 94.4471 410.577 94.2231 410.577 93.9468L410.577 86.942C410.577 86.6656 410.797 86.4416 411.068 86.4416L417.944 86.4416Z" fill="#9F56FB"/>
<path d="M436.771 96.2817C436.771 96.0054 436.552 95.7814 436.28 95.7814L429.404 95.7814C429.133 95.7814 428.913 96.0054 428.913 96.2817L428.913 103.286C428.913 103.563 429.133 103.787 429.404 103.787L436.28 103.787C436.552 103.787 436.771 103.563 436.771 103.286L436.771 96.2817Z" fill="#9F56FB"/>
<path d="M417.944 95.7814C418.216 95.7814 418.435 96.0054 418.435 96.2817L418.435 103.286C418.435 103.563 418.216 103.787 417.944 103.787L411.068 103.787C410.797 103.787 410.577 103.563 410.577 103.286L410.577 96.2817C410.577 96.0054 410.797 95.7814 411.068 95.7814L417.944 95.7814Z" fill="#9F56FB"/>
<path d="M436.278 58.4243C436.55 58.4243 436.77 58.6483 436.77 58.9247L436.77 65.9294C436.77 66.2058 436.55 66.4298 436.278 66.4298L429.402 66.4298C429.131 66.4298 428.911 66.2058 428.911 65.9294L428.911 58.9247C428.911 58.6483 429.131 58.4243 429.402 58.4243L436.278 58.4243Z" fill="#9F56FB"/>
<path d="M436.278 77.1038C436.55 77.1038 436.77 77.3278 436.77 77.6041L436.77 84.6089C436.77 84.8852 436.55 85.1092 436.278 85.1092L429.402 85.1092C429.131 85.1092 428.911 84.8852 428.911 84.6089L428.911 77.6041C428.911 77.3278 429.131 77.1037 429.402 77.1037L436.278 77.1038Z" fill="#9F56FB"/>
<path d="M427.602 86.9438C427.602 86.6675 427.382 86.4435 427.11 86.4435L420.234 86.4435C419.963 86.4435 419.743 86.6675 419.743 86.9438L419.743 93.9486C419.743 94.2249 419.963 94.4489 420.234 94.4489L427.11 94.4489C427.382 94.4489 427.602 94.2249 427.602 93.9486L427.602 86.9438Z" fill="#9F56FB"/>
<path d="M436.278 86.4435C436.55 86.4435 436.77 86.6675 436.77 86.9438L436.77 93.9486C436.77 94.2249 436.55 94.4489 436.278 94.4489L429.402 94.4489C429.131 94.4489 428.911 94.2249 428.911 93.9486L428.911 86.9438C428.911 86.6675 429.131 86.4435 429.402 86.4435L436.278 86.4435Z" fill="#9F56FB"/>
<path d="M409.266 86.9438C409.266 86.6675 409.046 86.4435 408.774 86.4435L401.898 86.4435C401.627 86.4435 401.407 86.6675 401.407 86.9438L401.407 93.9486C401.407 94.2249 401.627 94.4489 401.898 94.4489L408.774 94.4489C409.046 94.4489 409.266 94.2249 409.266 93.9486L409.266 86.9438Z" fill="#9F56FB"/>
<path d="M399.606 86.4435C399.878 86.4435 400.098 86.6675 400.098 86.9438L400.098 93.9486C400.098 94.2249 399.878 94.4489 399.606 94.4489L392.73 94.4489C392.459 94.4489 392.239 94.2249 392.239 93.9486L392.239 86.9438C392.239 86.6675 392.459 86.4435 392.73 86.4435L399.606 86.4435Z" fill="#9F56FB"/>
<path d="M390.93 86.9438C390.93 86.6675 390.71 86.4435 390.438 86.4435L383.562 86.4435C383.291 86.4435 383.071 86.6675 383.071 86.9438L383.071 93.9486C383.071 94.2249 383.291 94.4489 383.562 94.4489L390.438 94.4489C390.71 94.4489 390.93 94.2249 390.93 93.9486L390.93 86.9438Z" fill="#9F56FB"/>
<path d="M399.606 95.7832C399.878 95.7832 400.098 96.0072 400.098 96.2835L400.098 103.288C400.098 103.565 399.878 103.789 399.606 103.789L392.73 103.789C392.459 103.789 392.239 103.565 392.239 103.288L392.239 96.2835C392.239 96.0072 392.459 95.7832 392.73 95.7832L399.606 95.7832Z" fill="#9F56FB"/>
</g>
<g opacity="0.9" filter="url(#filter1_b_1616_66790)">
<path d="M417.905 77.1445C418.177 77.1445 418.396 77.3685 418.396 77.6449L418.396 84.6497C418.396 84.926 418.177 85.15 417.905 85.15L411.029 85.15C410.758 85.15 410.538 84.926 410.538 84.6497L410.538 77.6449C410.538 77.3685 410.758 77.1445 411.029 77.1445L417.905 77.1445Z" fill="white"/>
<path d="M381.233 77.1445C381.505 77.1445 381.725 77.3685 381.725 77.6449L381.725 84.6497C381.725 84.926 381.505 85.15 381.233 85.15L374.357 85.15C374.086 85.15 373.866 84.926 373.866 84.6497L373.866 77.6449C373.866 77.3685 374.086 77.1445 374.357 77.1445L381.233 77.1445Z" fill="white"/>
<path d="M427.719 49.6527C427.719 49.3764 427.499 49.1523 427.228 49.1523L420.352 49.1523C420.08 49.1523 419.86 49.3764 419.86 49.6527L419.86 56.6575C419.86 56.9338 420.08 57.1578 420.352 57.1578L427.228 57.1578C427.499 57.1578 427.719 56.9338 427.719 56.6575L427.719 49.6527Z" fill="#AD00FF"/>
<path d="M418.551 49.6527C418.551 49.3764 418.331 49.1523 418.06 49.1523L411.184 49.1523C410.912 49.1523 410.692 49.3764 410.692 49.6527L410.692 56.6575C410.692 56.9338 410.912 57.1578 411.184 57.1578L418.06 57.1578C418.331 57.1578 418.551 56.9338 418.551 56.6575L418.551 49.6527Z" fill="#AD00FF"/>
<path d="M409.383 49.6527C409.383 49.3764 409.163 49.1523 408.892 49.1523L402.016 49.1523C401.744 49.1523 401.525 49.3763 401.525 49.6527L401.525 56.6575C401.525 56.9338 401.744 57.1578 402.016 57.1578L408.892 57.1578C409.163 57.1578 409.383 56.9338 409.383 56.6575L409.383 49.6527Z" fill="#AD00FF"/>
<path d="M400.215 49.6527C400.215 49.3763 399.995 49.1523 399.724 49.1523L392.848 49.1523C392.576 49.1523 392.357 49.3763 392.357 49.6527L392.357 56.6575C392.357 56.9338 392.576 57.1578 392.848 57.1578L399.724 57.1578C399.995 57.1578 400.215 56.9338 400.215 56.6575L400.215 49.6527Z" fill="#AD00FF"/>
<path d="M391.047 49.6527C391.047 49.3763 390.827 49.1523 390.556 49.1523L383.68 49.1523C383.408 49.1523 383.189 49.3763 383.189 49.6527L383.189 56.6575C383.189 56.9338 383.408 57.1578 383.68 57.1578L390.556 57.1578C390.827 57.1578 391.047 56.9338 391.047 56.6575L391.047 49.6527Z" fill="#AD00FF"/>
<path d="M427.719 58.9924C427.719 58.7161 427.499 58.4921 427.228 58.4921L420.352 58.4921C420.08 58.4921 419.86 58.7161 419.86 58.9924L419.86 65.9972C419.86 66.2735 420.08 66.4975 420.352 66.4975L427.228 66.4975C427.499 66.4975 427.719 66.2735 427.719 65.9972L427.719 58.9924Z" fill="#AD00FF"/>
<path d="M381.879 58.9924C381.879 58.7161 381.659 58.4921 381.388 58.4921L374.512 58.4921C374.24 58.4921 374.021 58.7161 374.021 58.9924L374.021 65.9972C374.021 66.2735 374.24 66.4975 374.512 66.4975L381.388 66.4975C381.659 66.4975 381.879 66.2735 381.879 65.9972L381.879 58.9924Z" fill="#AD00FF"/>
<path d="M418.551 58.9924C418.551 58.7161 418.331 58.4921 418.06 58.4921L411.184 58.4921C410.912 58.4921 410.692 58.7161 410.692 58.9924L410.692 65.9972C410.692 66.2735 410.912 66.4975 411.184 66.4975L418.06 66.4975C418.331 66.4975 418.551 66.2735 418.551 65.9972L418.551 58.9924Z" fill="#AD00FF"/>
<path d="M409.383 58.9924C409.383 58.7161 409.163 58.4921 408.892 58.4921L402.016 58.4921C401.744 58.4921 401.525 58.7161 401.525 58.9924L401.525 65.9972C401.525 66.2735 401.744 66.4975 402.016 66.4975L408.892 66.4975C409.163 66.4975 409.383 66.2735 409.383 65.9972L409.383 58.9924Z" fill="#AD00FF"/>
<path d="M400.215 58.9924C400.215 58.7161 399.995 58.4921 399.724 58.4921L392.848 58.4921C392.576 58.4921 392.357 58.7161 392.357 58.9924L392.357 65.9972C392.357 66.2735 392.576 66.4975 392.848 66.4975L399.724 66.4975C399.995 66.4975 400.215 66.2735 400.215 65.9972L400.215 58.9924Z" fill="#AD00FF"/>
<path d="M391.047 58.9924C391.047 58.7161 390.827 58.4921 390.556 58.4921L383.68 58.4921C383.408 58.4921 383.189 58.7161 383.189 58.9924L383.189 65.9972C383.189 66.2735 383.408 66.4975 383.68 66.4975L390.556 66.4975C390.827 66.4975 391.047 66.2735 391.047 65.9972L391.047 58.9924Z" fill="#AD00FF"/>
<path d="M372.711 68.3321C372.711 68.0558 372.491 67.8318 372.22 67.8318L365.344 67.8318C365.072 67.8318 364.853 68.0558 364.853 68.3321L364.853 75.3369C364.853 75.6132 365.072 75.8372 365.344 75.8372L372.22 75.8372C372.491 75.8372 372.711 75.6132 372.711 75.3369L372.711 68.3321Z" fill="#AD00FF"/>
<path d="M409.383 68.3321C409.383 68.0558 409.163 67.8318 408.892 67.8318L402.016 67.8318C401.744 67.8318 401.525 68.0558 401.525 68.3321L401.524 75.3369C401.524 75.6132 401.744 75.8372 402.016 75.8372L408.892 75.8372C409.163 75.8372 409.383 75.6132 409.383 75.3369L409.383 68.3321Z" fill="#AD00FF"/>
<path d="M400.215 68.3321C400.215 68.0558 399.995 67.8318 399.724 67.8318L392.848 67.8318C392.576 67.8318 392.357 68.0558 392.357 68.3321L392.357 75.3369C392.357 75.6132 392.576 75.8372 392.848 75.8372L399.724 75.8372C399.995 75.8372 400.215 75.6132 400.215 75.3369L400.215 68.3321Z" fill="#AD00FF"/>
<path d="M372.711 77.6718C372.711 77.3955 372.491 77.1715 372.22 77.1715L365.344 77.1715C365.072 77.1715 364.853 77.3955 364.853 77.6718L364.853 84.6766C364.853 84.9529 365.072 85.177 365.344 85.177L372.22 85.177C372.491 85.177 372.711 84.9529 372.711 84.6766L372.711 77.6718Z" fill="#AD00FF"/>
<path d="M409.383 77.6718C409.383 77.3955 409.163 77.1715 408.892 77.1715L402.016 77.1715C401.744 77.1715 401.524 77.3955 401.524 77.6718L401.524 84.6766C401.524 84.9529 401.744 85.177 402.016 85.177L408.892 85.177C409.163 85.177 409.383 84.953 409.383 84.6766L409.383 77.6718Z" fill="#AD00FF"/>
<path d="M400.215 77.6718C400.215 77.3955 399.995 77.1715 399.724 77.1715L392.848 77.1715C392.576 77.1715 392.357 77.3955 392.357 77.6718L392.357 84.6766C392.357 84.9529 392.576 85.177 392.848 85.177L399.724 85.177C399.995 85.177 400.215 84.9529 400.215 84.6766L400.215 77.6718Z" fill="#AD00FF"/>
<path d="M372.711 87.0115C372.711 86.7352 372.491 86.5112 372.22 86.5112L365.344 86.5112C365.072 86.5112 364.853 86.7352 364.853 87.0115L364.853 94.0163C364.853 94.2927 365.072 94.5167 365.344 94.5167L372.22 94.5167C372.491 94.5167 372.711 94.2927 372.711 94.0163L372.711 87.0115Z" fill="#AD00FF"/>
<path d="M381.879 96.3513C381.879 96.0749 381.659 95.8509 381.388 95.8509L374.512 95.8509C374.24 95.8509 374.021 96.0749 374.021 96.3513L374.021 103.356C374.021 103.632 374.24 103.856 374.512 103.856L381.388 103.856C381.659 103.856 381.879 103.632 381.879 103.356L381.879 96.3513Z" fill="#AD00FF"/>
<path d="M381.388 86.5112C381.659 86.5112 381.879 86.7352 381.879 87.0115L381.879 94.0163C381.879 94.2927 381.659 94.5167 381.388 94.5167L374.512 94.5167C374.24 94.5167 374.021 94.2927 374.021 94.0163L374.021 87.0115C374.021 86.7352 374.24 86.5112 374.512 86.5112L381.388 86.5112Z" fill="#AD00FF"/>
<path d="M445.939 68.2625C445.939 67.9862 445.72 67.7622 445.448 67.7622L438.572 67.7622C438.301 67.7622 438.081 67.9862 438.081 68.2625L438.081 75.2673C438.081 75.5437 438.301 75.7677 438.572 75.7677L445.448 75.7677C445.72 75.7677 445.939 75.5437 445.939 75.2673L445.939 68.2625Z" fill="#69008E"/>
<path d="M436.771 68.2625C436.771 67.9862 436.552 67.7622 436.28 67.7622L429.404 67.7622C429.133 67.7622 428.913 67.9862 428.913 68.2625L428.913 75.2673C428.913 75.5437 429.133 75.7677 429.404 75.7677L436.28 75.7677C436.552 75.7677 436.771 75.5437 436.771 75.2673L436.771 68.2625Z" fill="#69008E"/>
<path d="M445.448 77.1019C445.72 77.1019 445.939 77.3259 445.939 77.6023L445.939 84.6071C445.939 84.8834 445.72 85.1074 445.448 85.1074L438.572 85.1074C438.301 85.1074 438.081 84.8834 438.081 84.6071L438.081 77.6023C438.081 77.3259 438.301 77.1019 438.572 77.1019L445.448 77.1019Z" fill="#69008E"/>
<path d="M445.939 86.942C445.939 86.6657 445.72 86.4416 445.448 86.4416L438.572 86.4416C438.301 86.4416 438.081 86.6657 438.081 86.942L438.081 93.9468C438.081 94.2231 438.301 94.4471 438.572 94.4471L445.448 94.4471C445.72 94.4471 445.939 94.2231 445.939 93.9468L445.939 86.942Z" fill="#69008E"/>
<path d="M417.944 86.4416C418.216 86.4416 418.435 86.6657 418.435 86.942L418.435 93.9468C418.435 94.2231 418.216 94.4471 417.944 94.4471L411.068 94.4471C410.797 94.4471 410.577 94.2231 410.577 93.9468L410.577 86.942C410.577 86.6656 410.797 86.4416 411.068 86.4416L417.944 86.4416Z" fill="#69008E"/>
<path d="M436.771 96.2817C436.771 96.0054 436.552 95.7814 436.28 95.7814L429.404 95.7814C429.133 95.7814 428.913 96.0054 428.913 96.2817L428.913 103.286C428.913 103.563 429.133 103.787 429.404 103.787L436.28 103.787C436.552 103.787 436.771 103.563 436.771 103.286L436.771 96.2817Z" fill="#69008E"/>
<path d="M417.944 95.7814C418.216 95.7814 418.435 96.0054 418.435 96.2817L418.435 103.286C418.435 103.563 418.216 103.787 417.944 103.787L411.068 103.787C410.797 103.787 410.577 103.563 410.577 103.286L410.577 96.2817C410.577 96.0054 410.797 95.7814 411.068 95.7814L417.944 95.7814Z" fill="#69008E"/>
<path d="M436.278 58.4243C436.55 58.4243 436.77 58.6483 436.77 58.9247L436.77 65.9294C436.77 66.2058 436.55 66.4298 436.278 66.4298L429.402 66.4298C429.131 66.4298 428.911 66.2058 428.911 65.9294L428.911 58.9247C428.911 58.6483 429.131 58.4243 429.402 58.4243L436.278 58.4243Z" fill="#7E00BA"/>
<path d="M436.278 77.1038C436.55 77.1038 436.77 77.3278 436.77 77.6041L436.77 84.6089C436.77 84.8852 436.55 85.1092 436.278 85.1092L429.402 85.1092C429.131 85.1092 428.911 84.8852 428.911 84.6089L428.911 77.6041C428.911 77.3278 429.131 77.1037 429.402 77.1037L436.278 77.1038Z" fill="#7E00BA"/>
<path d="M427.602 86.9438C427.602 86.6675 427.382 86.4435 427.11 86.4435L420.234 86.4435C419.963 86.4435 419.743 86.6675 419.743 86.9438L419.743 93.9486C419.743 94.2249 419.963 94.4489 420.234 94.4489L427.11 94.4489C427.382 94.4489 427.602 94.2249 427.602 93.9486L427.602 86.9438Z" fill="#7E00BA"/>
<path d="M436.278 86.4435C436.55 86.4435 436.77 86.6675 436.77 86.9438L436.77 93.9486C436.77 94.2249 436.55 94.4489 436.278 94.4489L429.402 94.4489C429.131 94.4489 428.911 94.2249 428.911 93.9486L428.911 86.9438C428.911 86.6675 429.131 86.4435 429.402 86.4435L436.278 86.4435Z" fill="#7E00BA"/>
<path d="M409.266 86.9438C409.266 86.6675 409.046 86.4435 408.774 86.4435L401.898 86.4435C401.627 86.4435 401.407 86.6675 401.407 86.9438L401.407 93.9486C401.407 94.2249 401.627 94.4489 401.898 94.4489L408.774 94.4489C409.046 94.4489 409.266 94.2249 409.266 93.9486L409.266 86.9438Z" fill="#7E00BA"/>
<path d="M399.606 86.4435C399.878 86.4435 400.098 86.6675 400.098 86.9438L400.098 93.9486C400.098 94.2249 399.878 94.4489 399.606 94.4489L392.73 94.4489C392.459 94.4489 392.239 94.2249 392.239 93.9486L392.239 86.9438C392.239 86.6675 392.459 86.4435 392.73 86.4435L399.606 86.4435Z" fill="#7E00BA"/>
<path d="M390.93 86.9438C390.93 86.6675 390.71 86.4435 390.438 86.4435L383.562 86.4435C383.291 86.4435 383.071 86.6675 383.071 86.9438L383.071 93.9486C383.071 94.2249 383.291 94.4489 383.562 94.4489L390.438 94.4489C390.71 94.4489 390.93 94.2249 390.93 93.9486L390.93 86.9438Z" fill="#7E00BA"/>
<path d="M399.606 95.7832C399.878 95.7832 400.098 96.0072 400.098 96.2835L400.098 103.288C400.098 103.565 399.878 103.789 399.606 103.789L392.73 103.789C392.459 103.789 392.239 103.565 392.239 103.288L392.239 96.2835C392.239 96.0072 392.459 95.7832 392.73 95.7832L399.606 95.7832Z" fill="#7E00BA"/>
</g>
<g opacity="0.3" filter="url(#filter2_f_1616_66790)">
<path d="M168.257 125.875C167.9 125.875 167.611 126.17 167.611 126.534L167.611 135.757C167.611 136.12 167.9 136.415 168.257 136.415L177.294 136.415C177.65 136.415 177.939 136.12 177.939 135.757L177.939 126.534C177.939 126.17 177.65 125.875 177.294 125.875L168.257 125.875Z" fill="white"/>
<path d="M216.453 125.875C216.097 125.875 215.808 126.17 215.808 126.534L215.808 135.757C215.808 136.12 216.097 136.415 216.453 136.415L225.49 136.415C225.847 136.415 226.135 136.12 226.135 135.757L226.135 126.534C226.135 126.17 225.847 125.875 225.49 125.875L216.453 125.875Z" fill="white"/>
<path d="M155.566 101.94C155.566 101.576 155.855 101.281 156.212 101.281L165.249 101.281C165.605 101.281 165.894 101.576 165.894 101.94L165.894 111.162C165.894 111.526 165.605 111.821 165.249 111.821L156.212 111.821C155.855 111.821 155.566 111.526 155.566 111.162L155.566 101.94Z" fill="#0085FF"/>
<path d="M167.616 101.94C167.616 101.576 167.905 101.281 168.261 101.281L177.298 101.281C177.654 101.281 177.943 101.576 177.943 101.94L177.943 111.162C177.943 111.526 177.654 111.821 177.298 111.821L168.261 111.821C167.905 111.821 167.616 111.526 167.616 111.162L167.616 101.94Z" fill="#0085FF"/>
<path d="M179.665 101.94C179.665 101.576 179.954 101.281 180.31 101.281L189.347 101.281C189.703 101.281 189.992 101.576 189.992 101.94L189.992 111.162C189.992 111.526 189.703 111.821 189.347 111.821L180.31 111.821C179.954 111.821 179.665 111.526 179.665 111.162L179.665 101.94Z" fill="#0085FF"/>
<path d="M191.714 101.94C191.714 101.576 192.003 101.281 192.359 101.281L201.396 101.281C201.753 101.281 202.042 101.576 202.042 101.94L202.042 111.162C202.042 111.526 201.753 111.821 201.396 111.821L192.359 111.821C192.003 111.821 191.714 111.526 191.714 111.162L191.714 101.94Z" fill="#0085FF"/>
<path d="M203.763 101.94C203.763 101.576 204.052 101.281 204.408 101.281L213.445 101.281C213.802 101.281 214.091 101.576 214.091 101.94L214.091 111.162C214.091 111.526 213.802 111.821 213.445 111.821L204.408 111.821C204.052 111.821 203.763 111.526 203.763 111.162L203.763 101.94Z" fill="#0085FF"/>
<path d="M155.566 114.236C155.566 113.872 155.855 113.577 156.212 113.577L165.249 113.577C165.605 113.577 165.894 113.872 165.894 114.236L165.894 123.458C165.894 123.822 165.605 124.117 165.249 124.117L156.212 124.117C155.855 124.117 155.566 123.822 155.566 123.458L155.566 114.236Z" fill="#0085FF"/>
<path d="M215.812 114.236C215.812 113.872 216.101 113.577 216.457 113.577L225.494 113.577C225.851 113.577 226.14 113.872 226.14 114.236L226.14 123.458C226.14 123.822 225.851 124.117 225.494 124.117L216.457 124.117C216.101 124.117 215.812 123.822 215.812 123.458L215.812 114.236Z" fill="#0085FF"/>
<path d="M167.616 114.236C167.616 113.872 167.905 113.577 168.261 113.577L177.298 113.577C177.654 113.577 177.943 113.872 177.943 114.236L177.943 123.458C177.943 123.822 177.654 124.117 177.298 124.117L168.261 124.117C167.905 124.117 167.616 123.822 167.616 123.458L167.616 114.236Z" fill="#0085FF"/>
<path d="M179.665 114.236C179.665 113.872 179.954 113.577 180.31 113.577L189.347 113.577C189.703 113.577 189.992 113.872 189.992 114.236L189.992 123.458C189.992 123.822 189.703 124.117 189.347 124.117L180.31 124.117C179.954 124.117 179.665 123.822 179.665 123.458L179.665 114.236Z" fill="#0085FF"/>
<path d="M191.714 114.236C191.714 113.872 192.003 113.577 192.359 113.577L201.396 113.577C201.753 113.577 202.042 113.872 202.042 114.236L202.042 123.458C202.042 123.822 201.753 124.117 201.396 124.117L192.359 124.117C192.003 124.117 191.714 123.822 191.714 123.458L191.714 114.236Z" fill="#0085FF"/>
<path d="M203.763 114.236C203.763 113.872 204.052 113.577 204.408 113.577L213.445 113.577C213.802 113.577 214.091 113.872 214.091 114.236L214.091 123.458C214.091 123.822 213.802 124.117 213.445 124.117L204.408 124.117C204.052 124.117 203.763 123.822 203.763 123.458L203.763 114.236Z" fill="#0085FF"/>
<path d="M227.861 126.533C227.861 126.169 228.15 125.874 228.506 125.874L237.543 125.874C237.9 125.874 238.189 126.169 238.189 126.533L238.189 135.755C238.189 136.119 237.9 136.414 237.543 136.414L228.506 136.414C228.15 136.414 227.861 136.119 227.861 135.755L227.861 126.533Z" fill="#0085FF"/>
<path d="M179.665 126.533C179.665 126.169 179.954 125.874 180.31 125.874L189.347 125.874C189.703 125.874 189.992 126.169 189.992 126.533L189.992 135.755C189.992 136.119 189.703 136.414 189.347 136.414L180.31 136.414C179.954 136.414 179.665 136.119 179.665 135.755L179.665 126.533Z" fill="#0085FF"/>
<path d="M191.714 126.533C191.714 126.169 192.003 125.874 192.359 125.874L201.396 125.874C201.753 125.874 202.042 126.169 202.042 126.533L202.042 135.755C202.042 136.119 201.753 136.414 201.396 136.414L192.359 136.414C192.003 136.414 191.714 136.119 191.714 135.755L191.714 126.533Z" fill="#0085FF"/>
<path d="M227.861 138.829C227.861 138.465 228.15 138.17 228.506 138.17L237.543 138.17C237.9 138.17 238.189 138.465 238.189 138.829L238.189 148.052C238.189 148.415 237.9 148.71 237.543 148.71L228.506 148.71C228.15 148.71 227.861 148.415 227.861 148.052L227.861 138.829Z" fill="#0085FF"/>
<path d="M179.665 138.829C179.665 138.465 179.954 138.17 180.31 138.17L189.347 138.17C189.703 138.17 189.992 138.465 189.992 138.829L189.992 148.052C189.992 148.415 189.703 148.71 189.347 148.71L180.31 148.71C179.954 148.71 179.665 148.415 179.665 148.052L179.665 138.829Z" fill="#0085FF"/>
<path d="M191.714 138.829C191.714 138.465 192.003 138.17 192.359 138.17L201.396 138.17C201.753 138.17 202.042 138.465 202.042 138.829L202.041 148.052C202.041 148.415 201.753 148.71 201.396 148.71L192.359 148.71C192.003 148.71 191.714 148.415 191.714 148.052L191.714 138.829Z" fill="#0085FF"/>
<path d="M227.861 151.126C227.861 150.762 228.15 150.467 228.506 150.467L237.543 150.467C237.9 150.467 238.189 150.762 238.189 151.126L238.189 160.348C238.189 160.712 237.9 161.007 237.543 161.007L228.506 161.007C228.15 161.007 227.861 160.712 227.861 160.348L227.861 151.126Z" fill="#0085FF"/>
<path d="M215.812 163.422C215.812 163.058 216.101 162.763 216.457 162.763L225.494 162.763C225.851 162.763 226.14 163.058 226.14 163.422L226.14 172.645C226.14 173.008 225.851 173.303 225.494 173.303L216.457 173.303C216.101 173.303 215.812 173.008 215.812 172.645L215.812 163.422Z" fill="#0085FF"/>
<path d="M216.457 150.467C216.101 150.467 215.812 150.762 215.812 151.126L215.812 160.348C215.812 160.712 216.101 161.007 216.457 161.007L225.494 161.007C225.851 161.007 226.14 160.712 226.14 160.348L226.14 151.126C226.14 150.762 225.851 150.467 225.494 150.467L216.457 150.467Z" fill="#0085FF"/>
<path d="M131.465 126.534C131.465 126.17 131.754 125.875 132.11 125.875L141.147 125.875C141.504 125.875 141.793 126.17 141.793 126.534L141.793 135.757C141.793 136.12 141.504 136.415 141.147 136.415L132.11 136.415C131.754 136.415 131.465 136.12 131.465 135.757L131.465 126.534Z" fill="#0055A4"/>
<path d="M143.514 126.534C143.514 126.17 143.803 125.875 144.159 125.875L153.196 125.875C153.553 125.875 153.842 126.17 153.842 126.534L153.842 135.757C153.842 136.12 153.553 136.415 153.196 136.415L144.159 136.415C143.803 136.415 143.514 136.12 143.514 135.757L143.514 126.534Z" fill="#0055A4"/>
<path d="M132.11 138.172C131.754 138.172 131.465 138.467 131.465 138.831L131.465 148.053C131.465 148.417 131.754 148.712 132.11 148.712L141.147 148.712C141.504 148.712 141.793 148.417 141.793 148.053L141.793 138.831C141.793 138.467 141.504 138.172 141.147 138.172L132.11 138.172Z" fill="#0055A4"/>
<path d="M131.465 151.127C131.465 150.763 131.754 150.469 132.11 150.469L141.147 150.469C141.504 150.469 141.793 150.763 141.793 151.127L141.793 160.35C141.793 160.714 141.504 161.008 141.147 161.008L132.11 161.008C131.754 161.008 131.465 160.714 131.465 160.35L131.465 151.127Z" fill="#0055A4"/>
<path d="M168.258 150.469C167.901 150.469 167.612 150.763 167.612 151.127L167.612 160.35C167.612 160.714 167.901 161.008 168.258 161.008L177.294 161.008C177.651 161.008 177.94 160.714 177.94 160.35L177.94 151.127C177.94 150.764 177.651 150.469 177.294 150.469L168.258 150.469Z" fill="#0055A4"/>
<path d="M143.514 163.424C143.514 163.06 143.803 162.765 144.159 162.765L153.196 162.765C153.553 162.765 153.842 163.06 153.842 163.424L153.842 172.646C153.842 173.01 153.553 173.305 153.196 173.305L144.159 173.305C143.803 173.305 143.514 173.01 143.514 172.646L143.514 163.424Z" fill="#0055A4"/>
<path d="M168.258 162.765C167.901 162.765 167.612 163.06 167.612 163.424L167.612 172.646C167.612 173.01 167.901 173.305 168.258 173.305L177.294 173.305C177.651 173.305 177.94 173.01 177.94 172.646L177.94 163.424C177.94 163.06 177.651 162.765 177.294 162.765L168.258 162.765Z" fill="#0055A4"/>
<path d="M144.159 113.58C143.803 113.58 143.514 113.875 143.514 114.239L143.514 123.461C143.514 123.825 143.803 124.12 144.159 124.12L153.196 124.12C153.552 124.12 153.841 123.825 153.841 123.461L153.841 114.239C153.841 113.875 153.552 113.58 153.196 113.58L144.159 113.58Z" fill="#006ACB"/>
<path d="M144.159 138.173C143.803 138.173 143.514 138.468 143.514 138.832L143.514 148.054C143.514 148.418 143.803 148.713 144.159 148.713L153.196 148.713C153.552 148.713 153.841 148.418 153.841 148.054L153.841 138.832C153.841 138.468 153.552 138.173 153.196 138.173L144.159 138.173Z" fill="#006ACB"/>
<path d="M155.563 151.128C155.563 150.765 155.852 150.47 156.208 150.47L165.245 150.47C165.602 150.47 165.891 150.765 165.891 151.128L165.891 160.351C165.891 160.715 165.602 161.01 165.245 161.01L156.208 161.01C155.852 161.01 155.563 160.715 155.563 160.351L155.563 151.128Z" fill="#006ACB"/>
<path d="M144.159 150.47C143.803 150.47 143.514 150.765 143.514 151.128L143.514 160.351C143.514 160.715 143.803 161.01 144.159 161.01L153.196 161.01C153.552 161.01 153.841 160.715 153.841 160.351L153.841 151.128C153.841 150.765 153.552 150.47 153.196 150.47L144.159 150.47Z" fill="#006ACB"/>
<path d="M179.661 151.128C179.661 150.765 179.95 150.47 180.306 150.47L189.343 150.47C189.7 150.47 189.989 150.765 189.989 151.128L189.989 160.351C189.989 160.715 189.7 161.01 189.343 161.01L180.306 161.01C179.95 161.01 179.661 160.715 179.661 160.351L179.661 151.128Z" fill="#006ACB"/>
<path d="M192.356 150.47C191.999 150.47 191.71 150.765 191.71 151.128L191.71 160.351C191.71 160.715 191.999 161.01 192.356 161.01L201.392 161.01C201.749 161.01 202.038 160.715 202.038 160.351L202.038 151.128C202.038 150.765 201.749 150.47 201.392 150.47L192.356 150.47Z" fill="#006ACB"/>
<path d="M203.759 151.128C203.759 150.765 204.048 150.47 204.405 150.47L213.441 150.47C213.798 150.47 214.087 150.765 214.087 151.128L214.087 160.351C214.087 160.715 213.798 161.01 213.441 161.01L204.405 161.01C204.048 161.01 203.759 160.715 203.759 160.351L203.759 151.128Z" fill="#006ACB"/>
<path d="M192.356 162.766C191.999 162.766 191.71 163.061 191.71 163.425L191.71 172.647C191.71 173.011 191.999 173.306 192.356 173.306L201.392 173.306C201.749 173.306 202.038 173.011 202.038 172.647L202.038 163.425C202.038 163.061 201.749 162.766 201.392 162.766L192.356 162.766Z" fill="#006ACB"/>
</g>
<g filter="url(#filter3_b_1616_66790)">
<path d="M168.257 124.796C167.9 124.796 167.611 125.091 167.611 125.455L167.611 134.678C167.611 135.041 167.9 135.336 168.257 135.336L177.294 135.336C177.65 135.336 177.939 135.041 177.939 134.678L177.939 125.455C177.939 125.091 177.65 124.796 177.294 124.796L168.257 124.796Z" fill="white"/>
<path d="M216.453 124.796C216.097 124.796 215.808 125.091 215.808 125.455L215.808 134.678C215.808 135.041 216.097 135.336 216.453 135.336L225.49 135.336C225.847 135.336 226.135 135.041 226.135 134.678L226.135 125.455C226.135 125.091 225.847 124.796 225.49 124.796L216.453 124.796Z" fill="white"/>
<path d="M155.566 100.86C155.566 100.497 155.855 100.202 156.212 100.202L165.249 100.202C165.605 100.202 165.894 100.497 165.894 100.86L165.894 110.083C165.894 110.447 165.605 110.742 165.249 110.742L156.212 110.742C155.855 110.742 155.566 110.447 155.566 110.083L155.566 100.86Z" fill="#0085FF"/>
<path d="M167.616 100.86C167.616 100.497 167.905 100.202 168.261 100.202L177.298 100.202C177.654 100.202 177.943 100.497 177.943 100.86L177.943 110.083C177.943 110.447 177.654 110.742 177.298 110.742L168.261 110.742C167.905 110.742 167.616 110.447 167.616 110.083L167.616 100.86Z" fill="#0085FF"/>
<path d="M179.665 100.86C179.665 100.497 179.954 100.202 180.31 100.202L189.347 100.202C189.703 100.202 189.992 100.497 189.992 100.86L189.992 110.083C189.992 110.447 189.703 110.742 189.347 110.742L180.31 110.742C179.954 110.742 179.665 110.447 179.665 110.083L179.665 100.86Z" fill="#0085FF"/>
<path d="M191.714 100.86C191.714 100.497 192.003 100.202 192.359 100.202L201.396 100.202C201.753 100.202 202.042 100.497 202.042 100.86L202.042 110.083C202.042 110.447 201.753 110.742 201.396 110.742L192.359 110.742C192.003 110.742 191.714 110.447 191.714 110.083L191.714 100.86Z" fill="#0085FF"/>
<path d="M203.763 100.86C203.763 100.497 204.052 100.202 204.408 100.202L213.445 100.202C213.802 100.202 214.091 100.497 214.091 100.86L214.091 110.083C214.091 110.447 213.802 110.742 213.445 110.742L204.408 110.742C204.052 110.742 203.763 110.447 203.763 110.083L203.763 100.86Z" fill="#0085FF"/>
<path d="M155.566 113.157C155.566 112.793 155.855 112.498 156.212 112.498L165.249 112.498C165.605 112.498 165.894 112.793 165.894 113.157L165.894 122.379C165.894 122.743 165.605 123.038 165.249 123.038L156.212 123.038C155.855 123.038 155.566 122.743 155.566 122.379L155.566 113.157Z" fill="#0085FF"/>
<path d="M215.812 113.157C215.812 112.793 216.101 112.498 216.457 112.498L225.494 112.498C225.851 112.498 226.14 112.793 226.14 113.157L226.14 122.379C226.14 122.743 225.851 123.038 225.494 123.038L216.457 123.038C216.101 123.038 215.812 122.743 215.812 122.379L215.812 113.157Z" fill="#0085FF"/>
<path d="M167.616 113.157C167.616 112.793 167.905 112.498 168.261 112.498L177.298 112.498C177.654 112.498 177.943 112.793 177.943 113.157L177.943 122.379C177.943 122.743 177.654 123.038 177.298 123.038L168.261 123.038C167.905 123.038 167.616 122.743 167.616 122.379L167.616 113.157Z" fill="#0085FF"/>
<path d="M179.665 113.157C179.665 112.793 179.954 112.498 180.31 112.498L189.347 112.498C189.703 112.498 189.992 112.793 189.992 113.157L189.992 122.379C189.992 122.743 189.703 123.038 189.347 123.038L180.31 123.038C179.954 123.038 179.665 122.743 179.665 122.379L179.665 113.157Z" fill="#0085FF"/>
<path d="M191.714 113.157C191.714 112.793 192.003 112.498 192.359 112.498L201.396 112.498C201.753 112.498 202.042 112.793 202.042 113.157L202.042 122.379C202.042 122.743 201.753 123.038 201.396 123.038L192.359 123.038C192.003 123.038 191.714 122.743 191.714 122.379L191.714 113.157Z" fill="#0085FF"/>
<path d="M203.763 113.157C203.763 112.793 204.052 112.498 204.408 112.498L213.445 112.498C213.802 112.498 214.091 112.793 214.091 113.157L214.091 122.379C214.091 122.743 213.802 123.038 213.445 123.038L204.408 123.038C204.052 123.038 203.763 122.743 203.763 122.379L203.763 113.157Z" fill="#0085FF"/>
<path d="M227.861 125.454C227.861 125.09 228.15 124.795 228.506 124.795L237.543 124.795C237.9 124.795 238.189 125.09 238.189 125.454L238.189 134.676C238.189 135.04 237.9 135.335 237.543 135.335L228.506 135.335C228.15 135.335 227.861 135.04 227.861 134.676L227.861 125.454Z" fill="#0085FF"/>
<path d="M179.665 125.453C179.665 125.09 179.954 124.795 180.31 124.795L189.347 124.795C189.703 124.795 189.992 125.09 189.992 125.453L189.992 134.676C189.992 135.04 189.703 135.335 189.347 135.335L180.31 135.335C179.954 135.335 179.665 135.04 179.665 134.676L179.665 125.453Z" fill="#0085FF"/>
<path d="M191.714 125.453C191.714 125.09 192.003 124.795 192.359 124.795L201.396 124.795C201.753 124.795 202.042 125.09 202.042 125.453L202.042 134.676C202.042 135.04 201.753 135.335 201.396 135.335L192.359 135.335C192.003 135.335 191.714 135.04 191.714 134.676L191.714 125.453Z" fill="#0085FF"/>
<path d="M227.861 137.75C227.861 137.386 228.15 137.091 228.506 137.091L237.543 137.091C237.9 137.091 238.189 137.386 238.189 137.75L238.189 146.972C238.189 147.336 237.9 147.631 237.543 147.631L228.506 147.631C228.15 147.631 227.861 147.336 227.861 146.972L227.861 137.75Z" fill="#0085FF"/>
<path d="M179.665 137.75C179.665 137.386 179.954 137.091 180.31 137.091L189.347 137.091C189.703 137.091 189.992 137.386 189.992 137.75L189.992 146.972C189.992 147.336 189.703 147.631 189.347 147.631L180.31 147.631C179.954 147.631 179.665 147.336 179.665 146.972L179.665 137.75Z" fill="#0085FF"/>
<path d="M191.714 137.75C191.714 137.386 192.003 137.091 192.359 137.091L201.396 137.091C201.753 137.091 202.042 137.386 202.042 137.75L202.041 146.972C202.041 147.336 201.753 147.631 201.396 147.631L192.359 147.631C192.003 147.631 191.714 147.336 191.714 146.972L191.714 137.75Z" fill="#0085FF"/>
<path d="M227.861 150.047C227.861 149.683 228.15 149.388 228.506 149.388L237.543 149.388C237.9 149.388 238.189 149.683 238.189 150.047L238.189 159.269C238.189 159.633 237.9 159.928 237.543 159.928L228.506 159.928C228.15 159.928 227.861 159.633 227.861 159.269L227.861 150.047Z" fill="#0085FF"/>
<path d="M215.812 162.343C215.812 161.979 216.101 161.684 216.457 161.684L225.494 161.684C225.851 161.684 226.14 161.979 226.14 162.343L226.14 171.566C226.14 171.929 225.851 172.224 225.494 172.224L216.457 172.224C216.101 172.224 215.812 171.929 215.812 171.566L215.812 162.343Z" fill="#0085FF"/>
<path d="M216.457 149.388C216.101 149.388 215.812 149.683 215.812 150.047L215.812 159.269C215.812 159.633 216.101 159.928 216.457 159.928L225.494 159.928C225.851 159.928 226.14 159.633 226.14 159.269L226.14 150.047C226.14 149.683 225.851 149.388 225.494 149.388L216.457 149.388Z" fill="#0085FF"/>
<path d="M131.465 125.455C131.465 125.091 131.754 124.796 132.11 124.796L141.147 124.796C141.504 124.796 141.793 125.091 141.793 125.455L141.793 134.678C141.793 135.041 141.504 135.336 141.147 135.336L132.11 135.336C131.754 135.336 131.465 135.041 131.465 134.678L131.465 125.455Z" fill="#0055A4"/>
<path d="M143.514 125.455C143.514 125.091 143.803 124.796 144.159 124.796L153.196 124.796C153.553 124.796 153.842 125.091 153.842 125.455L153.842 134.678C153.842 135.041 153.553 135.336 153.196 135.336L144.159 135.336C143.803 135.336 143.514 135.041 143.514 134.678L143.514 125.455Z" fill="#0055A4"/>
<path d="M132.11 137.093C131.754 137.093 131.465 137.388 131.465 137.752L131.465 146.974C131.465 147.338 131.754 147.633 132.11 147.633L141.147 147.633C141.504 147.633 141.793 147.338 141.793 146.974L141.793 137.752C141.793 137.388 141.504 137.093 141.147 137.093L132.11 137.093Z" fill="#0055A4"/>
<path d="M131.465 150.048C131.465 149.684 131.754 149.389 132.11 149.389L141.147 149.389C141.504 149.389 141.793 149.684 141.793 150.048L141.793 159.271C141.793 159.634 141.504 159.929 141.147 159.929L132.11 159.929C131.754 159.929 131.465 159.634 131.465 159.271L131.465 150.048Z" fill="#0055A4"/>
<path d="M168.258 149.389C167.901 149.389 167.612 149.684 167.612 150.048L167.612 159.271C167.612 159.634 167.901 159.929 168.258 159.929L177.294 159.929C177.651 159.929 177.94 159.634 177.94 159.271L177.94 150.048C177.94 149.684 177.651 149.389 177.294 149.389L168.258 149.389Z" fill="#0055A4"/>
<path d="M143.514 162.345C143.514 161.981 143.803 161.686 144.159 161.686L153.196 161.686C153.553 161.686 153.842 161.981 153.842 162.345L153.842 171.567C153.842 171.931 153.553 172.226 153.196 172.226L144.159 172.226C143.803 172.226 143.514 171.931 143.514 171.567L143.514 162.345Z" fill="#0055A4"/>
<path d="M168.258 161.686C167.901 161.686 167.612 161.981 167.612 162.345L167.612 171.567C167.612 171.931 167.901 172.226 168.258 172.226L177.294 172.226C177.651 172.226 177.94 171.931 177.94 171.567L177.94 162.345C177.94 161.981 177.651 161.686 177.294 161.686L168.258 161.686Z" fill="#0055A4"/>
<path d="M144.159 112.504C143.803 112.504 143.514 112.799 143.514 113.163L143.514 122.385C143.514 122.749 143.803 123.044 144.159 123.044L153.196 123.044C153.552 123.044 153.841 122.749 153.841 122.385L153.841 113.163C153.841 112.799 153.552 112.504 153.196 112.504L144.159 112.504Z" fill="#006ACB"/>
<path d="M144.159 137.097C143.803 137.097 143.514 137.392 143.514 137.756L143.514 146.978C143.514 147.342 143.803 147.637 144.159 147.637L153.196 147.637C153.552 147.637 153.841 147.342 153.841 146.978L153.841 137.756C153.841 137.392 153.552 137.097 153.196 137.097L144.159 137.097Z" fill="#006ACB"/>
<path d="M155.563 150.052C155.563 149.688 155.852 149.394 156.208 149.394L165.245 149.394C165.602 149.394 165.891 149.688 165.891 150.052L165.891 159.275C165.891 159.638 165.602 159.933 165.245 159.933L156.208 159.933C155.852 159.933 155.563 159.638 155.563 159.275L155.563 150.052Z" fill="#006ACB"/>
<path d="M144.159 149.394C143.803 149.394 143.514 149.688 143.514 150.052L143.514 159.275C143.514 159.638 143.803 159.933 144.159 159.933L153.196 159.933C153.552 159.933 153.841 159.638 153.841 159.275L153.841 150.052C153.841 149.688 153.552 149.394 153.196 149.394L144.159 149.394Z" fill="#006ACB"/>
<path d="M179.661 150.052C179.661 149.688 179.95 149.394 180.306 149.394L189.343 149.394C189.7 149.394 189.989 149.688 189.989 150.052L189.989 159.275C189.989 159.638 189.7 159.933 189.343 159.933L180.306 159.933C179.95 159.933 179.661 159.638 179.661 159.275L179.661 150.052Z" fill="#006ACB"/>
<path d="M192.356 149.394C191.999 149.394 191.71 149.688 191.71 150.052L191.71 159.275C191.71 159.638 191.999 159.933 192.356 159.933L201.392 159.933C201.749 159.933 202.038 159.638 202.038 159.275L202.038 150.052C202.038 149.688 201.749 149.394 201.392 149.394L192.356 149.394Z" fill="#006ACB"/>
<path d="M203.759 150.052C203.759 149.688 204.048 149.394 204.405 149.394L213.441 149.394C213.798 149.394 214.087 149.688 214.087 150.052L214.087 159.275C214.087 159.638 213.798 159.933 213.441 159.933L204.405 159.933C204.048 159.933 203.759 159.638 203.759 159.275L203.759 150.052Z" fill="#006ACB"/>
<path d="M192.356 161.69C191.999 161.69 191.71 161.985 191.71 162.349L191.71 171.571C191.71 171.935 191.999 172.23 192.356 172.23L201.392 172.23C201.749 172.23 202.038 171.935 202.038 171.571L202.038 162.349C202.038 161.985 201.749 161.69 201.392 161.69L192.356 161.69Z" fill="#006ACB"/>
</g>
<g opacity="0.4" filter="url(#filter4_f_1616_66790)">
<path d="M389.154 198.928C389.546 198.928 389.863 199.248 389.863 199.643L389.863 209.659C389.863 210.054 389.546 210.374 389.154 210.374L379.222 210.374C378.83 210.374 378.512 210.054 378.512 209.659L378.512 199.643C378.512 199.248 378.83 198.928 379.222 198.928L389.154 198.928Z" fill="white"/>
<path d="M336.183 198.928C336.575 198.928 336.892 199.248 336.892 199.643L336.892 209.659C336.892 210.054 336.575 210.374 336.183 210.374L326.251 210.374C325.859 210.374 325.541 210.054 325.541 209.659L325.541 199.643C325.541 199.248 325.859 198.928 326.251 198.928L336.183 198.928Z" fill="white"/>
<path d="M402.873 173.074C402.873 172.679 402.555 172.358 402.164 172.358L392.232 172.358C391.84 172.358 391.522 172.679 391.522 173.074L391.522 183.09C391.522 183.485 391.84 183.805 392.232 183.805L402.164 183.805C402.555 183.805 402.873 183.485 402.873 183.09L402.873 173.074Z" fill="#E90000"/>
<path d="M389.63 173.074C389.63 172.679 389.313 172.358 388.921 172.358L378.989 172.358C378.597 172.358 378.279 172.679 378.279 173.074L378.279 183.09C378.279 183.485 378.597 183.805 378.989 183.805L388.921 183.805C389.313 183.805 389.63 183.485 389.63 183.09L389.63 173.074Z" fill="#E90000"/>
<path d="M376.387 173.074C376.387 172.679 376.07 172.358 375.678 172.358L365.746 172.358C365.354 172.358 365.037 172.679 365.037 173.074L365.037 183.09C365.037 183.485 365.354 183.805 365.746 183.805L375.678 183.805C376.07 183.805 376.387 183.485 376.387 183.09L376.387 173.074Z" fill="#E90000"/>
<path d="M363.145 173.074C363.145 172.679 362.827 172.358 362.435 172.358L352.503 172.358C352.111 172.358 351.794 172.679 351.794 173.074L351.794 183.09C351.794 183.485 352.111 183.805 352.503 183.805L362.435 183.805C362.827 183.805 363.145 183.485 363.145 183.09L363.145 173.074Z" fill="#E90000"/>
<path d="M349.902 173.074C349.902 172.679 349.584 172.358 349.192 172.358L339.26 172.358C338.869 172.358 338.551 172.679 338.551 173.074L338.551 183.09C338.551 183.485 338.869 183.805 339.26 183.805L349.192 183.805C349.584 183.805 349.902 183.485 349.902 183.09L349.902 173.074Z" fill="#E90000"/>
<path d="M402.873 186.428C402.873 186.033 402.555 185.713 402.164 185.713L392.232 185.713C391.84 185.713 391.522 186.033 391.522 186.428L391.522 196.444C391.522 196.839 391.84 197.16 392.232 197.16L402.164 197.16C402.555 197.16 402.873 196.839 402.873 196.444L402.873 186.428Z" fill="#E90000"/>
<path d="M336.659 186.428C336.659 186.033 336.342 185.713 335.95 185.713L326.018 185.713C325.626 185.713 325.308 186.033 325.308 186.428L325.308 196.444C325.308 196.839 325.626 197.16 326.018 197.16L335.95 197.16C336.342 197.16 336.659 196.839 336.659 196.444L336.659 186.428Z" fill="#E90000"/>
<path d="M389.63 186.428C389.63 186.033 389.313 185.713 388.921 185.713L378.989 185.713C378.597 185.713 378.279 186.033 378.279 186.428L378.279 196.444C378.279 196.839 378.597 197.16 378.989 197.16L388.921 197.16C389.313 197.16 389.63 196.839 389.63 196.444L389.63 186.428Z" fill="#E90000"/>
<path d="M376.387 186.428C376.387 186.033 376.07 185.713 375.678 185.713L365.746 185.713C365.354 185.713 365.037 186.033 365.037 186.428L365.037 196.444C365.037 196.839 365.354 197.16 365.746 197.16L375.678 197.16C376.07 197.16 376.387 196.839 376.387 196.444L376.387 186.428Z" fill="#E90000"/>
<path d="M363.145 186.428C363.145 186.033 362.827 185.713 362.435 185.713L352.503 185.713C352.111 185.713 351.794 186.033 351.794 186.428L351.794 196.444C351.794 196.839 352.111 197.16 352.503 197.16L362.435 197.16C362.827 197.16 363.145 196.839 363.145 196.444L363.145 186.428Z" fill="#E90000"/>
<path d="M349.902 186.428C349.902 186.033 349.584 185.713 349.192 185.713L339.26 185.713C338.869 185.713 338.551 186.033 338.551 186.428L338.551 196.444C338.551 196.839 338.869 197.16 339.26 197.16L349.192 197.16C349.584 197.16 349.902 196.839 349.902 196.444L349.902 186.428Z" fill="#E90000"/>
<path d="M323.416 199.783C323.416 199.388 323.099 199.067 322.707 199.067L312.775 199.067C312.383 199.067 312.065 199.388 312.065 199.783L312.065 209.799C312.065 210.194 312.383 210.514 312.775 210.514L322.707 210.514C323.099 210.514 323.416 210.194 323.416 209.799L323.416 199.783Z" fill="#E90000"/>
<path d="M376.387 199.783C376.387 199.388 376.07 199.067 375.678 199.067L365.746 199.067C365.354 199.067 365.037 199.388 365.037 199.783L365.037 209.799C365.037 210.194 365.354 210.514 365.746 210.514L375.678 210.514C376.07 210.514 376.387 210.194 376.387 209.799L376.387 199.783Z" fill="#E90000"/>
<path d="M363.145 199.783C363.145 199.388 362.827 199.067 362.435 199.067L352.503 199.067C352.111 199.067 351.794 199.388 351.794 199.783L351.794 209.799C351.794 210.194 352.111 210.514 352.503 210.514L362.435 210.514C362.827 210.514 363.145 210.194 363.145 209.799L363.145 199.783Z" fill="#E90000"/>
<path d="M323.416 213.137C323.416 212.742 323.099 212.422 322.707 212.422L312.775 212.422C312.383 212.422 312.065 212.742 312.065 213.137L312.065 223.153C312.065 223.548 312.383 223.869 312.775 223.869L322.707 223.869C323.099 223.869 323.416 223.548 323.416 223.153L323.416 213.137Z" fill="#E90000"/>
<path d="M376.387 213.137C376.387 212.742 376.07 212.422 375.678 212.422L365.746 212.422C365.354 212.422 365.037 212.742 365.037 213.137L365.037 223.153C365.037 223.548 365.354 223.869 365.746 223.869L375.678 223.869C376.07 223.869 376.387 223.548 376.387 223.153L376.387 213.137Z" fill="#E90000"/>
<path d="M363.145 213.137C363.145 212.742 362.827 212.422 362.435 212.422L352.503 212.422C352.111 212.422 351.794 212.742 351.794 213.137L351.794 223.153C351.794 223.548 352.111 223.869 352.503 223.869L362.435 223.869C362.827 223.869 363.145 223.548 363.145 223.153L363.145 213.137Z" fill="#E90000"/>
<path d="M323.416 226.492C323.416 226.097 323.099 225.777 322.707 225.777L312.775 225.777C312.383 225.777 312.065 226.097 312.065 226.492L312.065 236.508C312.065 236.903 312.383 237.223 312.775 237.223L322.707 237.223C323.099 237.223 323.416 236.903 323.416 236.508L323.416 226.492Z" fill="#E90000"/>
<path d="M336.659 239.846C336.659 239.451 336.342 239.131 335.95 239.131L326.018 239.131C325.626 239.131 325.308 239.451 325.308 239.846L325.308 249.862C325.308 250.257 325.626 250.578 326.018 250.578L335.95 250.578C336.342 250.578 336.659 250.257 336.659 249.862L336.659 239.846Z" fill="#E90000"/>
<path d="M335.95 225.777C336.342 225.777 336.659 226.097 336.659 226.492L336.659 236.508C336.659 236.903 336.342 237.223 335.95 237.223L326.018 237.223C325.626 237.223 325.308 236.903 325.308 236.508L325.308 226.492C325.308 226.097 325.626 225.777 326.018 225.777L335.95 225.777Z" fill="#E90000"/>
<path d="M429.033 199.841C429.033 199.446 428.716 199.126 428.324 199.126L418.392 199.126C418 199.126 417.682 199.446 417.682 199.841L417.682 209.857C417.682 210.252 418 210.573 418.392 210.573L428.324 210.573C428.716 210.573 429.033 210.252 429.033 209.857L429.033 199.841Z" fill="#8E0F0F"/>
<path d="M415.79 199.841C415.79 199.446 415.473 199.126 415.081 199.126L405.149 199.126C404.757 199.126 404.439 199.446 404.439 199.841L404.439 209.857C404.439 210.252 404.757 210.573 405.149 210.573L415.081 210.573C415.473 210.573 415.79 210.252 415.79 209.857L415.79 199.841Z" fill="#8E0F0F"/>
<path d="M428.324 212.48C428.716 212.48 429.033 212.801 429.033 213.196L429.033 223.212C429.033 223.607 428.716 223.927 428.324 223.927L418.392 223.927C418 223.927 417.682 223.607 417.682 223.212L417.682 213.196C417.682 212.801 418 212.48 418.392 212.48L428.324 212.48Z" fill="#8E0F0F"/>
<path d="M429.033 226.55C429.033 226.155 428.716 225.835 428.324 225.835L418.392 225.835C418 225.835 417.682 226.155 417.682 226.55L417.682 236.566C417.682 236.961 418 237.282 418.392 237.282L428.324 237.282C428.716 237.282 429.033 236.961 429.033 236.566L429.033 226.55Z" fill="#8E0F0F"/>
<path d="M388.595 225.835C388.987 225.835 389.305 226.155 389.305 226.55L389.305 236.566C389.305 236.961 388.987 237.282 388.595 237.282L378.663 237.282C378.272 237.282 377.954 236.961 377.954 236.566L377.954 226.55C377.954 226.155 378.272 225.835 378.663 225.835L388.595 225.835Z" fill="#8E0F0F"/>
<path d="M415.79 239.905C415.79 239.51 415.473 239.19 415.081 239.19L405.149 239.19C404.757 239.19 404.439 239.51 404.439 239.905L404.439 249.921C404.439 250.316 404.757 250.636 405.149 250.636L415.081 250.636C415.473 250.636 415.79 250.316 415.79 249.921L415.79 239.905Z" fill="#8E0F0F"/>
<path d="M388.595 239.19C388.987 239.19 389.305 239.51 389.305 239.905L389.305 249.921C389.305 250.316 388.987 250.636 388.595 250.636L378.663 250.636C378.272 250.636 377.954 250.316 377.954 249.921L377.954 239.905C377.954 239.51 378.272 239.19 378.663 239.19L388.595 239.19Z" fill="#8E0F0F"/>
<path d="M415.078 185.771C415.469 185.771 415.787 186.091 415.787 186.486L415.787 196.502C415.787 196.897 415.469 197.218 415.078 197.218L405.146 197.218C404.754 197.218 404.436 196.897 404.436 196.502L404.436 186.486C404.436 186.091 404.754 185.771 405.146 185.771L415.078 185.771Z" fill="#B30909"/>
<path d="M415.078 212.48C415.469 212.48 415.787 212.8 415.787 213.195L415.787 223.211C415.787 223.606 415.469 223.927 415.078 223.927L405.146 223.927C404.754 223.927 404.436 223.606 404.436 223.211L404.436 213.195C404.436 212.8 404.754 212.48 405.146 212.48L415.078 212.48Z" fill="#B30909"/>
<path d="M402.544 226.55C402.544 226.155 402.227 225.835 401.835 225.835L391.903 225.835C391.511 225.835 391.193 226.155 391.193 226.55L391.193 236.566C391.193 236.961 391.511 237.281 391.903 237.281L401.835 237.281C402.227 237.281 402.544 236.961 402.544 236.566L402.544 226.55Z" fill="#B30909"/>
<path d="M415.078 225.835C415.469 225.835 415.787 226.155 415.787 226.55L415.787 236.566C415.787 236.961 415.469 237.281 415.078 237.281L405.146 237.281C404.754 237.281 404.436 236.961 404.436 236.566L404.436 226.55C404.436 226.155 404.754 225.835 405.146 225.835L415.078 225.835Z" fill="#B30909"/>
<path d="M376.059 226.55C376.059 226.155 375.741 225.835 375.349 225.835L365.417 225.835C365.025 225.835 364.708 226.155 364.708 226.55L364.708 236.566C364.708 236.961 365.025 237.281 365.417 237.281L375.349 237.281C375.741 237.281 376.059 236.961 376.059 236.566L376.059 226.55Z" fill="#B30909"/>
<path d="M362.107 225.835C362.498 225.835 362.816 226.155 362.816 226.55L362.816 236.566C362.816 236.961 362.498 237.281 362.107 237.281L352.174 237.281C351.783 237.281 351.465 236.961 351.465 236.566L351.465 226.55C351.465 226.155 351.783 225.835 352.174 225.835L362.107 225.835Z" fill="#B30909"/>
<path d="M349.573 226.55C349.573 226.155 349.256 225.835 348.864 225.835L338.932 225.835C338.54 225.835 338.222 226.155 338.222 226.55L338.222 236.566C338.222 236.961 338.54 237.281 338.932 237.281L348.864 237.281C349.256 237.281 349.573 236.961 349.573 236.566L349.573 226.55Z" fill="#B30909"/>
<path d="M362.107 239.189C362.498 239.189 362.816 239.509 362.816 239.905L362.816 249.92C362.816 250.316 362.498 250.636 362.107 250.636L352.174 250.636C351.783 250.636 351.465 250.316 351.465 249.92L351.465 239.905C351.465 239.509 351.783 239.189 352.174 239.189L362.107 239.189Z" fill="#B30909"/>
</g>
<path d="M389.154 198.928C389.546 198.928 389.863 199.249 389.863 199.644L389.863 209.66C389.863 210.055 389.546 210.375 389.154 210.375L379.222 210.375C378.83 210.375 378.512 210.055 378.512 209.66L378.512 199.644C378.512 199.249 378.83 198.928 379.222 198.928L389.154 198.928Z" fill="white"/>
<path d="M336.183 198.928C336.575 198.928 336.892 199.249 336.892 199.644L336.892 209.66C336.892 210.055 336.575 210.375 336.183 210.375L326.251 210.375C325.859 210.375 325.541 210.055 325.541 209.66L325.541 199.644C325.541 199.249 325.859 198.928 326.251 198.928L336.183 198.928Z" fill="white"/>
<path d="M402.873 173.074C402.873 172.679 402.555 172.359 402.164 172.359L392.232 172.359C391.84 172.359 391.522 172.679 391.522 173.074L391.522 183.09C391.522 183.485 391.84 183.806 392.232 183.806L402.164 183.806C402.555 183.806 402.873 183.485 402.873 183.09L402.873 173.074Z" fill="#E90000"/>
<path d="M389.63 173.074C389.63 172.679 389.313 172.359 388.921 172.359L378.989 172.359C378.597 172.359 378.279 172.679 378.279 173.074L378.279 183.09C378.279 183.485 378.597 183.806 378.989 183.806L388.921 183.806C389.313 183.806 389.63 183.485 389.63 183.09L389.63 173.074Z" fill="#E90000"/>
<path d="M376.387 173.074C376.387 172.679 376.07 172.359 375.678 172.359L365.746 172.359C365.354 172.359 365.037 172.679 365.037 173.074L365.037 183.09C365.037 183.485 365.354 183.806 365.746 183.806L375.678 183.806C376.07 183.806 376.387 183.485 376.387 183.09L376.387 173.074Z" fill="#E90000"/>
<path d="M363.145 173.074C363.145 172.679 362.827 172.359 362.435 172.359L352.503 172.359C352.111 172.359 351.794 172.679 351.794 173.074L351.794 183.09C351.794 183.485 352.111 183.806 352.503 183.806L362.435 183.806C362.827 183.806 363.145 183.485 363.145 183.09L363.145 173.074Z" fill="#E90000"/>
<path d="M349.902 173.074C349.902 172.679 349.584 172.359 349.192 172.359L339.26 172.359C338.869 172.359 338.551 172.679 338.551 173.074L338.551 183.09C338.551 183.485 338.869 183.806 339.26 183.806L349.192 183.806C349.584 183.806 349.902 183.485 349.902 183.09L349.902 173.074Z" fill="#E90000"/>
<path d="M402.873 186.429C402.873 186.034 402.555 185.713 402.164 185.713L392.232 185.713C391.84 185.713 391.522 186.034 391.522 186.429L391.522 196.445C391.522 196.84 391.84 197.16 392.232 197.16L402.164 197.16C402.555 197.16 402.873 196.84 402.873 196.445L402.873 186.429Z" fill="#E90000"/>
<path d="M336.659 186.429C336.659 186.034 336.342 185.713 335.95 185.713L326.018 185.713C325.626 185.713 325.308 186.034 325.308 186.429L325.308 196.445C325.308 196.84 325.626 197.16 326.018 197.16L335.95 197.16C336.342 197.16 336.659 196.84 336.659 196.445L336.659 186.429Z" fill="#E90000"/>
<path d="M389.63 186.429C389.63 186.034 389.313 185.713 388.921 185.713L378.989 185.713C378.597 185.713 378.279 186.034 378.279 186.429L378.279 196.445C378.279 196.84 378.597 197.16 378.989 197.16L388.921 197.16C389.313 197.16 389.63 196.84 389.63 196.445L389.63 186.429Z" fill="#E90000"/>
<path d="M376.387 186.429C376.387 186.034 376.07 185.713 375.678 185.713L365.746 185.713C365.354 185.713 365.037 186.034 365.037 186.429L365.037 196.445C365.037 196.84 365.354 197.16 365.746 197.16L375.678 197.16C376.07 197.16 376.387 196.84 376.387 196.445L376.387 186.429Z" fill="#E90000"/>
<path d="M363.145 186.429C363.145 186.034 362.827 185.713 362.435 185.713L352.503 185.713C352.111 185.713 351.794 186.034 351.794 186.429L351.794 196.445C351.794 196.84 352.111 197.16 352.503 197.16L362.435 197.16C362.827 197.16 363.145 196.84 363.145 196.445L363.145 186.429Z" fill="#E90000"/>
<path d="M349.902 186.429C349.902 186.034 349.584 185.713 349.192 185.713L339.26 185.713C338.869 185.713 338.551 186.034 338.551 186.429L338.551 196.445C338.551 196.84 338.869 197.16 339.26 197.16L349.192 197.16C349.584 197.16 349.902 196.84 349.902 196.445L349.902 186.429Z" fill="#E90000"/>
<path d="M323.416 199.783C323.416 199.388 323.099 199.068 322.707 199.068L312.775 199.068C312.383 199.068 312.065 199.388 312.065 199.783L312.065 209.799C312.065 210.194 312.383 210.515 312.775 210.515L322.707 210.515C323.099 210.515 323.416 210.194 323.416 209.799L323.416 199.783Z" fill="#E90000"/>
<path d="M376.387 199.783C376.387 199.388 376.07 199.068 375.678 199.068L365.746 199.068C365.354 199.068 365.037 199.388 365.037 199.783L365.037 209.799C365.037 210.194 365.354 210.515 365.746 210.515L375.678 210.515C376.07 210.515 376.387 210.194 376.387 209.799L376.387 199.783Z" fill="#E90000"/>
<path d="M363.145 199.783C363.145 199.388 362.827 199.068 362.435 199.068L352.503 199.068C352.111 199.068 351.794 199.388 351.794 199.783L351.794 209.799C351.794 210.194 352.111 210.515 352.503 210.515L362.435 210.515C362.827 210.515 363.145 210.194 363.145 209.799L363.145 199.783Z" fill="#E90000"/>
<path d="M323.416 213.138C323.416 212.743 323.099 212.422 322.707 212.422L312.775 212.422C312.383 212.422 312.065 212.743 312.065 213.138L312.065 223.154C312.065 223.549 312.383 223.869 312.775 223.869L322.707 223.869C323.099 223.869 323.416 223.549 323.416 223.154L323.416 213.138Z" fill="#E90000"/>
<path d="M376.387 213.138C376.387 212.743 376.07 212.422 375.678 212.422L365.746 212.422C365.354 212.422 365.037 212.743 365.037 213.138L365.037 223.154C365.037 223.549 365.354 223.869 365.746 223.869L375.678 223.869C376.07 223.869 376.387 223.549 376.387 223.154L376.387 213.138Z" fill="#E90000"/>
<path d="M363.145 213.138C363.145 212.743 362.827 212.422 362.435 212.422L352.503 212.422C352.111 212.422 351.794 212.743 351.794 213.138L351.794 223.154C351.794 223.549 352.111 223.869 352.503 223.869L362.435 223.869C362.827 223.869 363.145 223.549 363.145 223.154L363.145 213.138Z" fill="#E90000"/>
<path d="M323.416 226.492C323.416 226.097 323.099 225.777 322.707 225.777L312.775 225.777C312.383 225.777 312.065 226.097 312.065 226.492L312.065 236.508C312.065 236.903 312.383 237.224 312.775 237.224L322.707 237.224C323.099 237.224 323.416 236.903 323.416 236.508L323.416 226.492Z" fill="#E90000"/>
<path d="M336.659 239.847C336.659 239.452 336.342 239.132 335.95 239.132L326.018 239.132C325.626 239.132 325.308 239.452 325.308 239.847L325.308 249.863C325.308 250.258 325.626 250.578 326.018 250.578L335.95 250.578C336.342 250.578 336.659 250.258 336.659 249.863L336.659 239.847Z" fill="#E90000"/>
<path d="M335.95 225.777C336.342 225.777 336.659 226.097 336.659 226.492L336.659 236.508C336.659 236.903 336.342 237.224 335.95 237.224L326.018 237.224C325.626 237.224 325.308 236.903 325.308 236.508L325.308 226.492C325.308 226.097 325.626 225.777 326.018 225.777L335.95 225.777Z" fill="#E90000"/>
<path d="M429.033 199.842C429.033 199.447 428.716 199.126 428.324 199.126L418.392 199.126C418 199.126 417.682 199.447 417.682 199.842L417.682 209.858C417.682 210.253 418 210.573 418.392 210.573L428.324 210.573C428.716 210.573 429.033 210.253 429.033 209.858L429.033 199.842Z" fill="#8E0F0F"/>
<path d="M415.79 199.842C415.79 199.447 415.473 199.126 415.081 199.126L405.149 199.126C404.757 199.126 404.439 199.447 404.439 199.842L404.439 209.858C404.439 210.253 404.757 210.573 405.149 210.573L415.081 210.573C415.473 210.573 415.79 210.253 415.79 209.858L415.79 199.842Z" fill="#8E0F0F"/>
<path d="M428.324 212.481C428.716 212.481 429.033 212.801 429.033 213.196L429.033 223.212C429.033 223.607 428.716 223.928 428.324 223.928L418.392 223.928C418 223.928 417.682 223.607 417.682 223.212L417.682 213.196C417.682 212.801 418 212.481 418.392 212.481L428.324 212.481Z" fill="#8E0F0F"/>
<path d="M429.033 226.551C429.033 226.156 428.716 225.836 428.324 225.836L418.392 225.836C418 225.836 417.682 226.156 417.682 226.551L417.682 236.567C417.682 236.962 418 237.282 418.392 237.282L428.324 237.282C428.716 237.282 429.033 236.962 429.033 236.567L429.033 226.551Z" fill="#8E0F0F"/>
<path d="M388.595 225.836C388.987 225.836 389.305 226.156 389.305 226.551L389.305 236.567C389.305 236.962 388.987 237.282 388.595 237.282L378.663 237.282C378.272 237.282 377.954 236.962 377.954 236.567L377.954 226.551C377.954 226.156 378.272 225.836 378.663 225.836L388.595 225.836Z" fill="#8E0F0F"/>
<path d="M415.79 239.905C415.79 239.51 415.473 239.19 415.081 239.19L405.149 239.19C404.757 239.19 404.439 239.51 404.439 239.905L404.439 249.921C404.439 250.316 404.757 250.637 405.149 250.637L415.081 250.637C415.473 250.637 415.79 250.316 415.79 249.921L415.79 239.905Z" fill="#8E0F0F"/>
<path d="M388.595 239.19C388.987 239.19 389.305 239.51 389.305 239.905L389.305 249.921C389.305 250.316 388.987 250.637 388.595 250.637L378.663 250.637C378.272 250.637 377.954 250.316 377.954 249.921L377.954 239.905C377.954 239.51 378.272 239.19 378.663 239.19L388.595 239.19Z" fill="#8E0F0F"/>
<path d="M415.078 185.771C415.469 185.771 415.787 186.092 415.787 186.487L415.787 196.503C415.787 196.898 415.469 197.218 415.078 197.218L405.146 197.218C404.754 197.218 404.436 196.898 404.436 196.503L404.436 186.487C404.436 186.092 404.754 185.771 405.146 185.771L415.078 185.771Z" fill="#B30909"/>
<path d="M415.078 212.481C415.469 212.481 415.787 212.801 415.787 213.196L415.787 223.212C415.787 223.607 415.469 223.927 415.078 223.927L405.146 223.927C404.754 223.927 404.436 223.607 404.436 223.212L404.436 213.196C404.436 212.801 404.754 212.481 405.146 212.481L415.078 212.481Z" fill="#B30909"/>
<path d="M402.544 226.55C402.544 226.155 402.227 225.835 401.835 225.835L391.903 225.835C391.511 225.835 391.193 226.155 391.193 226.55L391.193 236.566C391.193 236.961 391.511 237.282 391.903 237.282L401.835 237.282C402.227 237.282 402.544 236.961 402.544 236.566L402.544 226.55Z" fill="#B30909"/>
<path d="M415.078 225.835C415.469 225.835 415.787 226.155 415.787 226.55L415.787 236.566C415.787 236.961 415.469 237.282 415.078 237.282L405.146 237.282C404.754 237.282 404.436 236.961 404.436 236.566L404.436 226.55C404.436 226.155 404.754 225.835 405.146 225.835L415.078 225.835Z" fill="#B30909"/>
<path d="M376.059 226.55C376.059 226.155 375.741 225.835 375.349 225.835L365.417 225.835C365.025 225.835 364.708 226.155 364.708 226.55L364.708 236.566C364.708 236.961 365.025 237.282 365.417 237.282L375.349 237.282C375.741 237.282 376.059 236.961 376.059 236.566L376.059 226.55Z" fill="#B30909"/>
<path d="M362.107 225.835C362.498 225.835 362.816 226.155 362.816 226.55L362.816 236.566C362.816 236.961 362.498 237.282 362.107 237.282L352.174 237.282C351.783 237.282 351.465 236.961 351.465 236.566L351.465 226.55C351.465 226.155 351.783 225.835 352.174 225.835L362.107 225.835Z" fill="#B30909"/>
<path d="M349.573 226.55C349.573 226.155 349.256 225.835 348.864 225.835L338.932 225.835C338.54 225.835 338.222 226.155 338.222 226.55L338.222 236.566C338.222 236.961 338.54 237.282 338.932 237.282L348.864 237.282C349.256 237.282 349.573 236.961 349.573 236.566L349.573 226.55Z" fill="#B30909"/>
<path d="M362.107 239.19C362.498 239.19 362.816 239.51 362.816 239.905L362.816 249.921C362.816 250.316 362.498 250.636 362.107 250.636L352.174 250.636C351.783 250.636 351.465 250.316 351.465 249.921L351.465 239.905C351.465 239.51 351.783 239.19 352.174 239.19L362.107 239.19Z" fill="#B30909"/>
<defs>
<filter id="filter0_f_1616_66790" x="359.79" y="44.0891" width="91.2125" height="64.8306" filterUnits="userSpaceOnUse" color-interpolation-filters="sRGB">
<feFlood flood-opacity="0" result="BackgroundImageFix"/>
<feBlend mode="normal" in="SourceGraphic" in2="BackgroundImageFix" result="shape"/>
<feGaussianBlur stdDeviation="2.53164" result="effect1_foregroundBlur_1616_66790"/>
</filter>
<filter id="filter1_b_1616_66790" x="348.651" y="32.9499" width="113.491" height="87.109" filterUnits="userSpaceOnUse" color-interpolation-filters="sRGB">
<feFlood flood-opacity="0" result="BackgroundImageFix"/>
<feGaussianBlur in="BackgroundImage" stdDeviation="8.10123"/>
<feComposite in2="SourceAlpha" operator="in" result="effect1_backgroundBlur_1616_66790"/>
<feBlend mode="normal" in="SourceGraphic" in2="effect1_backgroundBlur_1616_66790" result="shape"/>
</filter>
<filter id="filter2_f_1616_66790" x="126.402" y="96.2175" width="116.851" height="82.1519" filterUnits="userSpaceOnUse" color-interpolation-filters="sRGB">
<feFlood flood-opacity="0" result="BackgroundImageFix"/>
<feBlend mode="normal" in="SourceGraphic" in2="BackgroundImageFix" result="shape"/>
<feGaussianBlur stdDeviation="2.53164" result="effect1_foregroundBlur_1616_66790"/>
</filter>
<filter id="filter3_b_1616_66790" x="129.44" y="98.1764" width="110.775" height="76.0789" filterUnits="userSpaceOnUse" color-interpolation-filters="sRGB">
<feFlood flood-opacity="0" result="BackgroundImageFix"/>
<feGaussianBlur in="BackgroundImage" stdDeviation="1.01265"/>
<feComposite in2="SourceAlpha" operator="in" result="effect1_backgroundBlur_1616_66790"/>
<feBlend mode="normal" in="SourceGraphic" in2="effect1_backgroundBlur_1616_66790" result="shape"/>
</filter>
<filter id="filter4_f_1616_66790" x="304.064" y="164.358" width="132.969" height="94.2778" filterUnits="userSpaceOnUse" color-interpolation-filters="sRGB">
<feFlood flood-opacity="0" result="BackgroundImageFix"/>
<feBlend mode="normal" in="SourceGraphic" in2="BackgroundImageFix" result="shape"/>
<feGaussianBlur stdDeviation="4" result="effect1_foregroundBlur_1616_66790"/>
</filter>
</defs>
</svg>
