<svg width="18" height="18" viewBox="0 0 18 18" fill="none" xmlns="http://www.w3.org/2000/svg">
<path d="M7.21685 3.64555L7.5695 3.29109L7.21685 3.64555L8.35477 4.77768C8.63585 5.05733 9.01622 5.21432 9.41272 5.21432H15C15.2761 5.21432 15.5 5.43818 15.5 5.71432V14C15.5 14.2761 15.2761 14.5 15 14.5H3C2.72386 14.5 2.5 14.2761 2.5 14V4C2.5 3.72386 2.72386 3.5 3 3.5H6.8642C6.99637 3.5 7.12316 3.55233 7.21685 3.64555ZM7.58389 12.0195C7.58389 12.848 8.25546 13.5195 9.08389 13.5195C9.91231 13.5195 10.5839 12.848 10.5839 12.0195V11.5112H11.0337C11.8621 11.5112 12.5337 10.8396 12.5337 10.0112C12.5337 9.18277 11.8621 8.5112 11.0337 8.5112H10.5839V8.01953C10.5839 7.1911 9.91231 6.51953 9.08389 6.51953C8.25546 6.51953 7.58389 7.1911 7.58389 8.01953V8.5112H7.03369C6.20526 8.5112 5.53369 9.18277 5.53369 10.0112C5.53369 10.8396 6.20526 11.5112 7.03369 11.5112H7.58389V12.0195Z" fill="white" stroke="white"/>
</svg>
