<svg width="18" height="18" viewBox="0 0 18 18" fill="none" xmlns="http://www.w3.org/2000/svg">
<path fill-rule="evenodd" clip-rule="evenodd" d="M3 3C2.44772 3 2 3.44772 2 4V14C2 14.5523 2.44772 15 3 15H15C15.5523 15 16 14.5523 16 14V5.71432C16 5.16203 15.5523 4.71432 15 4.71432H9.41272C9.14839 4.71432 8.89481 4.60966 8.70742 4.42322L7.5695 3.29109C7.38212 3.10466 7.12853 3 6.8642 3H3ZM11 11C11.5523 11 12 10.5523 12 10C12 9.44776 11.5523 9.00005 11 9.00005H7.00003C6.44774 9.00005 6.00003 9.44776 6.00003 10C6.00003 10.5523 6.44774 11 7.00003 11H11Z" fill="white"/>
</svg>
