<svg width="18" height="18" viewBox="0 0 18 18" fill="none" xmlns="http://www.w3.org/2000/svg">
<path fill-rule="evenodd" clip-rule="evenodd" d="M3 3C2.44775 3 2 3.44775 2 4V14C2 14.5522 2.44775 15 3 15H9.2146C8.87964 14.2278 8.91138 13.2944 9.49097 12.5142C8.19189 10.7659 9.64526 8.24854 11.8088 8.49927C12.5583 6.76685 14.8416 6.53589 16 7.8064V5.71436C16 5.16211 15.5522 4.71436 15 4.71436H9.41284C9.14844 4.71436 8.89478 4.60962 8.70752 4.42334L7.56958 3.29102C7.38208 3.10474 7.12842 3 6.86426 3H3ZM15.1559 9.24321C14.8605 8.20799 13.3934 8.20799 13.0979 9.24321C12.9395 9.79853 12.3689 10.1279 11.8088 9.98752C10.7645 9.72576 10.031 10.9963 10.7798 11.7698C11.1815 12.1847 11.1815 12.8435 10.7798 13.2584C10.031 14.0319 10.7645 15.3024 11.8088 15.0407C12.3689 14.9002 12.9395 15.2296 13.0979 15.785C13.3934 16.8202 14.8605 16.8202 15.1559 15.785C15.3144 15.2296 15.8849 14.9002 16.4451 15.0407C17.4893 15.3024 18.2229 14.0319 17.4741 13.2584C17.0724 12.8435 17.0724 12.1847 17.4741 11.7698C18.2229 10.9963 17.4893 9.72576 16.4451 9.98752C15.8849 10.1279 15.3144 9.79853 15.1559 9.24321ZM15.3263 12.4554C15.3263 13.0884 14.8132 13.6015 14.1803 13.6015C13.5473 13.6015 13.0342 13.0884 13.0342 12.4554C13.0342 11.8224 13.5473 11.3093 14.1803 11.3093C14.8132 11.3093 15.3263 11.8224 15.3263 12.4554Z" fill="#7B8EA9"/>
</svg>
