<svg width="18" height="18" viewBox="0 0 18 18" fill="none" xmlns="http://www.w3.org/2000/svg">
<path fill-rule="evenodd" clip-rule="evenodd" d="M12.25 5.25C12.25 3.45507 10.7949 2 9 2C7.20507 2 5.75 3.45507 5.75 5.25L5.75 6.6499H5C4.44772 6.6499 4 7.09762 4 7.6499V13.1499C4 13.7022 4.44772 14.1499 5 14.1499H13C13.5523 14.1499 14 13.7022 14 13.1499V7.6499C14 7.09762 13.5523 6.6499 13 6.6499H7.25L7.25 5.25C7.25 4.2835 8.0335 3.5 9 3.5C9.9665 3.5 10.75 4.2835 10.75 5.25V5.65H12.25V5.25Z" fill="#7B8EA9"/>
</svg>
