<svg xmlns="http://www.w3.org/2000/svg" width="112" height="36" viewBox="0 0 112 36" fill="none">
    <path d="M18.2747 12.2925C18.0976 12.2925 17.9541 12.4399 17.9541 12.6217V17.2315C17.9541 17.4134 18.0976 17.5608 18.2747 17.5608H22.7633C22.9403 17.5608 23.0839 17.4134 23.0839 17.2315V12.6217C23.0839 12.4399 22.9403 12.2925 22.7633 12.2925H18.2747Z" fill="white"/>
    <path d="M42.2136 12.2925C42.0366 12.2925 41.893 12.4399 41.893 12.6217V17.2315C41.893 17.4134 42.0366 17.5608 42.2136 17.5608H46.7022C46.8793 17.5608 47.0228 17.4134 47.0228 17.2315V12.6217C47.0228 12.4399 46.8793 12.2925 46.7022 12.2925H42.2136Z" fill="white"/>
    <path d="M11.9692 0.329268C11.9692 0.147418 12.1128 0 12.2898 0H16.7784C16.9555 0 17.099 0.147418 17.099 0.329268V4.93902C17.099 5.12087 16.9555 5.26829 16.7784 5.26829H12.2898C12.1128 5.26829 11.9692 5.12087 11.9692 4.93902V0.329268Z" fill="#0085FF"/>
    <path d="M17.954 0.329268C17.954 0.147418 18.0975 0 18.2746 0H22.7631C22.9402 0 23.0837 0.147418 23.0837 0.329268V4.93902C23.0837 5.12087 22.9402 5.26829 22.7631 5.26829H18.2746C18.0975 5.26829 17.954 5.12087 17.954 4.93902V0.329268Z" fill="#0085FF"/>
    <path d="M23.9387 0.329268C23.9387 0.147418 24.0822 0 24.2593 0H28.7479C28.9249 0 29.0685 0.147418 29.0685 0.329268V4.93902C29.0685 5.12087 28.9249 5.26829 28.7479 5.26829H24.2593C24.0822 5.26829 23.9387 5.12087 23.9387 4.93902V0.329268Z" fill="#0085FF"/>
    <path d="M29.9234 0.329268C29.9234 0.147418 30.067 0 30.244 0H34.7326C34.9097 0 35.0532 0.147418 35.0532 0.329268V4.93902C35.0532 5.12087 34.9097 5.26829 34.7326 5.26829H30.244C30.067 5.26829 29.9234 5.12087 29.9234 4.93902V0.329268Z" fill="#0085FF"/>
    <path d="M35.9082 0.329268C35.9082 0.147418 36.0517 0 36.2288 0H40.7173C40.8944 0 41.0379 0.147418 41.0379 0.329268V4.93902C41.0379 5.12087 40.8944 5.26829 40.7173 5.26829H36.2288C36.0517 5.26829 35.9082 5.12087 35.9082 4.93902V0.329268Z" fill="#0085FF"/>
    <path d="M11.9692 6.47561C11.9692 6.29376 12.1128 6.14634 12.2898 6.14634H16.7784C16.9555 6.14634 17.099 6.29376 17.099 6.47561V11.0854C17.099 11.2672 16.9555 11.4146 16.7784 11.4146H12.2898C12.1128 11.4146 11.9692 11.2672 11.9692 11.0854V6.47561Z" fill="#0085FF"/>
    <path d="M41.8929 6.47561C41.8929 6.29376 42.0364 6.14634 42.2135 6.14634H46.7021C46.8791 6.14634 47.0227 6.29376 47.0227 6.47561V11.0854C47.0227 11.2672 46.8791 11.4146 46.7021 11.4146H42.2135C42.0364 11.4146 41.8929 11.2672 41.8929 11.0854V6.47561Z" fill="#0085FF"/>
    <path d="M17.954 6.47561C17.954 6.29376 18.0975 6.14634 18.2746 6.14634H22.7631C22.9402 6.14634 23.0837 6.29376 23.0837 6.47561V11.0854C23.0837 11.2672 22.9402 11.4146 22.7631 11.4146H18.2746C18.0975 11.4146 17.954 11.2672 17.954 11.0854V6.47561Z" fill="#0085FF"/>
    <path d="M23.9387 6.47561C23.9387 6.29376 24.0822 6.14634 24.2593 6.14634H28.7479C28.9249 6.14634 29.0685 6.29376 29.0685 6.47561V11.0854C29.0685 11.2672 28.9249 11.4146 28.7479 11.4146H24.2593C24.0822 11.4146 23.9387 11.2672 23.9387 11.0854V6.47561Z" fill="#0085FF"/>
    <path d="M29.9234 6.47561C29.9234 6.29376 30.067 6.14634 30.244 6.14634H34.7326C34.9097 6.14634 35.0532 6.29376 35.0532 6.47561V11.0854C35.0532 11.2672 34.9097 11.4146 34.7326 11.4146H30.244C30.067 11.4146 29.9234 11.2672 29.9234 11.0854V6.47561Z" fill="#0085FF"/>
    <path d="M35.9082 6.47561C35.9082 6.29376 36.0517 6.14634 36.2288 6.14634H40.7173C40.8944 6.14634 41.0379 6.29376 41.0379 6.47561V11.0854C41.0379 11.2672 40.8944 11.4146 40.7173 11.4146H36.2288C36.0517 11.4146 35.9082 11.2672 35.9082 11.0854V6.47561Z" fill="#0085FF"/>
    <path d="M47.8776 12.622C47.8776 12.4401 48.0212 12.2927 48.1982 12.2927H52.6868C52.8639 12.2927 53.0074 12.4401 53.0074 12.622V17.2317C53.0074 17.4136 52.8639 17.561 52.6868 17.561H48.1982C48.0212 17.561 47.8776 17.4136 47.8776 17.2317V12.622Z" fill="#0085FF"/>
    <path d="M23.9387 12.622C23.9387 12.4401 24.0822 12.2927 24.2593 12.2927H28.7479C28.9249 12.2927 29.0685 12.4401 29.0685 12.622V17.2317C29.0685 17.4136 28.9249 17.561 28.7479 17.561H24.2593C24.0822 17.561 23.9387 17.4136 23.9387 17.2317V12.622Z" fill="#0085FF"/>
    <path d="M29.9234 12.622C29.9234 12.4401 30.067 12.2927 30.244 12.2927H34.7326C34.9097 12.2927 35.0532 12.4401 35.0532 12.622V17.2317C35.0532 17.4136 34.9097 17.561 34.7326 17.561H30.244C30.067 17.561 29.9234 17.4136 29.9234 17.2317V12.622Z" fill="#0085FF"/>
    <path d="M47.8776 18.7683C47.8776 18.5864 48.0212 18.439 48.1982 18.439H52.6868C52.8639 18.439 53.0074 18.5864 53.0074 18.7683V23.378C53.0074 23.5599 52.8639 23.7073 52.6868 23.7073H48.1982C48.0212 23.7073 47.8776 23.5599 47.8776 23.378V18.7683Z" fill="#0085FF"/>
    <path d="M23.9387 18.7683C23.9387 18.5864 24.0822 18.439 24.2593 18.439H28.7479C28.9249 18.439 29.0685 18.5864 29.0685 18.7683V23.378C29.0685 23.5599 28.9249 23.7073 28.7479 23.7073H24.2593C24.0822 23.7073 23.9387 23.5599 23.9387 23.378V18.7683Z" fill="#0085FF"/>
    <path d="M29.9234 18.7683C29.9234 18.5864 30.067 18.439 30.244 18.439H34.7326C34.9097 18.439 35.0532 18.5864 35.0532 18.7683V23.378C35.0532 23.5599 34.9097 23.7073 34.7326 23.7073H30.244C30.067 23.7073 29.9234 23.5599 29.9234 23.378V18.7683Z" fill="#0085FF"/>
    <path d="M47.8776 24.9146C47.8776 24.7328 48.0212 24.5854 48.1982 24.5854H52.6868C52.8639 24.5854 53.0074 24.7328 53.0074 24.9146V29.5244C53.0074 29.7062 52.8639 29.8537 52.6868 29.8537H48.1982C48.0212 29.8537 47.8776 29.7062 47.8776 29.5244V24.9146Z" fill="#0085FF"/>
    <path d="M41.8929 31.061C41.8929 30.8791 42.0364 30.7317 42.2135 30.7317H46.7021C46.8791 30.7317 47.0227 30.8791 47.0227 31.061V35.6707C47.0227 35.8526 46.8791 36 46.7021 36H42.2135C42.0364 36 41.8929 35.8526 41.8929 35.6707V31.061Z" fill="#0085FF"/>
    <path d="M42.2135 24.5854C42.0364 24.5854 41.8929 24.7328 41.8929 24.9146V29.5244C41.8929 29.7062 42.0364 29.8537 42.2135 29.8537H46.7021C46.8791 29.8537 47.0227 29.7062 47.0227 29.5244V24.9146C47.0227 24.7328 46.8791 24.5854 46.7021 24.5854H42.2135Z" fill="#0085FF"/>
    <path d="M0 12.6217C0 12.4399 0.143542 12.2925 0.320611 12.2925H4.80916C4.98623 12.2925 5.12977 12.4399 5.12977 12.6217V17.2315C5.12977 17.4134 4.98623 17.5608 4.80916 17.5608H0.320611C0.143542 17.5608 0 17.4134 0 17.2315V12.6217Z" fill="#0055A4"/>
    <path d="M5.98473 12.6217C5.98473 12.4399 6.12827 12.2925 6.30534 12.2925H10.7939C10.971 12.2925 11.1145 12.4399 11.1145 12.6217V17.2315C11.1145 17.4134 10.971 17.5608 10.7939 17.5608H6.30534C6.12827 17.5608 5.98473 17.4134 5.98473 17.2315V12.6217Z" fill="#0055A4"/>
    <path d="M0.320611 18.4388C0.143542 18.4388 0 18.5862 0 18.7681V23.3778C0 23.5597 0.143542 23.7071 0.320611 23.7071H4.80916C4.98623 23.7071 5.12977 23.5597 5.12977 23.3778V18.7681C5.12977 18.5862 4.98623 18.4388 4.80916 18.4388H0.320611Z" fill="#0055A4"/>
    <path d="M0 24.9144C0 24.7326 0.143542 24.5852 0.320611 24.5852H4.80916C4.98623 24.5852 5.12977 24.7326 5.12977 24.9144V29.5242C5.12977 29.706 4.98623 29.8535 4.80916 29.8535H0.320611C0.143542 29.8535 0 29.706 0 29.5242V24.9144Z" fill="#0055A4"/>
    <path d="M18.2748 24.5852C18.0977 24.5852 17.9542 24.7326 17.9542 24.9144V29.5242C17.9542 29.706 18.0977 29.8535 18.2748 29.8535H22.7634C22.9404 29.8535 23.084 29.706 23.084 29.5242V24.9144C23.084 24.7326 22.9404 24.5852 22.7634 24.5852H18.2748Z" fill="#0055A4"/>
    <path d="M5.98473 31.0608C5.98473 30.8789 6.12827 30.7315 6.30534 30.7315H10.7939C10.971 30.7315 11.1145 30.8789 11.1145 31.0608V35.6705C11.1145 35.8524 10.971 35.9998 10.7939 35.9998H6.30534C6.12827 35.9998 5.98473 35.8524 5.98473 35.6705V31.0608Z" fill="#0055A4"/>
    <path d="M18.2748 30.7315C18.0977 30.7315 17.9542 30.8789 17.9542 31.0608V35.6705C17.9542 35.8524 18.0977 35.9998 18.2748 35.9998H22.7634C22.9404 35.9998 23.084 35.8524 23.084 35.6705V31.0608C23.084 30.8789 22.9404 30.7315 22.7634 30.7315H18.2748Z" fill="#0055A4"/>
    <path d="M6.30547 6.14648C6.12841 6.14648 5.98486 6.2939 5.98486 6.47575V11.0855C5.98486 11.2674 6.12841 11.4148 6.30547 11.4148H10.794C10.9711 11.4148 11.1146 11.2674 11.1146 11.0855V6.47575C11.1146 6.2939 10.9711 6.14648 10.794 6.14648H6.30547Z" fill="#006ACB"/>
    <path d="M6.30547 18.4392C6.12841 18.4392 5.98486 18.5866 5.98486 18.7684V23.3782C5.98486 23.56 6.12841 23.7075 6.30547 23.7075H10.794C10.9711 23.7075 11.1146 23.56 11.1146 23.3782V18.7684C11.1146 18.5866 10.9711 18.4392 10.794 18.4392H6.30547Z" fill="#006ACB"/>
    <path d="M11.9696 24.9148C11.9696 24.7329 12.1131 24.5855 12.2902 24.5855H16.7788C16.9558 24.5855 17.0994 24.7329 17.0994 24.9148V29.5245C17.0994 29.7064 16.9558 29.8538 16.7788 29.8538H12.2902C12.1131 29.8538 11.9696 29.7064 11.9696 29.5245V24.9148Z" fill="#006ACB"/>
    <path d="M6.30547 24.5855C6.12841 24.5855 5.98486 24.7329 5.98486 24.9148V29.5245C5.98486 29.7064 6.12841 29.8538 6.30547 29.8538H10.794C10.9711 29.8538 11.1146 29.7064 11.1146 29.5245V24.9148C11.1146 24.7329 10.9711 24.5855 10.794 24.5855H6.30547Z" fill="#006ACB"/>
    <path d="M23.9391 24.9148C23.9391 24.7329 24.0826 24.5855 24.2597 24.5855H28.7482C28.9253 24.5855 29.0688 24.7329 29.0688 24.9148V29.5245C29.0688 29.7064 28.9253 29.8538 28.7482 29.8538H24.2597C24.0826 29.8538 23.9391 29.7064 23.9391 29.5245V24.9148Z" fill="#006ACB"/>
    <path d="M30.2444 24.5855C30.0673 24.5855 29.9238 24.7329 29.9238 24.9148V29.5245C29.9238 29.7064 30.0673 29.8538 30.2444 29.8538H34.733C34.91 29.8538 35.0536 29.7064 35.0536 29.5245V24.9148C35.0536 24.7329 34.91 24.5855 34.733 24.5855H30.2444Z" fill="#006ACB"/>
    <path d="M35.9085 24.9148C35.9085 24.7329 36.0521 24.5855 36.2291 24.5855H40.7177C40.8948 24.5855 41.0383 24.7329 41.0383 24.9148V29.5245C41.0383 29.7064 40.8948 29.8538 40.7177 29.8538H36.2291C36.0521 29.8538 35.9085 29.7064 35.9085 29.5245V24.9148Z" fill="#006ACB"/>
    <path d="M30.2444 30.7318C30.0673 30.7318 29.9238 30.8793 29.9238 31.0611V35.6709C29.9238 35.8527 30.0673 36.0001 30.2444 36.0001H34.733C34.91 36.0001 35.0536 35.8527 35.0536 35.6709V31.0611C35.0536 30.8793 34.91 30.7318 34.733 30.7318H30.2444Z" fill="#006ACB"/>
    <path d="M89.7759 10.8721C89.7759 10.6901 89.6322 10.5425 89.455 10.5425H84.962C84.7849 10.5425 84.6411 10.6901 84.6411 10.8721V15.4863C84.6411 15.6684 84.7849 15.8159 84.962 15.8159H89.455C89.6322 15.8159 89.7759 15.6684 89.7759 15.4863V10.8721Z" fill="#0085FF"/>
    <path d="M89.7759 4.71973C89.7759 4.53771 89.6322 4.39014 89.455 4.39014H84.962C84.7849 4.39014 84.6411 4.53771 84.6411 4.71973V9.334C84.6411 9.51602 84.7849 9.66359 84.962 9.66359H89.455C89.6322 9.66359 89.7759 9.51602 89.7759 9.334V4.71973Z" fill="#006ACB"/>
    <path d="M90.9528 15.8159C90.7755 15.8159 90.6318 15.6684 90.6318 15.4863L90.6318 10.8721C90.6318 10.69 90.7755 10.5425 90.9528 10.5425L95.4457 10.5425C95.6229 10.5425 95.7666 10.69 95.7666 10.8721V15.4863C95.7666 15.6684 95.6229 15.8159 95.4457 15.8159H90.9528Z" fill="#0055A4"/>
    <path d="M90.9528 15.8159C90.7755 15.8159 90.6318 15.6684 90.6318 15.4863L90.6318 10.8721C90.6318 10.69 90.7755 10.5425 90.9528 10.5425L95.4457 10.5425C95.6229 10.5425 95.7666 10.69 95.7666 10.8721V15.4863C95.7666 15.6684 95.6229 15.8159 95.4457 15.8159H90.9528Z" fill="#0055A4"/>
    <path d="M67.608 12.3481C67.4826 12.2195 67.2804 12.2212 67.1414 12.3343C66.6666 12.7205 66.0662 12.9511 65.4131 12.9511C63.8761 12.9511 62.6301 11.6735 62.6301 10.0975C62.6301 8.52143 63.8761 7.2438 65.4131 7.2438C66.0662 7.2438 66.6666 7.47446 67.1414 7.86064C67.2804 7.97366 67.4826 7.97538 67.608 7.84681L69.1218 6.29458C69.2472 6.16601 69.2479 5.95673 69.1153 5.83572C68.1317 4.93656 66.8347 4.39014 65.4131 4.39014C62.3391 4.39014 59.8472 6.9454 59.8472 10.0975C59.8472 13.2495 62.3391 15.8048 65.4131 15.8048C66.8347 15.8048 68.1317 15.2584 69.1153 14.3592C69.149 14.3285 69.1741 14.2921 69.1906 14.2529C69.2063 14.216 69.2144 14.1765 69.2153 14.1368C69.2171 14.0519 69.1856 13.9657 69.1218 13.9003L67.608 12.3481Z" fill="white"/>
    <path d="M76.5276 12.9511C77.5576 12.9511 78.457 12.3773 78.9383 11.5243H76.8487C76.6715 11.5243 76.5276 11.3769 76.5276 11.195V8.99989C76.5276 8.81806 76.6715 8.67063 76.8487 8.67063H81.7725C81.9497 8.67063 82.0936 8.81806 82.0936 8.99989V10.0975C82.0936 13.2495 79.6016 15.8048 76.5276 15.8048C73.4536 15.8048 70.9617 13.2495 70.9617 10.0975C70.9617 6.9454 73.4536 4.39014 76.5276 4.39014C77.9492 4.39014 79.2462 4.93656 80.2298 5.83572C80.3624 5.95673 80.3617 6.16601 80.2363 6.29458L78.7225 7.84681C78.5971 7.97538 78.3949 7.97366 78.2559 7.86064C77.7811 7.47446 77.1807 7.2438 76.5276 7.2438C74.9906 7.2438 73.7446 8.52143 73.7446 10.0975C73.7446 11.6735 74.9906 12.9511 76.5276 12.9511Z" fill="white"/>
    <path d="M63.0533 18.7682C63.0533 18.5864 62.9097 18.439 62.7327 18.439H60.1678C59.9908 18.439 59.8472 18.5864 59.8472 18.7682V29.5243C59.8472 29.6229 59.8893 29.7114 59.9561 29.7717C60.0127 29.8227 60.0868 29.8536 60.1678 29.8536H62.7327C62.778 29.8536 62.8212 29.844 62.8602 29.8265C62.9042 29.8069 62.9433 29.7774 62.9744 29.7407C63.0234 29.6828 63.0533 29.6071 63.0533 29.5243V18.7682Z" fill="white"/>
    <path d="M65.6182 18.7682C65.6182 18.5864 65.7618 18.439 65.9388 18.439H73.6334C73.8104 18.439 73.954 18.5864 73.954 18.7682V20.9634C73.954 21.1452 73.8104 21.2926 73.6334 21.2926H71.1754V29.5243C71.1754 29.7062 71.0318 29.8536 70.8548 29.8536H68.7174C68.6329 29.8536 68.556 29.82 68.4989 29.7651L68.4797 29.7453C68.4726 29.7373 68.4659 29.7289 68.4596 29.7203C68.4427 29.6966 68.4285 29.6706 68.4181 29.6427C68.4043 29.606 68.3968 29.5661 68.3968 29.5243V21.2926H65.9388C65.8521 21.2926 65.7735 21.2573 65.7156 21.1999C65.6555 21.14 65.6182 21.0562 65.6182 20.9634V18.7682Z" fill="white"/>
    <path d="M76.5189 18.7682C76.5189 18.5864 76.6625 18.439 76.8395 18.439H84.5342C84.7112 18.439 84.8548 18.5864 84.8548 18.7682V20.9634C84.8548 21.1452 84.7112 21.2926 84.5342 21.2926H79.2975V22.7195H83.4655C83.6425 22.7195 83.7861 22.8669 83.7861 23.0487V25.2438C83.7861 25.4257 83.6425 25.5731 83.4655 25.5731H79.2975V26.9999H84.5342C84.7112 26.9999 84.8548 27.1474 84.8548 27.3292V29.5243C84.8548 29.5467 84.8527 29.5685 84.8485 29.5897L84.8425 29.6148L84.8364 29.6343C84.8143 29.6985 84.7734 29.7535 84.7204 29.7924C84.668 29.8309 84.6037 29.8536 84.5342 29.8536H76.8395C76.6625 29.8536 76.5189 29.7062 76.5189 29.5243V18.7682Z" fill="white"/>
    <path d="M109.903 18.4756C109.935 18.493 109.965 18.5161 109.99 18.5437C110.043 18.6025 110.076 18.6814 110.076 18.7682V20.9634C110.076 21.0599 110.036 21.1468 109.971 21.207C109.949 21.2275 109.925 21.2448 109.898 21.2585C109.855 21.2804 109.807 21.2926 109.756 21.2926H104.091V22.7195H109.756C109.933 22.7195 110.076 22.8669 110.076 23.0487V29.5243C110.076 29.7062 109.933 29.8536 109.756 29.8536H101.42C101.345 29.8536 101.276 29.8275 101.222 29.7837C101.147 29.7234 101.099 29.6296 101.099 29.5243V27.3292C101.099 27.1474 101.243 26.9999 101.42 26.9999H107.084V25.5731H101.42C101.397 25.5731 101.375 25.5708 101.354 25.5663C101.34 25.5631 101.325 25.559 101.312 25.5539C101.299 25.5492 101.287 25.5437 101.275 25.5376C101.256 25.5279 101.239 25.5164 101.222 25.5034C101.186 25.4745 101.156 25.4379 101.135 25.396C101.112 25.3505 101.099 25.2987 101.099 25.2438V18.7682C101.099 18.5864 101.243 18.439 101.42 18.439H109.756C109.809 18.439 109.858 18.4522 109.903 18.4756Z" fill="white"/>
    <path d="M87.7403 18.439C87.5633 18.439 87.4197 18.5864 87.4197 18.7682V29.5243C87.4197 29.7062 87.5633 29.8536 87.7403 29.8536H89.8777C89.948 29.8536 90.0132 29.8303 90.066 29.7909C90.101 29.7648 90.1307 29.7316 90.153 29.6933C90.1818 29.6439 90.1983 29.5861 90.1983 29.5243V22.4999L92.7503 25.1208C92.8755 25.2494 93.0784 25.2494 93.2036 25.1208L95.7556 22.4999V29.5243C95.7556 29.6292 95.8034 29.7225 95.8777 29.7828C95.9324 29.8271 96.0012 29.8536 96.0762 29.8536H98.2136C98.3906 29.8536 98.5342 29.7062 98.5342 29.5243V18.7682C98.5342 18.5864 98.3906 18.439 98.2136 18.439H95.8883C95.8034 18.439 95.7217 18.4736 95.6616 18.5354L92.9769 21.2926L90.2922 18.5354C90.2822 18.5251 90.2716 18.5157 90.2605 18.5069C90.2442 18.4942 90.2271 18.4832 90.209 18.4739C90.1649 18.4511 90.1159 18.439 90.0656 18.439H87.7403Z" fill="white"/>
</svg>