<svg width="429" height="426" viewBox="0 0 429 426" fill="none" xmlns="http://www.w3.org/2000/svg">
<g opacity="0.7" filter="url(#filter0_f_2108_93036)">
<path fill-rule="evenodd" clip-rule="evenodd" d="M259.285 339.904L344.38 339.904L344.38 254.809L259.285 254.809L259.285 339.904Z" fill="#0D59BD" fill-opacity="0.35"/>
<path fill-rule="evenodd" clip-rule="evenodd" d="M344.379 254.809L429.474 254.809L429.474 169.713L344.379 169.713L344.379 254.809Z" fill="#0D59BD" fill-opacity="0.35"/>
<path fill-rule="evenodd" clip-rule="evenodd" d="M174.191 84.6172L259.286 84.6172L259.287 -0.478005L174.191 -0.47802L174.191 84.6172Z" fill="#0D59BD" fill-opacity="0.35"/>
<path fill-rule="evenodd" clip-rule="evenodd" d="M89.0938 84.6172L174.189 84.6172L174.189 -0.478005L89.0938 -0.47802L89.0938 84.6172Z" fill="#0D59BD" fill-opacity="0.35"/>
<path fill-rule="evenodd" clip-rule="evenodd" d="M344.379 169.713L429.474 169.713L429.474 84.6177L344.379 84.6177L344.379 169.713Z" fill="#0D59BD" fill-opacity="0.55"/>
<path fill-rule="evenodd" clip-rule="evenodd" d="M344.379 84.6172L429.474 84.6172L429.474 -0.478005L344.379 -0.47802L344.379 84.6172Z" fill="#0D59BD" fill-opacity="0.35"/>
<path fill-rule="evenodd" clip-rule="evenodd" d="M259.285 84.6172L344.38 84.6172L344.38 -0.478005L259.285 -0.47802L259.285 84.6172Z" fill="#0D59BD" fill-opacity="0.2"/>
<path fill-rule="evenodd" clip-rule="evenodd" d="M259.285 169.713L344.38 169.713L344.38 84.6177L259.285 84.6177L259.285 169.713Z" fill="#0D59BD" fill-opacity="0.2"/>
<path fill-rule="evenodd" clip-rule="evenodd" d="M174.191 169.713L259.286 169.713L259.287 84.6177L174.191 84.6177L174.191 169.713Z" fill="#0D59BD" fill-opacity="0.2"/>
<path fill-rule="evenodd" clip-rule="evenodd" d="M4 84.6172L89.0951 84.6172L89.0951 -0.478005L4.00001 -0.47802L4 84.6172Z" fill="#0D59BD" fill-opacity="0.2"/>
<path fill-rule="evenodd" clip-rule="evenodd" d="M259.285 254.809L344.38 254.809L344.38 169.713L259.285 169.713L259.285 254.809Z" fill="#0D59BD" fill-opacity="0.2"/>
<path fill-rule="evenodd" clip-rule="evenodd" d="M344.379 339.904L429.474 339.904L429.474 254.809L344.379 254.809L344.379 339.904Z" fill="#0D59BD" fill-opacity="0.2"/>
<path fill-rule="evenodd" clip-rule="evenodd" d="M344.383 425L429.478 425L429.478 339.905L344.383 339.905L344.383 425Z" fill="#0D59BD" fill-opacity="0.2"/>
</g>
<defs>
<filter id="filter0_f_2108_93036" x="0" y="-4.47852" width="433.477" height="433.479" filterUnits="userSpaceOnUse" color-interpolation-filters="sRGB">
<feFlood flood-opacity="0" result="BackgroundImageFix"/>
<feBlend mode="normal" in="SourceGraphic" in2="BackgroundImageFix" result="shape"/>
<feGaussianBlur stdDeviation="2" result="effect1_foregroundBlur_2108_93036"/>
</filter>
</defs>
</svg>
