<svg width="26" height="20" viewBox="0 0 26 20" fill="none" xmlns="http://www.w3.org/2000/svg">
<path d="M0.965251 9.07336C0.32175 10.8494 0 12.574 0 14.2471V20H8.76448V14.2471C8.76448 11.8533 9.0991 9.76834 9.76834 7.99228C10.4376 6.21622 11.2355 4.55598 12.1622 3.01158L6.98842 0C5.72716 1.10682 4.56885 2.45817 3.51351 4.05405C2.45817 5.6242 1.60875 7.2973 0.965251 9.07336Z" fill="white"/>
<path d="M14.0927 9.07336C13.4492 10.8494 13.1274 12.574 13.1274 14.2471V20H21.8919V14.2471C21.8919 11.8533 22.2265 9.76834 22.8958 7.99228C23.565 6.21622 24.3629 4.55598 25.2896 3.01158L20.1158 0C18.8546 1.10682 17.6963 2.45817 16.6409 4.05405C15.5856 5.6242 14.7362 7.2973 14.0927 9.07336Z" fill="white"/>
</svg>
