<svg width="92" height="14" viewBox="0 0 92 14" fill="none" xmlns="http://www.w3.org/2000/svg">
<path d="M5.16113 8.22754H1.83008V6.47852H5.16113C5.74121 6.47852 6.20996 6.38477 6.56738 6.19727C6.9248 6.00977 7.18555 5.75195 7.34961 5.42383C7.51953 5.08984 7.60449 4.70898 7.60449 4.28125C7.60449 3.87695 7.51953 3.49902 7.34961 3.14746C7.18555 2.79004 6.9248 2.50293 6.56738 2.28613C6.20996 2.06934 5.74121 1.96094 5.16113 1.96094H2.50684V13H0.300781V0.203125H5.16113C6.15137 0.203125 6.99219 0.378906 7.68359 0.730469C8.38086 1.07617 8.91113 1.55664 9.27441 2.17188C9.6377 2.78125 9.81934 3.47852 9.81934 4.26367C9.81934 5.08984 9.6377 5.79883 9.27441 6.39062C8.91113 6.98242 8.38086 7.43652 7.68359 7.75293C6.99219 8.06934 6.15137 8.22754 5.16113 8.22754ZM15.6553 13.1758C14.9521 13.1758 14.3164 13.0615 13.748 12.833C13.1855 12.5986 12.7051 12.2734 12.3066 11.8574C11.9141 11.4414 11.6123 10.9521 11.4014 10.3896C11.1904 9.82715 11.085 9.2207 11.085 8.57031V8.21875C11.085 7.47461 11.1934 6.80078 11.4102 6.19727C11.627 5.59375 11.9287 5.07812 12.3154 4.65039C12.7021 4.2168 13.1592 3.88574 13.6865 3.65723C14.2139 3.42871 14.7852 3.31445 15.4004 3.31445C16.0801 3.31445 16.6748 3.42871 17.1846 3.65723C17.6943 3.88574 18.1162 4.20801 18.4502 4.62402C18.79 5.03418 19.042 5.52344 19.2061 6.0918C19.376 6.66016 19.4609 7.28711 19.4609 7.97266V8.87793H12.1133V7.35742H17.3691V7.19043C17.3574 6.80957 17.2812 6.45215 17.1406 6.11816C17.0059 5.78418 16.7979 5.51465 16.5166 5.30957C16.2354 5.10449 15.8604 5.00195 15.3916 5.00195C15.04 5.00195 14.7266 5.07812 14.4512 5.23047C14.1816 5.37695 13.9561 5.59082 13.7744 5.87207C13.5928 6.15332 13.4521 6.49316 13.3525 6.8916C13.2588 7.28418 13.2119 7.72656 13.2119 8.21875V8.57031C13.2119 8.98633 13.2676 9.37305 13.3789 9.73047C13.4961 10.082 13.666 10.3896 13.8887 10.6533C14.1113 10.917 14.3809 11.125 14.6973 11.2773C15.0137 11.4238 15.374 11.4971 15.7783 11.4971C16.2881 11.4971 16.7422 11.3945 17.1406 11.1895C17.5391 10.9844 17.8848 10.6943 18.1777 10.3193L19.2939 11.4004C19.0889 11.6992 18.8223 11.9863 18.4941 12.2617C18.166 12.5312 17.7646 12.751 17.29 12.9209C16.8213 13.0908 16.2764 13.1758 15.6553 13.1758ZM23.3984 3.49023V13H21.2803V3.49023H23.3984ZM29.6035 3.49023L25.3232 9.21191H22.9062L22.625 7.2959H24.3916L26.958 3.49023H29.6035ZM27.125 13L24.2598 8.85156L25.9297 7.64746L29.9111 13H27.125ZM35.6855 8.93066H32.6445L32.627 7.43652H35.123C35.5332 7.43652 35.8701 7.39551 36.1338 7.31348C36.4033 7.23145 36.6025 7.1084 36.7314 6.94434C36.8604 6.77441 36.9248 6.56934 36.9248 6.3291C36.9248 6.12988 36.8867 5.95703 36.8105 5.81055C36.7344 5.6582 36.6172 5.53516 36.459 5.44141C36.3066 5.3418 36.1133 5.27148 35.8789 5.23047C35.6504 5.18359 35.3838 5.16016 35.0791 5.16016H33.3477V13H31.2295V3.49023H35.0791C35.6885 3.49023 36.2363 3.54297 36.7227 3.64844C37.2148 3.75391 37.6338 3.91504 37.9795 4.13184C38.3252 4.34863 38.5889 4.62402 38.7705 4.95801C38.958 5.28613 39.0518 5.67285 39.0518 6.11816C39.0518 6.41113 38.9873 6.68652 38.8584 6.94434C38.7354 7.20215 38.5508 7.43066 38.3047 7.62988C38.0586 7.8291 37.7568 7.99316 37.3994 8.12207C37.042 8.24512 36.6318 8.32129 36.1689 8.35059L35.6855 8.93066ZM35.6855 13H32.0293L32.873 11.3301H35.6855C36.0605 11.3301 36.3711 11.2832 36.6172 11.1895C36.8633 11.0957 37.0449 10.9609 37.1621 10.7852C37.2852 10.6035 37.3467 10.3896 37.3467 10.1436C37.3467 9.8916 37.2881 9.6748 37.1709 9.49316C37.0537 9.31152 36.8721 9.17383 36.626 9.08008C36.3857 8.98047 36.0723 8.93066 35.6855 8.93066H33.2686L33.2861 7.43652H36.1602L36.7666 8.0166C37.3701 8.05762 37.8711 8.18652 38.2695 8.40332C38.668 8.62012 38.9668 8.89258 39.166 9.2207C39.3652 9.54883 39.4648 9.90625 39.4648 10.293C39.4648 10.7383 39.3799 11.1309 39.21 11.4707C39.0459 11.8105 38.7998 12.0947 38.4717 12.3232C38.1494 12.5459 37.7539 12.7158 37.2852 12.833C36.8164 12.9443 36.2832 13 35.6855 13ZM43.4814 9.90625L47.2168 3.49023H49.335V13H47.2168V6.5752L43.4814 13H41.3633V3.49023H43.4814V9.90625ZM55.5137 8.45605H53.6855V7.38379H55.1621C55.5371 7.38379 55.8359 7.33398 56.0586 7.23438C56.2871 7.13477 56.4482 6.99707 56.542 6.82129C56.6416 6.63965 56.6914 6.42871 56.6914 6.18848C56.6914 5.97754 56.6416 5.77832 56.542 5.59082C56.4482 5.39746 56.2871 5.23926 56.0586 5.11621C55.8301 4.99316 55.5195 4.93164 55.127 4.93164C54.8047 4.93164 54.5146 4.98438 54.2568 5.08984C54.0049 5.19531 53.8057 5.3418 53.6592 5.5293C53.5127 5.7168 53.4395 5.93359 53.4395 6.17969H51.3213C51.3213 5.58789 51.4883 5.07812 51.8223 4.65039C52.1621 4.22266 52.6162 3.89453 53.1846 3.66602C53.7529 3.4375 54.377 3.32324 55.0566 3.32324C55.6367 3.32324 56.1582 3.38477 56.6211 3.50781C57.084 3.625 57.4766 3.80078 57.7988 4.03516C58.127 4.26367 58.376 4.55078 58.5459 4.89648C58.7217 5.23633 58.8096 5.63184 58.8096 6.08301C58.8096 6.40527 58.7334 6.70996 58.5811 6.99707C58.4287 7.28418 58.209 7.53906 57.9219 7.76172C57.6348 7.97852 57.2861 8.14844 56.876 8.27148C56.4717 8.39453 56.0176 8.45605 55.5137 8.45605ZM53.6855 7.84082H55.5137C56.0762 7.84082 56.5742 7.89648 57.0078 8.00781C57.4414 8.11328 57.8047 8.27148 58.0977 8.48242C58.3906 8.69336 58.6104 8.9541 58.7568 9.26465C58.9092 9.56934 58.9854 9.9209 58.9854 10.3193C58.9854 10.7646 58.8887 11.166 58.6953 11.5234C58.5078 11.875 58.2383 12.1738 57.8867 12.4199C57.541 12.666 57.1279 12.8535 56.6475 12.9824C56.167 13.1113 55.6367 13.1758 55.0566 13.1758C54.4238 13.1758 53.8086 13.0703 53.2109 12.8594C52.6191 12.6484 52.1299 12.3232 51.7432 11.8838C51.3623 11.4385 51.1719 10.873 51.1719 10.1875H53.29C53.29 10.4277 53.3633 10.6533 53.5098 10.8643C53.6562 11.0752 53.8672 11.248 54.1426 11.3828C54.418 11.5117 54.749 11.5762 55.1357 11.5762C55.5342 11.5762 55.8594 11.5146 56.1113 11.3916C56.3633 11.2627 56.5508 11.0957 56.6738 10.8906C56.7969 10.6797 56.8584 10.457 56.8584 10.2227C56.8584 9.90625 56.7969 9.65137 56.6738 9.45801C56.5508 9.26465 56.3633 9.12402 56.1113 9.03613C55.8594 8.94238 55.543 8.89551 55.1621 8.89551H53.6855V7.84082ZM62.9756 9.90625L66.7109 3.49023H68.8291V13H66.7109V6.5752L62.9756 13H60.8574V3.49023H62.9756V9.90625ZM75.4824 3.49023V13H73.3555V3.49023H75.4824ZM78.6025 3.49023V5.16016H70.2881V3.49023H78.6025ZM81.5908 6.51367H84.3945C85.2148 6.51367 85.9121 6.65137 86.4863 6.92676C87.0605 7.20215 87.4971 7.58594 87.7959 8.07812C88.1006 8.56445 88.2529 9.12109 88.2529 9.74805C88.2529 10.2109 88.168 10.6416 87.998 11.04C87.8281 11.4326 87.5762 11.7754 87.2422 12.0684C86.9141 12.3613 86.5098 12.5898 86.0293 12.7539C85.5547 12.918 85.0098 13 84.3945 13H80.1846V3.49023H82.3115V11.3213H84.3945C84.8164 11.3213 85.1533 11.248 85.4053 11.1016C85.6572 10.9551 85.8389 10.7646 85.9502 10.5303C86.0674 10.2959 86.126 10.0469 86.126 9.7832C86.126 9.51367 86.0674 9.25879 85.9502 9.01855C85.8389 8.77832 85.6572 8.58203 85.4053 8.42969C85.1533 8.27734 84.8164 8.20117 84.3945 8.20117H81.5908V6.51367ZM91.9971 3.49023V13H89.8789V3.49023H91.9971Z" fill="white"/>
</svg>
