<svg width="44" height="30" viewBox="0 0 44 30" fill="none" xmlns="http://www.w3.org/2000/svg">
<path fill-rule="evenodd" clip-rule="evenodd" d="M10.2016 0.5C10.0546 0.5 9.93548 0.618754 9.93548 0.765244V4.47866C9.93548 4.62515 10.0546 4.7439 10.2016 4.7439H13.9274C14.0744 4.7439 14.1935 4.62515 14.1935 4.47866V0.765244C14.1935 0.618754 14.0744 0.5 13.9274 0.5H10.2016ZM15.1694 0.5C15.0224 0.5 14.9032 0.618754 14.9032 0.765244V4.47866C14.9032 4.62515 15.0224 4.7439 15.1694 4.7439H18.8952C19.0421 4.7439 19.1613 4.62515 19.1613 4.47866V0.765244C19.1613 0.618754 19.0421 0.5 18.8952 0.5H15.1694ZM19.871 0.765244C19.871 0.618754 19.9901 0.5 20.1371 0.5H23.8629C24.0099 0.5 24.129 0.618754 24.129 0.765244V4.47866C24.129 4.62515 24.0099 4.7439 23.8629 4.7439H20.1371C19.9901 4.7439 19.871 4.62515 19.871 4.47866V0.765244ZM25.1048 0.5C24.9579 0.5 24.8387 0.618754 24.8387 0.765244V4.47866C24.8387 4.62515 24.9579 4.7439 25.1048 4.7439H28.8306C28.9776 4.7439 29.0968 4.62515 29.0968 4.47866V0.765244C29.0968 0.618754 28.9776 0.5 28.8306 0.5H25.1048ZM29.8065 0.765244C29.8065 0.618754 29.9256 0.5 30.0726 0.5H33.7984C33.9454 0.5 34.0645 0.618754 34.0645 0.765244V4.47866C34.0645 4.62515 33.9454 4.7439 33.7984 4.7439H30.0726C29.9256 4.7439 29.8065 4.62515 29.8065 4.47866V0.765244ZM10.2016 5.45122C10.0546 5.45122 9.93548 5.56997 9.93548 5.71646V9.42988C9.93548 9.57637 10.0546 9.69512 10.2016 9.69512H13.9274C14.0744 9.69512 14.1935 9.57637 14.1935 9.42988V5.71646C14.1935 5.56997 14.0744 5.45122 13.9274 5.45122H10.2016ZM34.7742 5.71646C34.7742 5.56997 34.8933 5.45122 35.0403 5.45122H38.7661C38.9131 5.45122 39.0323 5.56997 39.0323 5.71646V9.42988C39.0323 9.57637 38.9131 9.69512 38.7661 9.69512H35.0403C34.8933 9.69512 34.7742 9.57637 34.7742 9.42988V5.71646ZM15.1694 5.45122C15.0224 5.45122 14.9032 5.56997 14.9032 5.71646V9.42988C14.9032 9.57637 15.0224 9.69512 15.1694 9.69512H18.8952C19.0421 9.69512 19.1613 9.57637 19.1613 9.42988V5.71646C19.1613 5.56997 19.0421 5.45122 18.8952 5.45122H15.1694ZM19.871 5.71646C19.871 5.56997 19.9901 5.45122 20.1371 5.45122H23.8629C24.0099 5.45122 24.129 5.56997 24.129 5.71646V9.42988C24.129 9.57637 24.0099 9.69512 23.8629 9.69512H20.1371C19.9901 9.69512 19.871 9.57637 19.871 9.42988V5.71646ZM25.1048 5.45122C24.9579 5.45122 24.8387 5.56997 24.8387 5.71646V9.42988C24.8387 9.57637 24.9579 9.69512 25.1048 9.69512H28.8306C28.9776 9.69512 29.0968 9.57637 29.0968 9.42988V5.71646C29.0968 5.56997 28.9776 5.45122 28.8306 5.45122H25.1048ZM29.8065 5.71646C29.8065 5.56997 29.9256 5.45122 30.0726 5.45122H33.7984C33.9454 5.45122 34.0645 5.56997 34.0645 5.71646V9.42988C34.0645 9.57637 33.9454 9.69512 33.7984 9.69512H30.0726C29.9256 9.69512 29.8065 9.57637 29.8065 9.42988V5.71646ZM40.0081 10.4024C39.8611 10.4024 39.7419 10.5212 39.7419 10.6677V14.3811C39.7419 14.5276 39.8611 14.6463 40.0081 14.6463H43.7339C43.8809 14.6463 44 14.5276 44 14.3811V10.6677C44 10.5212 43.8809 10.4024 43.7339 10.4024H40.0081ZM19.871 10.6677C19.871 10.5212 19.9901 10.4024 20.1371 10.4024H23.8629C24.0099 10.4024 24.129 10.5212 24.129 10.6677V14.3811C24.129 14.5276 24.0099 14.6463 23.8629 14.6463H20.1371C19.9901 14.6463 19.871 14.5276 19.871 14.3811V10.6677ZM25.1048 10.4024C24.9579 10.4024 24.8387 10.5212 24.8387 10.6677V14.3811C24.8387 14.5276 24.9579 14.6463 25.1048 14.6463H28.8306C28.9776 14.6463 29.0968 14.5276 29.0968 14.3811V10.6677C29.0968 10.5212 28.9776 10.4024 28.8306 10.4024H25.1048ZM39.7419 15.6189C39.7419 15.4724 39.8611 15.3537 40.0081 15.3537H43.7339C43.8809 15.3537 44 15.4724 44 15.6189V19.3323C44 19.4788 43.8809 19.5976 43.7339 19.5976H40.0081C39.8611 19.5976 39.7419 19.4788 39.7419 19.3323V15.6189ZM20.1371 15.3537C19.9901 15.3537 19.871 15.4724 19.871 15.6189V19.3323C19.871 19.4788 19.9901 19.5976 20.1371 19.5976H23.8629C24.0099 19.5976 24.129 19.4788 24.129 19.3323V15.6189C24.129 15.4724 24.0099 15.3537 23.8629 15.3537H20.1371ZM24.8387 15.6189C24.8387 15.4724 24.9579 15.3537 25.1048 15.3537H28.8306C28.9776 15.3537 29.0968 15.4724 29.0968 15.6189V19.3323C29.0968 19.4788 28.9776 19.5976 28.8306 19.5976H25.1048C24.9579 19.5976 24.8387 19.4788 24.8387 19.3323V15.6189ZM40.0081 20.3049C39.8611 20.3049 39.7419 20.4236 39.7419 20.5701V24.2835C39.7419 24.43 39.8611 24.5488 40.0081 24.5488H43.7339C43.8809 24.5488 44 24.43 44 24.2835V20.5701C44 20.4236 43.8809 20.3049 43.7339 20.3049H40.0081ZM34.7742 25.5213C34.7742 25.3748 34.8933 25.2561 35.0403 25.2561H38.7661C38.9131 25.2561 39.0323 25.3748 39.0323 25.5213V29.2348C39.0323 29.3812 38.9131 29.5 38.7661 29.5H35.0403C34.8933 29.5 34.7742 29.3812 34.7742 29.2348V25.5213ZM34.7742 20.5701C34.7742 20.4236 34.8933 20.3049 35.0403 20.3049H38.7661C38.9131 20.3049 39.0323 20.4236 39.0323 20.5701V24.2835C39.0323 24.43 38.9131 24.5488 38.7661 24.5488H35.0403C34.8933 24.5488 34.7742 24.43 34.7742 24.2835V20.5701ZM14.9032 10.6677C14.9032 10.5212 15.0224 10.4024 15.1694 10.4024H18.8952C19.0421 10.4024 19.1613 10.5212 19.1613 10.6677V14.3811C19.1613 14.5276 19.0421 14.6463 18.8952 14.6463H15.1694C15.0224 14.6463 14.9032 14.5276 14.9032 14.3811V10.6677ZM34.7742 10.6677C34.7742 10.5212 34.8933 10.4024 35.0403 10.4024H38.7661C38.9131 10.4024 39.0323 10.5212 39.0323 10.6677V14.3811C39.0323 14.5276 38.9131 14.6463 38.7661 14.6463H35.0403C34.8933 14.6463 34.7742 14.5276 34.7742 14.3811V10.6677ZM0.266129 10.4024C0.11915 10.4024 0 10.5212 0 10.6677V14.3811C0 14.5276 0.11915 14.6463 0.266129 14.6463H3.99194C4.13891 14.6463 4.25806 14.5276 4.25806 14.3811V10.6677C4.25806 10.5212 4.13891 10.4024 3.99194 10.4024H0.266129ZM5.23387 10.4024C5.08689 10.4024 4.96774 10.5212 4.96774 10.6677V14.3811C4.96774 14.5276 5.08689 14.6463 5.23387 14.6463H8.95968C9.10666 14.6463 9.22581 14.5276 9.22581 14.3811V10.6677C9.22581 10.5212 9.10666 10.4024 8.95968 10.4024H5.23387ZM0.266129 15.3537C0.11915 15.3537 0 15.4724 0 15.6189V19.3323C0 19.4788 0.11915 19.5976 0.266129 19.5976H3.99194C4.13891 19.5976 4.25806 19.4788 4.25806 19.3323V15.6189C4.25806 15.4724 4.13891 15.3537 3.99194 15.3537H0.266129ZM0.266129 20.3049C0.11915 20.3049 0 20.4236 0 20.5701V24.2835C0 24.43 0.11915 24.5488 0.266129 24.5488H3.99194C4.13891 24.5488 4.25806 24.43 4.25806 24.2835V20.5701C4.25806 20.4236 4.13891 20.3049 3.99194 20.3049H0.266129ZM15.1694 20.3049C15.0224 20.3049 14.9032 20.4236 14.9032 20.5701V24.2835C14.9032 24.43 15.0224 24.5488 15.1694 24.5488H18.8952C19.0421 24.5488 19.1613 24.43 19.1613 24.2835V20.5701C19.1613 20.4236 19.0421 20.3049 18.8952 20.3049H15.1694ZM5.23387 25.2561C5.08689 25.2561 4.96774 25.3749 4.96774 25.5213V29.2348C4.96774 29.3812 5.08689 29.5 5.23387 29.5H8.95968C9.10666 29.5 9.22581 29.3812 9.22581 29.2348V25.5213C9.22581 25.3749 9.10666 25.2561 8.95968 25.2561H5.23387ZM15.1694 25.2561C15.0224 25.2561 14.9032 25.3749 14.9032 25.5213V29.2348C14.9032 29.3812 15.0224 29.5 15.1694 29.5H18.8952C19.0421 29.5 19.1613 29.3812 19.1613 29.2348V25.5213C19.1613 25.3749 19.0421 25.2561 18.8952 25.2561H15.1694ZM4.96774 5.71646C4.96774 5.56997 5.08689 5.45122 5.23387 5.45122H8.95968C9.10666 5.45122 9.22581 5.56997 9.22581 5.71646V9.42988C9.22581 9.57637 9.10666 9.69512 8.95968 9.69512H5.23387C5.08689 9.69512 4.96774 9.57637 4.96774 9.42988V5.71646ZM4.96774 15.6189C4.96774 15.4724 5.08689 15.3537 5.23387 15.3537H8.95968C9.10666 15.3537 9.22581 15.4724 9.22581 15.6189V19.3323C9.22581 19.4788 9.10666 19.5976 8.95968 19.5976H5.23387C5.08689 19.5976 4.96774 19.4788 4.96774 19.3323V15.6189ZM9.93548 20.5701C9.93548 20.4236 10.0546 20.3049 10.2016 20.3049H13.9274C14.0744 20.3049 14.1935 20.4236 14.1935 20.5701V24.2835C14.1935 24.43 14.0744 24.5488 13.9274 24.5488H10.2016C10.0546 24.5488 9.93548 24.43 9.93548 24.2835V20.5701ZM4.96774 20.5701C4.96774 20.4236 5.08689 20.3049 5.23387 20.3049H8.95968C9.10666 20.3049 9.22581 20.4236 9.22581 20.5701V24.2835C9.22581 24.43 9.10666 24.5488 8.95968 24.5488H5.23387C5.08689 24.5488 4.96774 24.43 4.96774 24.2835V20.5701ZM19.871 20.5701C19.871 20.4236 19.9901 20.3049 20.1371 20.3049H23.8629C24.0099 20.3049 24.129 20.4236 24.129 20.5701V24.2835C24.129 24.43 24.0099 24.5488 23.8629 24.5488H20.1371C19.9901 24.5488 19.871 24.43 19.871 24.2835V20.5701ZM24.8387 20.5701C24.8387 20.4236 24.9579 20.3049 25.1048 20.3049H28.8306C28.9776 20.3049 29.0968 20.4236 29.0968 20.5701V24.2835C29.0968 24.43 28.9776 24.5488 28.8306 24.5488H25.1048C24.9579 24.5488 24.8387 24.43 24.8387 24.2835V20.5701ZM29.8064 20.5701C29.8064 20.4236 29.9256 20.3049 30.0726 20.3049H33.7984C33.9454 20.3049 34.0645 20.4236 34.0645 20.5701V24.2835C34.0645 24.43 33.9454 24.5488 33.7984 24.5488H30.0726C29.9256 24.5488 29.8064 24.43 29.8064 24.2835V20.5701ZM24.8387 25.5213C24.8387 25.3749 24.9579 25.2561 25.1048 25.2561H28.8306C28.9776 25.2561 29.0968 25.3749 29.0968 25.5213V29.2348C29.0968 29.3812 28.9776 29.5 28.8306 29.5H25.1048C24.9579 29.5 24.8387 29.3812 24.8387 29.2348V25.5213Z" fill="white"/>
</svg>
