<svg width="44" height="43" viewBox="0 0 44 43" fill="none" xmlns="http://www.w3.org/2000/svg">
<g filter="url(#filter0_d_2969_6871)">
<path fill-rule="evenodd" clip-rule="evenodd" d="M12.284 1C7.70888 1 4 4.70888 4 9.28401V28.716C4 33.2911 7.70888 37 12.284 37H31.716C36.2911 37 40 33.2911 40 28.716V9.28401C40 4.70888 36.2911 1 31.716 1H12.284ZM11.0292 22.9635C11.1069 22.9356 11.1741 22.9115 11.2582 22.8217C11.2732 22.6134 11.0538 22.1325 10.8815 21.7551C10.8155 21.6105 10.7565 21.481 10.7201 21.3879C10.4994 20.8253 10.2097 19.5697 10.2372 18.9522C10.256 18.5733 10.2352 18.4418 10.185 18.1249C10.1797 18.0918 10.1742 18.0567 10.1683 18.0191C10.1382 17.8052 10.1698 17.6366 10.2028 17.4602C10.2228 17.3537 10.2433 17.2444 10.2511 17.1204C10.2626 16.9803 10.2621 16.8652 10.2616 16.7508C10.2609 16.5907 10.2603 16.4319 10.2924 16.2079C10.6098 13.9369 11.1479 12.4755 12.5344 10.6436C13.0587 9.95065 13.8934 9.27144 14.604 8.77745C15.6594 8.05706 17.0115 7.76215 18.2394 7.51515C18.3709 7.49227 18.5117 7.48027 18.6553 7.46804C18.813 7.4546 18.974 7.44088 19.1293 7.41214C19.3372 7.37695 19.5507 7.38688 19.7626 7.39673C19.8812 7.40224 19.9994 7.40774 20.1158 7.40527C20.2615 7.4001 20.3503 7.38027 20.4288 7.36274C20.5584 7.3338 20.66 7.31111 20.9436 7.37093C21.1865 7.41925 21.4505 7.40877 21.7059 7.39864C21.7769 7.39582 21.8472 7.39303 21.9163 7.39154C22.4414 7.39154 23.1772 7.53124 23.8126 7.65186C24.0452 7.69604 24.2644 7.73766 24.4549 7.76892C25.3793 7.92672 26.5727 8.35218 27.4557 8.70894C28.3117 9.05951 28.9897 9.50709 29.7359 9.99972C29.8076 10.047 29.8798 10.0947 29.9529 10.1428C30.7324 10.6573 31.3809 11.3434 31.9879 12.0501C32.4432 12.5853 32.8227 13.2028 33.1676 13.8065C33.2482 13.9401 33.3055 14.0852 33.3622 14.2288C33.3929 14.3064 33.4234 14.3836 33.4573 14.4583C34.2517 16.1099 33.6144 19.3937 33.2795 21.119C33.1637 21.7159 33.084 22.1263 33.1124 22.218C33.1571 22.37 33.2804 22.3918 33.4202 22.4165C33.5391 22.4376 33.67 22.4607 33.7746 22.5679C34.2023 22.9864 34.2368 23.5284 34.0436 24.0773C33.8505 24.6193 33.6643 24.9212 33.0779 25.0721C32.8434 25.127 32.4432 25.1956 32.2018 25.2093C31.9711 25.2242 31.8388 25.1559 31.6778 25.0726C31.6173 25.0413 31.5528 25.008 31.4775 24.9761C31.4542 25.0266 31.4439 25.0564 31.4366 25.0775C31.4202 25.1251 31.4192 25.1278 31.3188 25.223L30.5186 26.019C30.4265 26.1189 30.3293 26.1708 30.2301 26.2238C30.1658 26.2581 30.1008 26.2929 30.0357 26.3414C29.9145 26.4329 29.7787 26.5085 29.6423 26.5844C29.3595 26.7417 29.0741 26.9004 28.9112 27.2059C28.8631 27.2977 28.7799 27.3685 28.6943 27.4415C28.6328 27.4939 28.57 27.5474 28.518 27.6106C28.4881 27.6463 28.4616 27.6901 28.4341 27.7356C28.3665 27.8474 28.2926 27.9696 28.1455 28.0086L28.1317 27.6449C28.063 27.6542 28.0593 27.6636 28.0554 27.6735C28.0507 27.6856 28.0456 27.6986 27.9248 27.7136C27.8771 27.7189 27.8488 27.7161 27.8249 27.7137C27.7866 27.7099 27.7599 27.7072 27.6833 27.7411C27.5987 27.7765 27.6521 27.7719 27.6523 27.7733C27.6524 27.7742 27.6365 27.7768 27.5729 27.789C27.4767 27.8076 27.4208 27.8066 27.3648 27.8057C27.2764 27.8042 27.1875 27.8026 26.9383 27.8783C26.6624 27.9675 26.007 28.5438 25.8966 28.7427C25.8549 28.813 25.858 28.8297 25.86 28.8407C25.8623 28.8533 25.8633 28.8583 25.7932 28.928C25.7793 28.9418 25.7648 28.9551 25.7504 28.9682C25.7148 29.0008 25.6798 29.033 25.6552 29.072C25.6348 29.1025 25.6194 29.1312 25.6051 29.1581C25.5611 29.2403 25.5265 29.3051 25.3862 29.3464L25.3723 28.6741L25.0206 28.8937C24.9466 28.9672 24.9064 29.0328 24.869 29.0938C24.8366 29.1466 24.8064 29.1958 24.7584 29.2436C24.6805 29.3211 24.6078 29.4277 24.5371 29.5315C24.4262 29.6941 24.3202 29.8496 24.2065 29.8747C24.2002 29.7769 24.1821 29.7008 24.1645 29.6264C24.1438 29.5392 24.1237 29.4544 24.1237 29.3396C24.1237 29.2559 24.1082 29.1916 24.0886 29.1098C24.0711 29.0372 24.0503 28.9508 24.0341 28.825C23.9163 28.8361 23.8167 29.0606 23.7502 29.2105C23.735 29.2449 23.7215 29.2754 23.7099 29.2985L23.4201 29.8131C23.3829 29.8946 23.3557 29.926 23.3288 29.9572C23.3058 29.9837 23.2831 30.01 23.2545 30.0668L22.8268 30.8353C22.8107 30.8246 22.8019 30.8212 22.7951 30.8186C22.7845 30.8145 22.7789 30.8124 22.7579 30.7873C22.6996 30.7197 22.6755 30.6113 22.6519 30.5052C22.642 30.4605 22.6322 30.4162 22.6199 30.3756C22.5647 30.1834 22.4268 29.8678 22.2888 29.6895C22.1199 29.762 22.0129 30.0024 21.9097 30.2344C21.8274 30.4194 21.7474 30.5991 21.6403 30.6843C21.6005 30.6122 21.6006 30.5913 21.6007 30.5708C21.6008 30.5522 21.6009 30.534 21.5714 30.4786C21.5565 30.449 21.5357 30.4274 21.5153 30.4063C21.4978 30.3881 21.4806 30.3703 21.4679 30.3481C21.288 30.0532 21.1836 29.9866 21.0531 29.9034C20.9984 29.8685 20.9391 29.8307 20.8677 29.7719C20.658 29.5954 20.6243 29.7108 20.5805 29.8612C20.5681 29.9038 20.5548 29.9491 20.5366 29.9915C20.5366 29.9962 20.4937 30.0731 20.4649 30.1246C20.4521 30.1476 20.4421 30.1655 20.44 30.1697C20.4258 30.2086 20.4207 30.233 20.4154 30.2587C20.4104 30.2828 20.4051 30.3082 20.3917 30.3481C20.3796 30.3823 20.368 30.4177 20.3564 30.4534C20.3283 30.5394 20.2997 30.6273 20.2607 30.7049C20.2224 30.7785 20.2105 30.8277 20.2017 30.8643C20.1867 30.9266 20.1805 30.9525 20.0675 31C20.0291 30.9306 20.0084 30.849 19.9875 30.7666C19.967 30.686 19.9464 30.6046 19.9088 30.5333C19.8869 30.4936 19.8655 30.4591 19.8454 30.4266C19.7959 30.3467 19.754 30.279 19.7295 30.1766L19.7226 30.1834L19.6191 30.005C19.5632 29.9703 19.5586 29.9514 19.5516 29.9226C19.5447 29.8944 19.5355 29.8567 19.4742 29.7856C19.4447 29.7563 19.4167 29.7321 19.3902 29.7092C19.3361 29.6626 19.2882 29.6213 19.2466 29.5523C19.2423 29.5443 19.2383 29.5367 19.2344 29.5294C19.1821 29.4306 19.1627 29.3939 19.0534 29.2916C18.9547 29.1996 18.9277 29.2008 18.8985 29.2021C18.895 29.2022 18.8915 29.2024 18.8879 29.2024L18.7775 29.3464L18.743 29.3189C18.7478 29.4201 18.7153 29.4773 18.674 29.5499C18.6564 29.5807 18.6373 29.6142 18.6188 29.6551C18.605 29.6826 18.536 29.8131 18.536 29.8131C18.5154 29.8687 18.5175 29.8893 18.519 29.9054C18.5211 29.9269 18.5224 29.9401 18.4671 30.0188C18.3443 30.0284 18.3062 29.9537 18.2274 29.7989C18.138 29.6233 17.9962 29.3446 17.6185 28.969C17.4576 28.8089 17.4377 28.7983 17.3891 28.7724C17.3648 28.7595 17.3334 28.7427 17.2736 28.7015C17.2417 28.6803 17.2298 28.6646 17.2193 28.6506C17.2093 28.6374 17.2005 28.6257 17.177 28.6124L16.3079 28.0635C16.2991 28.0547 16.286 28.0383 16.2708 28.019C16.2383 27.978 16.1958 27.9244 16.163 27.9057C16.119 27.8765 16.0987 27.8722 16.0808 27.8683C16.0568 27.8631 16.0372 27.8589 15.9698 27.7958C15.9569 27.783 15.942 27.7675 15.9261 27.751C15.8911 27.7146 15.8513 27.6733 15.8181 27.6449C15.7258 27.5452 15.6709 27.5104 15.6098 27.4718C15.5659 27.444 15.5188 27.4142 15.4524 27.3568C15.3895 27.302 15.3333 27.2451 15.2762 27.1871C15.2331 27.1434 15.1895 27.0992 15.142 27.055C15.0724 26.9891 15.0188 26.9532 14.9657 26.9178C14.9083 26.8794 14.8517 26.8416 14.7764 26.7667C14.7334 26.7209 14.6863 26.6765 14.6394 26.6322C14.5809 26.5769 14.5226 26.522 14.4729 26.4649C14.3828 26.3597 14.3283 26.3297 14.269 26.2971C14.2238 26.2723 14.1759 26.2459 14.1073 26.1836C14.0503 26.127 13.9944 26.0662 13.9379 26.0048C13.7893 25.8431 13.6369 25.6773 13.4519 25.5729C13.3517 25.5201 13.2615 25.4223 13.1771 25.3307C13.1628 25.3152 13.1486 25.2998 13.1346 25.2848C12.8433 25.2735 12.8121 25.2903 12.6494 25.3782C12.6156 25.3965 12.5762 25.4178 12.5275 25.4426C12.2935 25.5637 12.2151 25.5362 12.0983 25.4954C12.043 25.476 11.9791 25.4536 11.886 25.4426C11.7844 25.43 11.7399 25.4122 11.6905 25.3924C11.6593 25.38 11.6262 25.3668 11.5755 25.3535C11.4514 25.3123 10.9961 24.976 10.8788 24.8525C10.5132 24.4957 10.389 24.2488 10.4028 23.7411C10.4028 23.5696 10.5339 23.3226 10.6512 23.2059C10.8252 23.0366 10.9349 22.9973 11.0292 22.9635ZM21.6886 26.1768C21.6886 26.1493 21.7162 26.115 21.7369 26.1836C21.7507 26.2454 21.6886 26.2248 21.6886 26.1768ZM25.5517 23.2059C25.5517 23.1442 25.5793 23.1511 25.6 23.2059C25.6138 23.2677 25.5517 23.2402 25.5517 23.2059ZM20.919 22.8466C20.9261 22.8498 20.9388 22.841 20.9712 22.8217C20.9568 22.7932 20.9592 22.7777 20.9533 22.7732C20.9478 22.769 20.9351 22.7743 20.8953 22.7875C20.9099 22.8239 20.911 22.8429 20.919 22.8466ZM24.937 22.6928C24.9424 22.6955 24.9535 22.687 24.986 22.6708C24.9754 22.639 24.9794 22.6236 24.9744 22.6198C24.9698 22.6163 24.9572 22.6231 24.9171 22.6364C24.9316 22.6727 24.9308 22.6898 24.937 22.6928ZM23.3238 22.1912C23.3104 22.2024 23.3007 22.2106 23.1856 22.2318C23.1632 22.3502 23.0365 22.5265 22.9224 22.6853C22.8249 22.8209 22.7366 22.9438 22.7303 23.007L23.0614 23.0138C23.2132 23.3088 23.427 23.4735 23.7857 23.4803C24.0272 23.4803 24.1652 23.453 24.4135 23.3021C24.4894 23.2541 24.8205 22.7325 24.8343 22.4855L24.9929 22.4307C24.9857 22.3042 24.9899 22.2748 24.9784 22.2542C24.968 22.2357 24.945 22.2244 24.8895 22.1562C24.8402 22.1513 24.7865 22.1508 24.7325 22.1502C24.6353 22.1493 24.5371 22.1483 24.4618 22.1219C24.1651 22.0052 23.6754 22.0602 23.3787 22.1631C23.3418 22.1762 23.3321 22.1843 23.3238 22.1912ZM20.9902 23.0498C21.0034 23.012 21.0158 22.9767 21.0264 22.9522C20.9612 22.9716 20.9422 22.9803 20.9258 22.9769C20.9074 22.9731 20.8922 22.954 20.8194 22.9178C20.8125 22.8607 20.8125 22.8294 20.8125 22.8086C20.8125 22.7669 20.8125 22.7669 20.7573 22.6845C20.7025 22.6061 20.6851 22.5937 20.6841 22.5801C20.683 22.5663 20.6987 22.5512 20.7091 22.4649C20.5087 22.4486 20.4974 22.4348 20.4682 22.399C20.4482 22.3745 20.4198 22.3396 20.3158 22.2865C20.1595 22.2088 20.0661 22.2133 19.9256 22.2202C19.8802 22.2224 19.8298 22.2249 19.7708 22.2249C19.1873 22.2249 19.161 22.2506 19.1392 22.2721C19.1253 22.2857 19.1132 22.2976 18.9637 22.3003C18.9247 22.3025 18.894 22.3025 18.8659 22.3026C18.8097 22.3026 18.7637 22.3026 18.6809 22.3209C18.6809 22.4375 18.7499 22.4993 18.8327 22.5679C18.8396 22.6983 18.8327 22.7325 18.7844 22.8286C19.049 23.0835 19.1055 23.1709 19.1557 23.2488C19.1894 23.3008 19.2202 23.3486 19.3087 23.4393C19.4604 23.5902 19.8536 23.6931 20.0882 23.6039C20.1244 23.5901 20.156 23.5787 20.1843 23.5685C20.3663 23.503 20.4128 23.4863 20.6814 23.1716L20.9505 23.1579C20.964 23.1243 20.9775 23.0859 20.9902 23.0498ZM25.4758 20.9212C25.4758 20.9006 25.5034 20.8595 25.5241 20.9281C25.5379 20.983 25.4758 20.9761 25.4758 20.9212ZM17.8876 21.1889L17.7565 21.0036C17.866 20.8076 17.9477 20.7914 18.044 20.7723C18.0994 20.7613 18.1595 20.7494 18.2325 20.7018C18.4051 20.5846 18.4929 20.5772 18.6088 20.5674C18.6828 20.5612 18.7684 20.554 18.8948 20.5165C19.1362 20.4411 20.2675 20.5508 20.4607 20.6674L20.4469 20.784L20.6194 20.7497L20.6125 20.8596C20.7667 20.8596 20.798 20.8925 20.8825 20.9818C20.9001 21.0003 20.9199 21.0213 20.9436 21.0448L20.9022 21.182C21.1091 21.182 21.2678 21.477 21.3575 21.6622C21.4954 21.923 21.7921 22.1494 22.0542 21.9024C22.1475 21.8151 22.2844 21.6161 22.4311 21.4028C22.6533 21.0797 22.898 20.7239 23.0476 20.6743C23.1133 20.6743 23.1486 20.6862 23.1759 20.6954C23.2173 20.7094 23.2403 20.7171 23.3235 20.6674C23.4408 20.5988 23.9306 20.4959 24.0893 20.4959C24.111 20.4959 24.1337 20.4959 24.1571 20.4958C24.4975 20.495 25.0005 20.4937 25.3103 20.6606C25.41 20.7124 25.4792 20.7295 25.5335 20.7428C25.6445 20.7702 25.6934 20.7822 25.8139 21.0448C26.1588 21.7652 26.1174 22.9795 25.5241 23.5353C25.444 23.6149 25.4387 23.6126 25.4135 23.6019C25.3975 23.5951 25.3735 23.5849 25.3172 23.5902C25.31 23.6009 25.3026 23.6145 25.2941 23.6303C25.237 23.736 25.1295 23.935 24.7032 23.947C24.5433 23.9511 24.5101 23.9648 24.4675 23.9825C24.4384 23.9946 24.4049 24.0084 24.3238 24.0224C24.2445 24.034 24.1926 24.0296 24.1438 24.0253C24.0781 24.0196 24.0178 24.0144 23.903 24.0498C23.7672 24.0956 23.685 24.1088 23.6274 24.1181C23.5034 24.138 23.4934 24.1397 23.3097 24.4066C23.1925 24.5781 23.1097 24.9898 23.0959 25.1133C23.0712 25.3475 23.0866 25.5338 23.1002 25.6978C23.1284 26.0381 23.1486 26.2819 22.7854 26.657C22.3539 27.1127 22.1606 26.9379 21.9555 26.7526C21.8426 26.6505 21.7262 26.5453 21.5645 26.5404C21.321 26.9732 21.2331 26.9456 21.1226 26.9108C21.086 26.8992 21.0469 26.8869 20.9988 26.8903C20.9875 26.8903 20.9739 26.8947 20.9557 26.9007C20.9184 26.9128 20.8616 26.9314 20.7642 26.9314C20.6745 26.8147 20.5642 26.7462 20.4262 26.6913C20.4181 26.5676 20.3898 26.4903 20.3589 26.4056C20.3109 26.2742 20.2565 26.1252 20.2607 25.7582C20.2607 25.6923 20.2642 25.604 20.2681 25.5055C20.2797 25.2146 20.2949 24.8348 20.2331 24.681C20.1988 24.5913 20.1843 24.5161 20.1723 24.4536C20.1383 24.2768 20.1236 24.2004 19.7364 24.1801C19.6863 24.177 19.6419 24.181 19.5973 24.1849C19.5437 24.1897 19.49 24.1945 19.4259 24.187C19.3782 24.1797 19.3461 24.1646 19.3151 24.1501C19.2878 24.1373 19.2614 24.1249 19.2259 24.1185C19.1348 24.0974 19.084 24.0971 19.038 24.0967C18.9343 24.096 18.8548 24.0954 18.3912 23.8577C18.2714 23.7981 18.247 23.7509 18.2173 23.6933C18.2025 23.6647 18.1864 23.6335 18.1566 23.5971C18.1331 23.5685 18.1047 23.5468 18.0735 23.523C18.0224 23.484 17.964 23.4395 17.9083 23.35C17.7445 23.0958 17.6865 22.8789 17.6101 22.5932C17.6061 22.5781 17.602 22.5628 17.5979 22.5473C17.5688 22.4509 17.573 22.3907 17.5772 22.3306C17.582 22.2624 17.5867 22.1944 17.5427 22.074C17.4747 21.8923 17.4983 21.8485 17.5313 21.7872C17.5519 21.7489 17.5761 21.7038 17.5841 21.6142C17.5856 21.5676 17.5844 21.5281 17.5832 21.4926C17.5793 21.371 17.577 21.2964 17.6944 21.1477L17.8876 21.1889Z" fill="#DB093F"/>
</g>
<defs>
<filter id="filter0_d_2969_6871" x="0.686396" y="0.171599" width="42.6272" height="42.6272" filterUnits="userSpaceOnUse" color-interpolation-filters="sRGB">
<feFlood flood-opacity="0" result="BackgroundImageFix"/>
<feColorMatrix in="SourceAlpha" type="matrix" values="0 0 0 0 0 0 0 0 0 0 0 0 0 0 0 0 0 0 127 0" result="hardAlpha"/>
<feOffset dy="2.4852"/>
<feGaussianBlur stdDeviation="1.6568"/>
<feComposite in2="hardAlpha" operator="out"/>
<feColorMatrix type="matrix" values="0 0 0 0 0 0 0 0 0 0 0 0 0 0 0 0 0 0 0.4 0"/>
<feBlend mode="normal" in2="BackgroundImageFix" result="effect1_dropShadow_2969_6871"/>
<feBlend mode="normal" in="SourceGraphic" in2="effect1_dropShadow_2969_6871" result="shape"/>
</filter>
</defs>
</svg>
