<svg width="44" height="43" viewBox="0 0 44 43" fill="none" xmlns="http://www.w3.org/2000/svg">
<g filter="url(#filter0_d_2969_6870)">
<path fill-rule="evenodd" clip-rule="evenodd" d="M12.284 1C7.70888 1 4 4.70888 4 9.28401V28.716C4 33.2911 7.70888 37 12.284 37H31.716C36.2911 37 40 33.2911 40 28.716V9.28401C40 4.70888 36.2911 1 31.716 1H12.284ZM11.5608 28.8826C11.5685 28.873 11.5666 28.8556 11.583 28.7896C11.7712 28.6596 12.8289 26.9702 13.0171 26.6518C14.1397 24.787 15.2104 22.6754 15.9047 20.5832C15.9203 20.5373 15.9399 20.4816 15.9618 20.419C16.0862 20.0646 16.2885 19.4882 16.2941 19.2121H16.3849C16.4206 19.3552 16.4594 19.4109 16.4928 19.459C16.5445 19.5331 16.5835 19.5893 16.5796 19.9204V28.0749C16.5861 28.6532 16.3265 28.7636 15.6516 28.9585C14.6806 29.2343 13.5226 29.2795 12.9112 29.3034C12.7013 29.3116 12.5559 29.3173 12.5045 29.3289L12.4396 29.3615H11.2002V9.53719C11.8615 9.38356 14.6322 9.16508 16.259 9.0368C16.6275 9.00775 16.9373 8.98332 17.1506 8.96532L17.3388 8.91995H17.4361C17.5034 9.04498 17.5351 9.13085 17.5786 9.2487C17.5938 9.29008 17.6106 9.33541 17.6308 9.38776L19.7851 14.7613C19.8338 14.8987 19.8674 14.9756 19.9106 15.0745C19.9308 15.1206 19.953 15.1716 19.9798 15.2356L21.3425 18.6792C21.4723 18.9846 21.6151 19.3225 21.7448 19.6604C21.7874 19.7701 21.8269 19.8747 21.8655 19.9772C21.9505 20.2026 22.0316 20.4178 22.1342 20.6545C22.3092 21.0581 22.4664 21.4643 22.6233 21.8698C22.7165 22.1106 22.8096 22.3511 22.9064 22.5908C23.0361 22.9222 23.1594 23.2341 23.3022 23.5785C23.3379 23.6662 23.3671 23.7409 23.3963 23.8156C23.4255 23.8903 23.4547 23.9651 23.4904 24.0528C23.5025 24.0839 23.5149 24.118 23.5279 24.1537C23.5774 24.2899 23.6352 24.4488 23.7175 24.5466L23.0621 22.6233C22.942 22.3181 22.8366 22.0158 22.7311 21.7137C22.6144 21.3791 22.4977 21.0446 22.3613 20.7066C22.3257 20.6176 22.2961 20.5365 22.2669 20.4567C22.2428 20.3908 22.219 20.3259 22.1926 20.2583C22.1814 20.2296 22.1656 20.1915 22.1479 20.1488C22.0933 20.0176 22.0207 19.8429 22.0109 19.7645C21.9863 19.5677 23.4492 16.124 24.2151 14.3211C24.4609 13.7424 24.6349 13.3328 24.6649 13.2538L26.0081 10.018C26.0294 9.9625 26.0508 9.91471 26.0716 9.86794C26.1142 9.7724 26.1549 9.68116 26.1898 9.53719H32.6594V29.2185C32.3396 29.2185 31.8985 29.2225 31.4093 29.227C30.2505 29.2375 28.8211 29.2505 28.0911 29.2185C27.851 29.2055 27.825 29.1729 27.7537 29.0754C27.572 28.8155 27.4681 28.3998 27.4746 28.0749V20.6871C27.4746 20.402 27.4647 20.1963 27.457 20.0361C27.4329 19.5357 27.4302 19.48 27.8186 18.8352L28.6167 17.4448C29.1099 16.5936 32.0105 10.9666 32.0883 10.6353C31.9845 10.7132 31.4135 11.7919 31.3096 11.9998L28.0586 18.036C28.0152 18.1134 27.9721 18.1892 27.9294 18.2644C27.8001 18.4919 27.6745 18.7129 27.5525 18.9523C27.3282 19.4163 27.01 19.9847 26.6997 20.5391C26.4624 20.9629 26.2298 21.3786 26.047 21.7333C25.7039 22.3929 25.3481 23.0453 24.992 23.6982C24.6747 24.2799 24.3573 24.862 24.0484 25.4499H20.0512C19.7734 24.9279 19.4412 24.3477 19.1076 23.7651C18.6855 23.0278 18.2612 22.2867 17.9423 21.6552C17.8424 21.4627 17.7447 21.2891 17.6454 21.1129C17.5705 20.9799 17.4948 20.8454 17.4167 20.7001C17.3816 20.6333 17.3617 20.6027 17.3405 20.5701C17.3226 20.5424 17.3037 20.5133 17.2739 20.4596C17.2502 20.4181 17.232 20.3807 17.2142 20.3443C17.1929 20.3008 17.1724 20.2587 17.1441 20.2128L16.3525 18.8093C15.9264 18.0061 15.4645 17.1892 15.0053 16.3771C14.5693 15.6059 14.1356 14.8389 13.7374 14.092L12.4201 11.7008C12.3688 11.6173 12.3286 11.5434 12.2893 11.4711C12.2491 11.3971 12.2098 11.3249 12.1605 11.246C12.1381 11.2075 12.1161 11.1702 12.0943 11.1334C12.028 11.0211 11.9645 10.9135 11.901 10.7912C11.8698 10.7371 11.8446 10.6823 11.8203 10.6294C11.7687 10.5172 11.7211 10.4135 11.6285 10.3429L12.7965 12.6561C12.8802 12.7958 12.9506 12.9422 13.0196 13.0857C13.0469 13.1424 13.0739 13.1986 13.1015 13.2538L15.8333 18.283C16.1014 18.7304 16.216 18.8843 16.2257 19.0446C16.2323 19.152 16.1918 19.2622 16.1189 19.4656C16.041 19.6898 15.9615 19.8993 15.882 20.1088C15.8025 20.3184 15.723 20.5279 15.6451 20.7521C15.2363 21.8957 14.568 23.2797 14.0424 24.3388L12.8289 26.6065C12.7113 26.8005 12.601 26.9926 12.4913 27.1839C12.3952 27.3514 12.2994 27.5182 12.1995 27.685C12.1895 27.7014 12.1766 27.7226 12.1613 27.7477C12.0073 28.0004 11.6126 28.6477 11.583 28.7896C11.5312 28.8253 11.5149 28.8253 11.5076 28.8334C11.5003 28.8415 11.5019 28.8577 11.4857 28.926C11.5368 28.8941 11.5533 28.892 11.5608 28.8826ZM29.1358 26.2101L28.0002 28.978C28.4026 28.6792 29.4213 26.0866 29.6939 25.3848C30.1741 24.1178 30.5894 22.7664 30.9592 21.4084C31.5368 19.2836 32.5166 14.7743 32.5166 12.4416H32.4712C32.4712 13.2668 31.9456 16.3013 31.7769 17.0355C31.0566 20.1478 30.5764 22.123 29.4927 25.2289C29.4456 25.3607 29.3984 25.4858 29.3519 25.609C29.277 25.8077 29.2039 26.0015 29.1358 26.2101Z" fill="#33C5D1"/>
</g>
<defs>
<filter id="filter0_d_2969_6870" x="0.686396" y="0.171599" width="42.6272" height="42.6272" filterUnits="userSpaceOnUse" color-interpolation-filters="sRGB">
<feFlood flood-opacity="0" result="BackgroundImageFix"/>
<feColorMatrix in="SourceAlpha" type="matrix" values="0 0 0 0 0 0 0 0 0 0 0 0 0 0 0 0 0 0 127 0" result="hardAlpha"/>
<feOffset dy="2.4852"/>
<feGaussianBlur stdDeviation="1.6568"/>
<feComposite in2="hardAlpha" operator="out"/>
<feColorMatrix type="matrix" values="0 0 0 0 0 0 0 0 0 0 0 0 0 0 0 0 0 0 0.4 0"/>
<feBlend mode="normal" in2="BackgroundImageFix" result="effect1_dropShadow_2969_6870"/>
<feBlend mode="normal" in="SourceGraphic" in2="effect1_dropShadow_2969_6870" result="shape"/>
</filter>
</defs>
</svg>
