<svg width="44" height="43" viewBox="0 0 44 43" fill="none" xmlns="http://www.w3.org/2000/svg">
<g filter="url(#filter0_d_2969_6869)">
<path fill-rule="evenodd" clip-rule="evenodd" d="M12.284 1C7.70888 1 4 4.70888 4 9.28401V28.716C4 33.2911 7.70888 37 12.284 37H31.716C36.2911 37 40 33.2911 40 28.716V9.28401C40 4.70888 36.2911 1 31.716 1H12.284ZM13.1772 10.0001H10.0585H9.91554C9.82457 10.0001 9.75957 10.0705 9.75957 10.1538V27.248C9.75957 27.3377 9.82457 27.4018 9.91554 27.4018H13.1772C13.2617 27.4018 13.3332 27.3377 13.3332 27.248V21.7827H16.5104C19.7981 21.7827 22.4881 19.1366 22.4881 15.8946C22.4881 12.6526 19.7981 10.0001 16.5104 10.0001H13.1772ZM24.2684 26.5881V23.9933C24.2684 23.6922 24.3269 23.6281 24.6582 23.8011C25.1455 24.0574 26.1981 24.6084 27.829 24.7429C28.5697 24.807 30.4215 24.8839 30.4085 23.7818C30.3961 23.2308 29.8438 22.9722 29.4149 22.7714C29.3949 22.7621 29.3752 22.7529 29.3559 22.7438C29.0391 22.5944 28.6651 22.4438 28.2834 22.2902C27.7647 22.0814 27.2319 21.8669 26.8089 21.6418C25.2885 20.8409 24.2099 19.7005 24.2489 17.9194C24.2684 16.7212 25.0026 15.4974 26.0032 14.8247C26.9778 14.1775 28.3033 13.9149 29.4729 13.9085C30.389 13.9085 32.2278 14.0173 33.053 14.4145C33.2544 14.5106 33.3064 14.6581 33.3064 14.8375V17.3811C33.3064 17.663 33.0724 17.6438 32.871 17.5669C32.7735 17.5309 32.6633 17.4848 32.5404 17.4333C32.4667 17.4025 32.3885 17.3698 32.3057 17.3362C31.3831 16.971 29.7328 16.7019 28.7582 16.8557C27.764 17.003 27.2767 17.7976 28.2059 18.5152C28.6423 18.8513 29.3873 19.1324 30.0886 19.397C30.4834 19.5459 30.8644 19.6897 31.1687 19.8351C32.0134 20.2387 33.0595 20.8538 33.5403 21.6867C34.203 22.8336 34.19 24.3264 33.4883 25.5181C32.3707 27.4083 29.9212 27.8375 27.8615 27.7222C26.8089 27.6645 25.5029 27.4532 24.5153 27.0495C24.263 26.9421 24.2637 26.8994 24.2674 26.6839C24.2679 26.6552 24.2684 26.6235 24.2684 26.5881ZM15.5098 18.7971H13.3332V12.9857H15.5098C17.2836 12.9857 18.908 13.9596 18.9015 15.8882C18.895 17.8167 17.2836 18.7971 15.5098 18.7971Z" fill="#31A8FF"/>
</g>
<defs>
<filter id="filter0_d_2969_6869" x="0.686396" y="0.171599" width="42.6272" height="42.6272" filterUnits="userSpaceOnUse" color-interpolation-filters="sRGB">
<feFlood flood-opacity="0" result="BackgroundImageFix"/>
<feColorMatrix in="SourceAlpha" type="matrix" values="0 0 0 0 0 0 0 0 0 0 0 0 0 0 0 0 0 0 127 0" result="hardAlpha"/>
<feOffset dy="2.4852"/>
<feGaussianBlur stdDeviation="1.6568"/>
<feComposite in2="hardAlpha" operator="out"/>
<feColorMatrix type="matrix" values="0 0 0 0 0 0 0 0 0 0 0 0 0 0 0 0 0 0 0.4 0"/>
<feBlend mode="normal" in2="BackgroundImageFix" result="effect1_dropShadow_2969_6869"/>
<feBlend mode="normal" in="SourceGraphic" in2="effect1_dropShadow_2969_6869" result="shape"/>
</filter>
</defs>
</svg>
