<svg width="44" height="43" viewBox="0 0 44 43" fill="none" xmlns="http://www.w3.org/2000/svg">
<g filter="url(#filter0_d_2969_6868)">
<path fill-rule="evenodd" clip-rule="evenodd" d="M12.284 1C7.70888 1 4 4.70888 4 9.28401V28.716C4 33.2911 7.70888 37 12.284 37H31.716C36.2911 37 40 33.2911 40 28.716V9.28401C40 4.70888 36.2911 1 31.716 1H12.284ZM11.0883 10.0001C10.952 10.0001 10.8415 10.1109 10.8415 10.2477V27.2635C10.8415 27.4002 10.952 27.5111 11.0883 27.5111H14.2725C14.4088 27.5111 14.5193 27.4002 14.5193 27.2635V21.9878H16.6668C21.1715 21.9878 23.4794 19.3043 23.4794 15.9939C23.4794 11.9691 20.3249 10.0001 17.0123 10.0001H11.0883ZM14.5193 13.2067V18.8306H16.0497C18.7278 18.8306 19.8509 17.5716 19.8509 16.0186C19.8509 14.4656 18.5911 13.2067 17.037 13.2067H14.5193ZM30.6998 10.3584C30.8479 10.3336 30.9263 10.3826 30.922 10.5194C30.8803 11.8438 30.8514 13.1092 30.8314 14.2841H33.2175C33.3539 14.2841 33.4644 14.395 33.4644 14.5318V17.0582C33.4644 17.195 33.3539 17.3058 33.2175 17.3058H30.7972C30.7862 19.0388 30.7862 20.9363 30.7862 23.3245C30.846 24.812 31.5427 24.7889 32.9884 24.741L33.1311 24.7363C33.2675 24.7363 33.378 24.8472 33.378 24.984V27.1465C33.3782 27.28 33.3784 27.3944 32.6745 27.5475C29.4286 28.2534 27.1084 27.2379 27.1084 24.2409V17.3058H25.5534C25.417 17.3058 25.3065 17.195 25.3065 17.0582V14.5318C25.3065 14.395 25.417 14.2841 25.5534 14.2841H27.1198L27.4046 11.1881C27.4293 10.8414 27.6144 10.7794 27.8489 10.7423L30.6998 10.3584Z" fill="#3CD039"/>
</g>
<defs>
<filter id="filter0_d_2969_6868" x="0.686396" y="0.171599" width="42.6272" height="42.6272" filterUnits="userSpaceOnUse" color-interpolation-filters="sRGB">
<feFlood flood-opacity="0" result="BackgroundImageFix"/>
<feColorMatrix in="SourceAlpha" type="matrix" values="0 0 0 0 0 0 0 0 0 0 0 0 0 0 0 0 0 0 127 0" result="hardAlpha"/>
<feOffset dy="2.4852"/>
<feGaussianBlur stdDeviation="1.6568"/>
<feComposite in2="hardAlpha" operator="out"/>
<feColorMatrix type="matrix" values="0 0 0 0 0 0 0 0 0 0 0 0 0 0 0 0 0 0 0.4 0"/>
<feBlend mode="normal" in2="BackgroundImageFix" result="effect1_dropShadow_2969_6868"/>
<feBlend mode="normal" in="SourceGraphic" in2="effect1_dropShadow_2969_6868" result="shape"/>
</filter>
</defs>
</svg>
