<svg width="44" height="43" viewBox="0 0 44 43" fill="none" xmlns="http://www.w3.org/2000/svg">
<g filter="url(#filter0_d_2969_6867)">
<path fill-rule="evenodd" clip-rule="evenodd" d="M12.284 1C7.70888 1 4 4.70888 4 9.28401V28.716C4 33.2911 7.70888 37 12.284 37H31.716C36.2911 37 40 33.2911 40 28.716V9.28401C40 4.70888 36.2911 1 31.716 1H12.284ZM22.2966 10.4542C22.2035 9.96012 22.3252 9.46616 22.6691 8.92199C23.0702 8.27759 23.5357 7.92675 24.1087 7.85515C24.8035 7.75491 25.4696 8.15592 26.0928 8.97216C26.6586 9.73829 26.9308 10.4543 26.8592 11.1273C26.8592 11.5211 26.2647 11.7717 25.0972 11.8433C24.1803 11.9149 23.5142 11.8433 23.0916 11.5712C22.6475 11.2991 22.3969 10.9267 22.2966 10.4542ZM17.9846 23.2492V23.2349C17.9703 23.2349 13.2573 23.9581 11.574 26.1061C8.47258 30.0441 13.2788 27.8388 15.6353 25.6908C17.5406 23.9151 17.9273 23.3423 17.9775 23.2492H17.9846ZM11.112 29.1276C11.1085 29.1115 11.1049 29.0953 11.1013 29.0774C10.2633 29.2636 9.61147 29.2421 9.26766 29.0559C8.8952 28.8555 9.0671 28.3614 9.16737 28.1609C9.76188 26.8292 10.8005 25.5905 12.19 24.4736C12.2484 24.4282 12.3053 24.3887 12.3614 24.3498C12.4292 24.3027 12.4958 24.2565 12.5625 24.2016C13.6799 23.3853 15.1625 22.5189 17.0463 21.6239C18.2855 21.1012 19.3026 20.7576 20.0976 20.5857L20.8354 19.5476C20.9099 19.4607 20.9839 19.3725 21.0581 19.2841C21.2834 19.0158 21.5097 18.7462 21.7522 18.5092C22.447 17.786 23.1418 17.0917 23.858 16.4974C23.8724 16.4902 23.8867 16.483 23.8938 16.4759L23.8365 16.4472C23.4641 16.2252 22.8696 15.8528 22.053 15.2872C21.3583 14.8146 20.8139 14.471 20.42 14.292C19.1808 13.7479 17.913 13.8982 16.6022 14.7932C16.3802 14.9364 16.194 15.094 16.0292 15.2515C15.6568 15.6382 15.4491 16.0534 15.4133 16.4759L15.3631 17.2419C15.3774 17.2992 15.3416 17.3708 15.2485 17.4495C15.0479 17.6715 14.3818 17.9866 13.2573 18.3804C13.1148 18.4211 12.9815 18.4641 12.8615 18.5029C12.7703 18.5323 12.6868 18.5593 12.6126 18.5809C12.6126 18.5809 12.0468 18.8243 11.8462 18.5092C11.6958 18.2586 12.3189 17.3923 13.6297 15.903L13.6326 15.9C13.825 15.6933 14.0175 15.4867 14.2099 15.2944C16.5234 13.0103 19.2166 12.1369 22.2966 12.6882C23.1919 12.8314 24.6531 13.3755 26.6873 14.292C26.9094 14.0701 27.3033 13.7979 27.8262 13.5044C28.4923 13.132 29.0653 12.9102 29.4879 12.9102C30.4262 12.8815 30.9992 13.2539 31.2428 13.977C31.3645 14.4209 31.0422 15.0366 30.2543 15.8314L30.24 15.8385L30.2042 15.8815C29.359 16.7193 28.5926 17.2419 27.8477 17.4639C26.9308 17.736 25.9137 17.5857 24.8537 16.9985L24.8465 16.9914C24.6316 17.1561 24.4167 17.3494 24.1947 17.5714C23.9082 17.8506 23.6074 18.1727 23.2922 18.5307C23.2765 18.5425 23.2629 18.563 23.249 18.5838C23.2377 18.6009 23.2263 18.6182 23.2134 18.6311L21.831 20.2849L21.8024 20.4139L22.7478 20.3852C23.414 20.4139 24.1087 20.5356 24.825 20.7576C26.7589 21.3805 28.3705 22.1466 29.6813 23.0631C30.3045 23.507 30.899 24.0009 31.4648 24.5737C32.0593 25.168 32.6323 25.8339 33.148 26.5571C33.6208 27.2015 34.0219 27.8674 34.337 28.5118L34.3657 28.5548L34.38 28.5978L34.4015 28.6408L34.423 28.6766L34.466 28.7624L34.4875 28.7983C34.8456 29.5644 34.9745 30.1086 34.8886 30.4165C34.8384 30.5668 34.6092 30.5381 34.2153 30.3663C33.8428 30.1873 33.4489 29.9582 33.0334 29.6789C32.6896 29.4498 32.3243 29.1848 31.9375 28.8841C31.0207 28.1609 30.4979 27.5954 30.3546 27.1729C30.3045 27.0727 30.3259 26.9509 30.3761 26.7791L30.548 26.3066C30.6483 25.8842 30.4978 25.4617 30.0824 25.0464C29.9606 24.9247 29.8102 24.803 29.6312 24.6813C29.538 24.6168 29.4378 24.5595 29.3375 24.5023C28.5424 24.0798 27.3821 23.729 25.8708 23.4354C24.2806 23.1347 22.798 22.9629 21.3583 22.9414L19.6249 23.0344L19.5031 23.0487L19.4601 23.0989L19.5962 23.0846C19.263 23.4929 18.9297 23.8609 18.6056 24.2188C18.4977 24.3379 18.3909 24.4558 18.2855 24.5737C17.9416 24.9461 17.5907 25.2899 17.2469 25.6121C15.8573 26.8508 14.5179 27.7887 13.2071 28.4331C12.4407 28.8054 11.7459 29.0561 11.1228 29.1778C11.1192 29.1599 11.1156 29.1437 11.112 29.1276ZM29.5309 13.8767C29.1584 13.9483 28.743 14.0701 28.2917 14.292C27.8477 14.5211 27.6757 14.6429 27.7474 14.7145C27.9264 14.8649 28.3419 14.915 28.9865 14.8935C29.7314 14.8649 30.2257 14.7144 30.4979 14.4209C30.6268 14.2705 30.6268 14.1202 30.4763 13.9985C30.3044 13.8482 29.9821 13.7979 29.5309 13.8767Z" fill="white"/>
</g>
<defs>
<filter id="filter0_d_2969_6867" x="0.686396" y="0.171599" width="42.6272" height="42.6272" filterUnits="userSpaceOnUse" color-interpolation-filters="sRGB">
<feFlood flood-opacity="0" result="BackgroundImageFix"/>
<feColorMatrix in="SourceAlpha" type="matrix" values="0 0 0 0 0 0 0 0 0 0 0 0 0 0 0 0 0 0 127 0" result="hardAlpha"/>
<feOffset dy="2.4852"/>
<feGaussianBlur stdDeviation="1.6568"/>
<feComposite in2="hardAlpha" operator="out"/>
<feColorMatrix type="matrix" values="0 0 0 0 0 0 0 0 0 0 0 0 0 0 0 0 0 0 0.4 0"/>
<feBlend mode="normal" in2="BackgroundImageFix" result="effect1_dropShadow_2969_6867"/>
<feBlend mode="normal" in="SourceGraphic" in2="effect1_dropShadow_2969_6867" result="shape"/>
</filter>
</defs>
</svg>
