<svg width="188" height="204" viewBox="0 0 188 204" fill="none" xmlns="http://www.w3.org/2000/svg">
<g filter="url(#filter0_d_2077_76566)">
<path fill-rule="evenodd" clip-rule="evenodd" d="M93.9504 74.3594L105.93 81.2794L117.911 88.1993V102.039V115.869L105.93 122.789L93.9504 129.709L81.9604 122.789L69.9805 115.869V102.039V88.1993L81.9604 81.2794L93.9504 74.3594Z" fill="#9022FF" stroke="#9F56FB" stroke-miterlimit="22.9256" stroke-linecap="round" stroke-linejoin="round"/>
<path d="M117.915 88.1867L93.9492 74.3359L69.9836 88.1867L93.9492 102.038L117.915 88.1867Z" fill="#8F46EB" stroke="#9F56FB" stroke-width="0.32093" stroke-miterlimit="22.9256" stroke-linecap="round" stroke-linejoin="round"/>
<path d="M117.915 115.886L93.9492 102.035L69.9836 115.886L93.9492 129.737L117.915 115.886Z" fill="#9022FF" stroke="#9F56FB" stroke-width="0.32093" stroke-miterlimit="22.9256" stroke-linecap="round" stroke-linejoin="round"/>
<path fill-rule="evenodd" clip-rule="evenodd" d="M93.9504 102.039V129.709L69.9805 115.869V88.1992L93.9504 102.039Z" fill="#9022FF" stroke="#9F56FB" stroke-miterlimit="22.9256" stroke-linecap="round" stroke-linejoin="round"/>
<path fill-rule="evenodd" clip-rule="evenodd" d="M93.9492 102.039V129.709L117.909 115.869V88.1992L93.9492 102.039Z" fill="#7F27D9" stroke="#9F56FB" stroke-miterlimit="22.9256" stroke-linecap="round" stroke-linejoin="round"/>
<path fill-rule="evenodd" clip-rule="evenodd" d="M122.901 91.0898L134.881 98.0098L146.871 104.93V118.77V132.6L134.881 139.52L122.901 146.44L110.922 139.52L98.9414 132.6V118.77V104.93L110.922 98.0098L122.901 91.0898Z" fill="#9022FF" stroke="#9F56FB" stroke-miterlimit="22.9256" stroke-linecap="round" stroke-linejoin="round"/>
<path d="M146.864 104.915L122.898 91.0645L98.9328 104.915L122.898 118.766L146.864 104.915Z" fill="#8F46EB" stroke="#9F56FB" stroke-width="0.32093" stroke-miterlimit="22.9256" stroke-linecap="round" stroke-linejoin="round"/>
<path d="M146.864 132.616L122.898 118.766L98.9328 132.616L122.898 146.467L146.864 132.616Z" fill="#9022FF" stroke="#9F56FB" stroke-width="0.32093" stroke-miterlimit="22.9256" stroke-linecap="round" stroke-linejoin="round"/>
<path fill-rule="evenodd" clip-rule="evenodd" d="M122.9 118.77V146.44L98.9297 132.6V104.93L122.9 118.77Z" fill="#9022FF" stroke="#9F56FB" stroke-miterlimit="22.9256" stroke-linecap="round" stroke-linejoin="round"/>
<path fill-rule="evenodd" clip-rule="evenodd" d="M122.898 118.77V146.44L146.868 132.6V104.93L122.898 118.77Z" fill="#7F27D9" stroke="#9F56FB" stroke-miterlimit="22.9256" stroke-linecap="round" stroke-linejoin="round"/>
<path fill-rule="evenodd" clip-rule="evenodd" d="M64.9717 91.2402L76.9517 98.1502L88.9417 105.07V118.91V132.75L76.9517 139.66L64.9717 146.58L52.9917 139.66L41.0117 132.75V118.91V105.07L52.9917 98.1502L64.9717 91.2402Z" fill="#9022FF" stroke="#9F56FB" stroke-miterlimit="22.9256" stroke-linecap="round" stroke-linejoin="round"/>
<path d="M88.9343 105.058L64.9688 91.207L41.0032 105.058L64.9688 118.909L88.9343 105.058Z" fill="#8F46EB" stroke="#9F56FB" stroke-width="0.32093" stroke-miterlimit="22.9256" stroke-linecap="round" stroke-linejoin="round"/>
<path d="M88.9343 132.759L64.9688 118.908L41.0032 132.759L64.9688 146.61L88.9343 132.759Z" fill="#9022FF" stroke="#9F56FB" stroke-width="0.32093" stroke-miterlimit="22.9256" stroke-linecap="round" stroke-linejoin="round"/>
<path fill-rule="evenodd" clip-rule="evenodd" d="M64.97 118.91V146.58L41 132.75V105.07L64.97 118.91Z" fill="#9022FF" stroke="#9F56FB" stroke-miterlimit="22.9256" stroke-linecap="round" stroke-linejoin="round"/>
<path fill-rule="evenodd" clip-rule="evenodd" d="M64.9688 118.91V146.58L88.9387 132.75V105.07L64.9688 118.91Z" fill="#7F27D9" stroke="#9F56FB" stroke-miterlimit="22.9256" stroke-linecap="round" stroke-linejoin="round"/>
<path fill-rule="evenodd" clip-rule="evenodd" d="M93.9309 107.971L105.911 114.881L117.891 121.801V135.641V149.471L105.911 156.391L93.9309 163.311L81.9409 156.391L69.9609 149.471V135.641V121.801L81.9409 114.881L93.9309 107.971Z" fill="#9022FF" stroke="#9F56FB" stroke-miterlimit="22.9256" stroke-linecap="round" stroke-linejoin="round"/>
<path d="M117.895 121.788L93.9297 107.938L69.9641 121.788L93.9297 135.639L117.895 121.788Z" fill="#8F46EB" stroke="#9F56FB" stroke-width="0.32093" stroke-miterlimit="22.9256" stroke-linecap="round" stroke-linejoin="round"/>
<path d="M117.895 149.489L93.9297 135.639L69.9641 149.489L93.9297 163.34L117.895 149.489Z" fill="#9022FF" stroke="#9F56FB" stroke-width="0.32093" stroke-miterlimit="22.9256" stroke-linecap="round" stroke-linejoin="round"/>
<path fill-rule="evenodd" clip-rule="evenodd" d="M93.9309 135.641V163.311L69.9609 149.471V121.801L93.9309 135.641Z" fill="#9022FF" stroke="#9F56FB" stroke-miterlimit="22.9256" stroke-linecap="round" stroke-linejoin="round"/>
<path fill-rule="evenodd" clip-rule="evenodd" d="M93.9297 135.641V163.311L117.89 149.471V121.801L93.9297 135.641Z" fill="#7F27D9" stroke="#9F56FB" stroke-miterlimit="22.9256" stroke-linecap="round" stroke-linejoin="round"/>
<path fill-rule="evenodd" clip-rule="evenodd" d="M93.9504 41L105.93 47.92L117.911 54.84V68.67V82.51L105.93 89.43L93.9504 96.35L81.9604 89.43L69.9805 82.51V68.67V54.84L81.9604 47.92L93.9504 41Z" fill="#8F46EB" stroke="#9F56FB" stroke-miterlimit="22.9256" stroke-linecap="round" stroke-linejoin="round"/>
<path fill-rule="evenodd" clip-rule="evenodd" d="M93.9504 68.6699V96.3499L69.9805 82.5098V54.8398L93.9504 68.6699Z" fill="#9022FF" stroke="#9F56FB" stroke-miterlimit="22.9256" stroke-linecap="round" stroke-linejoin="round"/>
<path fill-rule="evenodd" clip-rule="evenodd" d="M93.9492 68.6699V96.3499L117.909 82.5098V54.8398L93.9492 68.6699Z" fill="#7F27D9" stroke="#9F56FB" stroke-miterlimit="22.9256" stroke-linecap="round" stroke-linejoin="round"/>
<path d="M146.864 71.55L122.898 57.6992L98.9328 71.55L122.898 85.4008L146.864 71.55Z" fill="#8F46EB" stroke="#9F56FB" stroke-width="0.32093" stroke-miterlimit="22.9256" stroke-linecap="round" stroke-linejoin="round"/>
<path fill-rule="evenodd" clip-rule="evenodd" d="M122.898 85.4003V113.08L146.868 99.2403V71.5703L122.898 85.4003Z" fill="#7F27D9" stroke="#9F56FB" stroke-miterlimit="22.9256" stroke-linecap="round" stroke-linejoin="round"/>
<path fill-rule="evenodd" clip-rule="evenodd" d="M64.9717 57.8691L76.9517 64.7892L88.9417 71.7091V85.5492V99.3791L76.9517 106.299L64.9717 113.219L52.9917 106.299L41.0117 99.3791V85.5492V71.7091L52.9917 64.7892L64.9717 57.8691Z" fill="#8F46EB" stroke="#9F56FB" stroke-miterlimit="22.9256" stroke-linecap="round" stroke-linejoin="round"/>
<path fill-rule="evenodd" clip-rule="evenodd" d="M64.97 85.541V113.221L41 99.3809V71.7109L64.97 85.541Z" fill="#9022FF" stroke="#9F56FB" stroke-miterlimit="22.9256" stroke-linecap="round" stroke-linejoin="round"/>
<path fill-rule="evenodd" clip-rule="evenodd" d="M64.9688 85.541V113.221L88.9387 99.3809V71.7109L64.9688 85.541Z" fill="#7F27D9" stroke="#9F56FB" stroke-miterlimit="22.9256" stroke-linecap="round" stroke-linejoin="round"/>
<path fill-rule="evenodd" clip-rule="evenodd" d="M122.901 85.541V113.221L98.9414 99.3809V71.7109L122.901 85.541Z" fill="#9022FF" stroke="#9F56FB" stroke-miterlimit="22.9256" stroke-linecap="round" stroke-linejoin="round"/>
<path d="M117.895 88.4231L93.9297 74.5723L69.9641 88.4231L93.9297 102.274L117.895 88.4231Z" fill="#8F46EB" stroke="#9F56FB" stroke-width="0.32093" stroke-miterlimit="22.9256" stroke-linecap="round" stroke-linejoin="round"/>
<path fill-rule="evenodd" clip-rule="evenodd" d="M93.9309 102.269V129.949L69.9609 116.109V88.4395L93.9309 102.269Z" fill="#9022FF" stroke="#9F56FB" stroke-miterlimit="22.9256" stroke-linecap="round" stroke-linejoin="round"/>
<path fill-rule="evenodd" clip-rule="evenodd" d="M93.9297 102.269V129.949L117.89 116.109V88.4395L93.9297 102.269Z" fill="#7F27D9" stroke="#9F56FB" stroke-miterlimit="22.9256" stroke-linecap="round" stroke-linejoin="round"/>
</g>
<defs>
<filter id="filter0_d_2077_76566" x="0.5" y="0.5" width="186.871" height="203.311" filterUnits="userSpaceOnUse" color-interpolation-filters="sRGB">
<feFlood flood-opacity="0" result="BackgroundImageFix"/>
<feColorMatrix in="SourceAlpha" type="matrix" values="0 0 0 0 0 0 0 0 0 0 0 0 0 0 0 0 0 0 127 0" result="hardAlpha"/>
<feOffset/>
<feGaussianBlur stdDeviation="20"/>
<feComposite in2="hardAlpha" operator="out"/>
<feColorMatrix type="matrix" values="0 0 0 0 0.615686 0 0 0 0 0.317647 0 0 0 0 1 0 0 0 0.5 0"/>
<feBlend mode="normal" in2="BackgroundImageFix" result="effect1_dropShadow_2077_76566"/>
<feBlend mode="normal" in="SourceGraphic" in2="effect1_dropShadow_2077_76566" result="shape"/>
</filter>
</defs>
</svg>
