<svg width="31" height="28" viewBox="0 0 31 28" fill="none" xmlns="http://www.w3.org/2000/svg">
<rect x="0.757812" width="30.1032" height="27.2633" rx="1.70395" fill="#FE5E00"/>
<path d="M25.1833 5.71935L24.0648 5.71935V9.11158H22.9064V10.229H21.728V9.11158H20.6095V11.3664H19.451V10.2689H18.3326V12.4839H20.6095V15.8761H21.728V11.3465H22.9064V10.229H24.0648L24.0648 21.5631H25.1833L25.1833 5.71935Z" fill="white"/>
<path fill-rule="evenodd" clip-rule="evenodd" d="M7.00781 5.67944V21.583H10.4232V18.1908H8.12631V6.79688H10.4032V5.67944H7.00781ZM8.12631 20.4656V19.3082H9.30472V20.4656H8.12631Z" fill="white"/>
<path fill-rule="evenodd" clip-rule="evenodd" d="M9.26477 7.97419V17.0334H11.5617V18.1708H12.6802V14.7986H11.5617V15.916H10.3833V12.5038H12.6802V7.97419H9.26477ZM11.5617 11.3864H10.3833V9.09163H11.5617V11.3864Z" fill="white"/>
<path d="M11.5617 20.4257V19.3481H12.6802V20.4257H11.5617Z" fill="white"/>
<path d="M16.0756 11.3864V12.4639H17.1941V11.3864H16.0756Z" fill="white"/>
<path d="M20.6295 19.3681H21.7479V21.5631H20.6295V19.3681Z" fill="white"/>
<path fill-rule="evenodd" clip-rule="evenodd" d="M13.8586 5.71935H17.1941V9.11158H14.9771V12.4839H13.8586V5.71935ZM14.9771 7.99414H16.0756V6.83679H14.9771V7.99414Z" fill="white"/>
<path d="M20.5895 6.83679H18.3525V5.71935H21.708V7.99414H20.5895V6.83679Z" fill="white"/>
<path d="M20.5895 7.99414V9.11158H18.3925V7.99414H20.5895Z" fill="white"/>
<path fill-rule="evenodd" clip-rule="evenodd" d="M13.8586 13.6811H17.1941V18.1509H14.9771V20.4257H16.0756V19.3282H17.1941V21.5431H13.8586V13.6811ZM14.9771 17.0334H16.0756V14.7986H14.9771V17.0334Z" fill="white"/>
<path d="M19.451 18.2107V17.0135H20.5895V15.896H19.451V13.6811H18.3326V21.5431H19.451V19.3282H20.5895V18.2107H19.451Z" fill="white"/>
</svg>
