<svg xmlns="http://www.w3.org/2000/svg" width="397" height="276" viewBox="0 0 397 276" fill="none">
    <g opacity="0.75" filter="url(#filter0_f_3216_7303)">
        <path d="M215.477 138.77H229.866V143.566H225.069V157.955H220.273V143.566H215.477V138.77Z" fill="white"/>
        <path d="M233.555 138.77H247.944V143.566H238.351V145.78H246.099V150.576H238.351V153.159H247.944V157.955H233.555V138.77Z" fill="white"/>
        <path d="M289.996 138.77H274.5V150.761H284.831V153.159H274.5V157.955H289.996V145.964H279.665V143.566H289.996V138.77Z" fill="white"/>
        <path d="M211.783 138.77L206.617 138.77L206.617 157.955L211.783 157.955V138.77Z" fill="white"/>
        <rect x="127.664" y="107.777" width="8.85492" height="8.85492" rx="0.347664" fill="#3757FF"/>
        <rect x="137.992" y="107.777" width="8.85492" height="8.85492" rx="0.347664" fill="#3757FF"/>
        <rect x="148.32" y="107.777" width="8.85492" height="8.85492" rx="0.347664" fill="#3757FF"/>
        <rect x="158.656" y="107.777" width="8.85492" height="8.85492" rx="0.347664" fill="#3757FF"/>
        <rect x="168.984" y="107.777" width="8.85492" height="8.85492" rx="0.347664" fill="#3757FF"/>
        <rect x="127.664" y="118.108" width="8.85492" height="8.85492" rx="0.347664" fill="#3757FF"/>
        <rect x="117.336" y="118.108" width="8.85492" height="8.85492" rx="0.347664" fill="#3757FF"/>
        <rect x="256.797" y="126.226" width="8.85492" height="8.85492" rx="0.347664" transform="rotate(90 256.797 126.226)" fill="#3757FF"/>
        <rect x="256.797" y="115.896" width="8.85492" height="8.85492" rx="0.347664" transform="rotate(90 256.797 115.896)" fill="#243FCD"/>
        <rect x="179.312" y="118.108" width="8.85492" height="8.85492" rx="0.347664" fill="#3757FF"/>
        <rect x="137.992" y="118.108" width="8.85492" height="8.85492" rx="0.347664" fill="#3757FF"/>
        <rect x="148.32" y="118.108" width="8.85492" height="8.85492" rx="0.347664" fill="#3757FF"/>
        <rect x="117.336" y="128.438" width="8.85492" height="8.85492" rx="0.347664" fill="#243FCD"/>
        <rect x="158.656" y="118.108" width="8.85492" height="8.85492" rx="0.347664" fill="#3757FF"/>
        <rect x="168.984" y="118.108" width="8.85492" height="8.85492" rx="0.347664" fill="#3757FF"/>
        <rect x="258.273" y="135.079" width="8.85492" height="8.85492" rx="0.347664" transform="rotate(-90 258.273 135.079)" fill="#243FCD"/>
        <rect x="107" y="128.438" width="8.85492" height="8.85492" rx="0.347664" fill="#243FCD"/>
        <rect x="189.641" y="128.438" width="8.85492" height="8.85492" rx="0.347664" fill="#3757FF"/>
        <rect x="148.32" y="128.438" width="8.85492" height="8.85492" rx="0.347664" fill="#3757FF"/>
        <rect x="158.656" y="128.438" width="8.85492" height="8.85492" rx="0.347664" fill="#3757FF"/>
        <rect x="117.336" y="138.77" width="8.85492" height="8.85492" rx="0.347664" fill="#3757FF"/>
        <rect x="107" y="138.77" width="8.85492" height="8.85492" rx="0.347664" fill="#243FCD"/>
        <rect x="189.641" y="138.77" width="8.85492" height="8.85492" rx="0.347664" fill="#3757FF"/>
        <rect x="148.32" y="138.77" width="8.85492" height="8.85492" rx="0.347664" fill="#3757FF"/>
        <rect x="158.656" y="138.77" width="8.85492" height="8.85492" rx="0.347664" fill="#3757FF"/>
        <rect x="127.664" y="149.101" width="8.85492" height="8.85492" rx="0.347664" fill="#3757FF"/>
        <rect x="117.336" y="149.101" width="8.85492" height="8.85492" rx="0.347664" fill="#3757FF"/>
        <rect x="107" y="149.101" width="8.85492" height="8.85492" rx="0.347664" fill="#243FCD"/>
        <rect x="179.312" y="149.101" width="8.85492" height="8.85492" rx="0.347664" fill="#3757FF"/>
        <rect x="189.641" y="149.101" width="8.85492" height="8.85492" rx="0.347664" fill="#3757FF"/>
        <rect x="137.992" y="149.101" width="8.85492" height="8.85492" rx="0.347664" fill="#243FCD"/>
        <rect x="148.32" y="149.101" width="8.85492" height="8.85492" rx="0.347664" fill="#243FCD"/>
        <rect x="158.656" y="149.101" width="8.85492" height="8.85492" rx="0.347664" fill="#243FCD"/>
        <rect x="168.984" y="149.101" width="8.85492" height="8.85492" rx="0.347664" fill="#243FCD"/>
        <rect x="117.336" y="159.432" width="8.85492" height="8.85492" rx="0.347664" fill="#243FCD"/>
        <rect x="179.312" y="159.432" width="8.85492" height="8.85492" rx="0.347664" fill="#243FCD"/>
        <rect x="137.992" y="159.432" width="8.85492" height="8.85492" rx="0.347664" fill="#243FCD"/>
        <rect x="158.656" y="159.432" width="8.85492" height="8.85492" rx="0.347664" fill="#243FCD"/>
        <path fill-rule="evenodd" clip-rule="evenodd" d="M219.601 128.879C218.733 129.746 217.534 130.283 216.21 130.283C213.561 130.283 211.414 128.135 211.414 125.486C211.414 122.837 213.561 120.69 216.21 120.69C217.535 120.69 218.734 121.227 219.602 122.095L222.993 118.703C221.257 116.967 218.859 115.894 216.21 115.894C210.912 115.894 206.617 120.188 206.617 125.486C206.617 130.784 210.912 135.079 216.21 135.079C218.859 135.079 221.256 134.006 222.992 132.27L219.601 128.879Z" fill="white"/>
        <path d="M239.177 127.888C238.348 129.321 236.798 130.286 235.023 130.286C232.374 130.286 230.226 128.138 230.226 125.489C230.226 122.84 232.374 120.693 235.023 120.693C236.347 120.693 237.546 121.23 238.414 122.098L241.806 118.706C240.07 116.97 237.671 115.896 235.023 115.896C229.725 115.896 225.43 120.191 225.43 125.489C225.43 130.787 229.725 135.082 235.023 135.082C240.32 135.082 244.615 130.787 244.615 125.489V123.091H235.023V127.888H239.177Z" fill="white"/>
        <path d="M251.633 138.77H256.429L261.226 143.566L266.022 138.77H270.818V157.955H266.022V145.595L261.226 150.392L256.429 145.595V157.955H251.633V138.77Z" fill="white"/>
        <rect x="179.312" y="128.438" width="8.85492" height="8.85492" rx="0.347664" fill="white"/>
        <rect x="137.992" y="128.438" width="8.85492" height="8.85492" rx="0.347664" fill="white"/>
    </g>
    <g filter="url(#filter1_d_3216_7303)">
        <path d="M215.477 138.769H229.866V143.565H225.069V157.954H220.273V143.565H215.477V138.769Z" fill="white"/>
        <path d="M233.555 138.769H247.944V143.565H238.351V145.779H246.099V150.575H238.351V153.158H247.944V157.954H233.555V138.769Z" fill="white"/>
        <path d="M289.996 138.769H274.5V150.76H284.831V153.158H274.5V157.954H289.996V145.963H279.665V143.565H289.996V138.769Z" fill="white"/>
        <path d="M211.783 138.769L206.617 138.769L206.617 157.954L211.783 157.954V138.769Z" fill="white"/>
        <rect x="127.664" y="107.776" width="8.85492" height="8.85492" rx="0.347664" fill="#3757FF"/>
        <rect x="137.992" y="107.776" width="8.85492" height="8.85492" rx="0.347664" fill="#3757FF"/>
        <rect x="148.32" y="107.776" width="8.85492" height="8.85492" rx="0.347664" fill="#3757FF"/>
        <rect x="158.656" y="107.776" width="8.85492" height="8.85492" rx="0.347664" fill="#3757FF"/>
        <rect x="168.984" y="107.776" width="8.85492" height="8.85492" rx="0.347664" fill="#3757FF"/>
        <rect x="127.664" y="118.107" width="8.85492" height="8.85492" rx="0.347664" fill="#3757FF"/>
        <rect x="117.336" y="118.107" width="8.85492" height="8.85492" rx="0.347664" fill="#3757FF"/>
        <rect x="256.797" y="126.225" width="8.85492" height="8.85492" rx="0.347664" transform="rotate(90 256.797 126.225)" fill="#3757FF"/>
        <rect x="256.797" y="115.896" width="8.85492" height="8.85492" rx="0.347664" transform="rotate(90 256.797 115.896)" fill="#243FCD"/>
        <rect x="179.312" y="118.107" width="8.85492" height="8.85492" rx="0.347664" fill="#3757FF"/>
        <rect x="137.992" y="118.107" width="8.85492" height="8.85492" rx="0.347664" fill="#3757FF"/>
        <rect x="148.32" y="118.107" width="8.85492" height="8.85492" rx="0.347664" fill="#3757FF"/>
        <rect x="117.336" y="128.437" width="8.85492" height="8.85492" rx="0.347664" fill="#243FCD"/>
        <rect x="158.656" y="118.107" width="8.85492" height="8.85492" rx="0.347664" fill="#3757FF"/>
        <rect x="168.984" y="118.107" width="8.85492" height="8.85492" rx="0.347664" fill="#3757FF"/>
        <rect x="258.273" y="135.078" width="8.85492" height="8.85492" rx="0.347664" transform="rotate(-90 258.273 135.078)" fill="#243FCD"/>
        <rect x="107" y="128.437" width="8.85492" height="8.85492" rx="0.347664" fill="#243FCD"/>
        <rect x="189.641" y="128.437" width="8.85492" height="8.85492" rx="0.347664" fill="#3757FF"/>
        <rect x="148.32" y="128.437" width="8.85492" height="8.85492" rx="0.347664" fill="#3757FF"/>
        <rect x="158.656" y="128.437" width="8.85492" height="8.85492" rx="0.347664" fill="#3757FF"/>
        <rect x="117.336" y="138.769" width="8.85492" height="8.85492" rx="0.347664" fill="#3757FF"/>
        <rect x="107" y="138.769" width="8.85492" height="8.85492" rx="0.347664" fill="#243FCD"/>
        <rect x="189.641" y="138.769" width="8.85492" height="8.85492" rx="0.347664" fill="#3757FF"/>
        <rect x="148.32" y="138.769" width="8.85492" height="8.85492" rx="0.347664" fill="#3757FF"/>
        <rect x="158.656" y="138.769" width="8.85492" height="8.85492" rx="0.347664" fill="#3757FF"/>
        <rect x="127.664" y="149.1" width="8.85492" height="8.85492" rx="0.347664" fill="#3757FF"/>
        <rect x="117.336" y="149.1" width="8.85492" height="8.85492" rx="0.347664" fill="#3757FF"/>
        <rect x="107" y="149.1" width="8.85492" height="8.85492" rx="0.347664" fill="#243FCD"/>
        <rect x="179.312" y="149.1" width="8.85492" height="8.85492" rx="0.347664" fill="#3757FF"/>
        <rect x="189.641" y="149.1" width="8.85492" height="8.85492" rx="0.347664" fill="#3757FF"/>
        <rect x="137.992" y="149.1" width="8.85492" height="8.85492" rx="0.347664" fill="#243FCD"/>
        <rect x="148.32" y="149.1" width="8.85492" height="8.85492" rx="0.347664" fill="#243FCD"/>
        <rect x="158.656" y="149.1" width="8.85492" height="8.85492" rx="0.347664" fill="#243FCD"/>
        <rect x="168.984" y="149.1" width="8.85492" height="8.85492" rx="0.347664" fill="#243FCD"/>
        <rect x="117.336" y="159.431" width="8.85492" height="8.85492" rx="0.347664" fill="#243FCD"/>
        <rect x="179.312" y="159.431" width="8.85492" height="8.85492" rx="0.347664" fill="#243FCD"/>
        <rect x="137.992" y="159.431" width="8.85492" height="8.85492" rx="0.347664" fill="#243FCD"/>
        <rect x="158.656" y="159.431" width="8.85492" height="8.85492" rx="0.347664" fill="#243FCD"/>
        <path fill-rule="evenodd" clip-rule="evenodd" d="M219.601 128.878C218.733 129.745 217.534 130.282 216.21 130.282C213.561 130.282 211.414 128.134 211.414 125.485C211.414 122.836 213.561 120.689 216.21 120.689C217.535 120.689 218.734 121.226 219.602 122.094L222.993 118.702C221.257 116.966 218.859 115.893 216.21 115.893C210.912 115.893 206.617 120.187 206.617 125.485C206.617 130.783 210.912 135.078 216.21 135.078C218.859 135.078 221.256 134.005 222.992 132.269L219.601 128.878Z" fill="white"/>
        <path d="M239.177 127.887C238.348 129.32 236.798 130.285 235.023 130.285C232.374 130.285 230.226 128.137 230.226 125.488C230.226 122.839 232.374 120.692 235.023 120.692C236.347 120.692 237.546 121.229 238.414 122.097L241.806 118.705C240.07 116.969 237.671 115.896 235.023 115.896C229.725 115.896 225.43 120.19 225.43 125.488C225.43 130.786 229.725 135.081 235.023 135.081C240.32 135.081 244.615 130.786 244.615 125.488V123.09H235.023V127.887H239.177Z" fill="white"/>
        <path d="M251.633 138.769H256.429L261.226 143.565L266.022 138.769H270.818V157.954H266.022V145.594L261.226 150.391L256.429 145.594V157.954H251.633V138.769Z" fill="white"/>
        <rect x="179.312" y="128.437" width="8.85492" height="8.85492" rx="0.347664" fill="white"/>
        <rect x="137.992" y="128.437" width="8.85492" height="8.85492" rx="0.347664" fill="white"/>
    </g>
    <defs>
        <filter id="filter0_f_3216_7303" x="0" y="0.777344" width="397" height="274.509" filterUnits="userSpaceOnUse" color-interpolation-filters="sRGB">
            <feFlood flood-opacity="0" result="BackgroundImageFix"/>
            <feBlend mode="normal" in="SourceGraphic" in2="BackgroundImageFix" result="shape"/>
            <feGaussianBlur stdDeviation="53.5" result="effect1_foregroundBlur_3216_7303"/>
        </filter>
        <filter id="filter1_d_3216_7303" x="97" y="99.7764" width="203" height="80.5088" filterUnits="userSpaceOnUse" color-interpolation-filters="sRGB">
            <feFlood flood-opacity="0" result="BackgroundImageFix"/>
            <feColorMatrix in="SourceAlpha" type="matrix" values="0 0 0 0 0 0 0 0 0 0 0 0 0 0 0 0 0 0 127 0" result="hardAlpha"/>
            <feOffset dy="2"/>
            <feGaussianBlur stdDeviation="5"/>
            <feComposite in2="hardAlpha" operator="out"/>
            <feColorMatrix type="matrix" values="0 0 0 0 0 0 0 0 0 0 0 0 0 0 0 0 0 0 0.25 0"/>
            <feBlend mode="normal" in2="BackgroundImageFix" result="effect1_dropShadow_3216_7303"/>
            <feBlend mode="normal" in="SourceGraphic" in2="effect1_dropShadow_3216_7303" result="shape"/>
        </filter>
    </defs>
</svg>