<svg xmlns="http://www.w3.org/2000/svg" width="122" height="122" viewBox="0 0 122 122" fill="none">
    <path d="M61 122C52.9894 122 45.0572 120.422 37.6563 117.357C30.2554 114.291 23.5308 109.798 17.8665 104.134C12.2021 98.4691 7.70888 91.7445 4.64334 84.3437C1.5778 76.9428 -6.38326e-06 69.0106 -5.33279e-06 61L15.86 61C15.86 66.9279 17.0276 72.7977 19.2961 78.2743C21.5646 83.751 24.8896 88.7272 29.0812 92.9188C33.2728 97.1104 38.249 100.435 43.7257 102.704C49.2023 104.972 55.0721 106.14 61 106.14L61 122Z" fill="#0094FF"/>
    <path d="M5.33279e-06 61C6.0331e-06 52.9894 1.57782 45.0572 4.64336 37.6563C7.70889 30.2554 12.2021 23.5308 17.8665 17.8665C23.5309 12.2021 30.2555 7.70888 37.6563 4.64334C45.0572 1.5778 52.9894 -6.38326e-06 61 -5.33279e-06L61 15.86C55.0721 15.86 49.2023 17.0276 43.7257 19.2961C38.249 21.5646 33.2728 24.8896 29.0812 29.0812C24.8896 33.2728 21.5646 38.249 19.2961 43.7257C17.0276 49.2023 15.86 55.0721 15.86 61L5.33279e-06 61Z" fill="#0094FF"/>
    <path d="M117.357 84.3437C120.422 76.9428 122 69.0106 122 61C122 52.9894 120.422 45.0572 117.357 37.6563C114.291 30.2555 109.798 23.5309 104.134 17.8665C98.4691 12.2021 91.7446 7.70889 84.3437 4.64335C76.9428 1.57781 69.0106 -3.9409e-06 61 -4.64121e-06L61 15.86C66.9279 15.86 72.7977 17.0276 78.2743 19.2961C83.751 21.5646 88.7272 24.8896 92.9188 29.0812C97.1104 33.2728 100.435 38.249 102.704 43.7257C104.972 49.2023 106.14 55.0721 106.14 61C106.14 66.9279 104.972 72.7977 102.704 78.2743C100.435 83.751 97.1104 88.7272 92.9188 92.9188C88.7272 97.1104 83.751 100.435 78.2743 102.704C72.7977 104.972 66.9279 106.14 61 106.14L61 122C69.0106 122 76.9428 120.422 84.3437 117.357C91.7446 114.291 98.4691 109.798 104.134 104.134C109.798 98.4691 114.291 91.7446 117.357 84.3437Z" fill="url(#paint0_linear_1994_63316)"/>
    <defs>
        <linearGradient id="paint0_linear_1994_63316" x1="61" y1="105" x2="80" y2="13" gradientUnits="userSpaceOnUse">
            <stop stop-color="#0094FF"/>
            <stop offset="0.209059" stop-color="#0094FF" stop-opacity="0.51"/>
            <stop offset="0.591936" stop-color="#0094FF" stop-opacity="0.37"/>
            <stop offset="1" stop-color="#0094FF" stop-opacity="0.1"/>
        </linearGradient>
    </defs>
</svg>