<svg width="24" height="24" viewBox="0 0 24 24" fill="none" xmlns="http://www.w3.org/2000/svg">
    <path d="M11.5932 2.08076C11.8535 1.97308 12.1465 1.97308 12.4068 2.08076L22.3491 6.19303C23.217 6.55198 23.217 7.77242 22.3491 8.13138L12.8136 12.0754C12.2929 12.2908 11.7071 12.2908 11.1864 12.0754L1.65089 8.13138C0.783037 7.77242 0.783038 6.55198 1.65089 6.19303L11.5932 2.08076Z" fill="white"/>
    <path d="M11.5932 2.08076C11.8535 1.97308 12.1465 1.97308 12.4068 2.08076L22.3491 6.19303C23.217 6.55198 23.217 7.77242 22.3491 8.13138L12.8136 12.0754C12.2929 12.2908 11.7071 12.2908 11.1864 12.0754L1.65089 8.13138C0.783037 7.77242 0.783038 6.55198 1.65089 6.19303L11.5932 2.08076Z" fill="white"/>
    <path d="M3.94527 10.9178C3.24858 10.6296 2.48077 11.1377 2.48077 11.8869V17.316C2.48077 17.7309 2.72693 18.1069 3.10889 18.2754L11.1409 21.819C11.6878 22.0603 12.3122 22.0603 12.8591 21.819L20.8911 18.2754C21.2731 18.1069 21.5192 17.7309 21.5192 17.316V11.8869C21.5192 11.1377 20.7514 10.6296 20.0547 10.9178L12.8136 13.9128C12.2929 14.1281 11.7071 14.1281 11.1864 13.9128L3.94527 10.9178Z" fill="white"/>
</svg>
