<svg xmlns="http://www.w3.org/2000/svg" width="28" height="28" viewBox="0 0 28 28" fill="none">
    <path d="M15.8839 15.0769C15.4378 15.0769 15.0762 15.4387 15.0762 15.8846L15.0762 27.1923C15.0762 27.6382 15.4378 28 15.8839 28L27.1916 28C27.6376 28 27.9993 27.6382 27.9993 27.1923L27.9993 15.8846C27.9993 15.4387 27.6376 15.0769 27.1916 15.0769L15.8839 15.0769Z" fill="#0085FF"/>
    <path d="M0.807694 15.0769C0.361648 15.0769 1.49792e-07 15.4387 1.44475e-07 15.8846L9.63165e-09 27.1923C4.31418e-09 27.6382 0.361648 28 0.807694 28L12.1154 28C12.5615 28 12.9231 27.6382 12.9231 27.1923L12.9231 15.8846C12.9231 15.4387 12.5615 15.0769 12.1154 15.0769L0.807694 15.0769Z" fill="#006ACB"/>
    <path d="M28.0002 12.1154C28.0002 12.5615 27.6386 12.9231 27.1926 12.9231L15.8848 12.9231C15.4388 12.9231 15.0771 12.5615 15.0771 12.1154L15.0771 0.807691C15.0771 0.361613 15.4388 -3.81039e-06 15.8848 -3.80507e-06L27.1926 -3.67022e-06C27.6386 -2.71123e-06 28.0002 0.361613 28.0002 0.807691L28.0002 12.1154Z" fill="#0055A4"/>
    <path d="M28.0002 12.1154C28.0002 12.5615 27.6386 12.9231 27.1926 12.9231L15.8848 12.9231C15.4388 12.9231 15.0771 12.5615 15.0771 12.1154L15.0771 0.807691C15.0771 0.361613 15.4388 -3.81039e-06 15.8848 -3.80507e-06L27.1926 -3.67022e-06C27.6386 -2.71123e-06 28.0002 0.361613 28.0002 0.807691L28.0002 12.1154Z" fill="#0055A4"/>
</svg>