<svg width="24" height="20" viewBox="0 0 24 20" fill="none" xmlns="http://www.w3.org/2000/svg">
<path d="M12.5447 0.114862C12.2093 -0.0382876 11.7907 -0.0382874 11.4553 0.114863L0.516193 5.10974C-0.172065 5.424 -0.172064 6.18499 0.516194 6.49925L11.4553 11.4941C11.7907 11.6473 12.2093 11.6473 12.5447 11.4941L23.4838 6.49925C24.1721 6.18499 24.1721 5.424 23.4838 5.10974L12.5447 0.114862Z" fill="#99CC33"/>
<path d="M19.9096 16.223L19.9087 10.0572L12.6074 13.3194C12.2764 13.4673 11.8665 13.4673 11.5354 13.3194L4.2342 10.0576L4.23915 16.2234C4.23938 16.5132 4.44259 16.7808 4.77196 16.9251L11.5465 19.8923C11.8736 20.0355 12.2757 20.0355 12.6027 19.8923L19.3768 16.9253C19.7064 16.7809 19.9097 16.513 19.9096 16.223Z" fill="#99CC33"/>
</svg>
