<svg width="24" height="25" viewBox="0 0 24 25" fill="none" xmlns="http://www.w3.org/2000/svg">
    <path fill-rule="evenodd" clip-rule="evenodd" d="M20.75 2.28711C21.4404 2.28711 22 2.73483 22 3.28711V21.2871C22 21.8394 21.4404 22.2871 20.75 22.2871H3.25C2.55964 22.2871 2 21.8394 2 21.2871V3.28711C2 2.73482 2.55964 2.28711 3.25 2.28711H20.75ZM7.77125 4.55811C7.98494 4.19678 8.51509 4.19678 8.72877 4.55811L9.73921 6.26318L9.76429 6.30225C9.77906 6.32373 9.79524 6.34131 9.81263 6.35889L9.85682 6.40186C9.92604 6.4585 10.0097 6.50146 10.1007 6.521L12.0628 6.93896C12.332 6.99561 12.4956 7.22412 12.4999 7.46436C12.5023 7.59326 12.458 7.72412 12.3587 7.8335L11.0211 9.3042C10.9932 9.33545 10.9693 9.36865 10.9494 9.40381C10.8952 9.50146 10.8715 9.61084 10.8829 9.72217L11.0852 11.687C11.0934 11.7671 11.0842 11.8413 11.0613 11.9097C11.0222 12.0288 10.9429 12.1284 10.8416 12.1948C10.6931 12.2925 10.4971 12.3198 10.3105 12.2397L8.47346 11.4429C8.33107 11.3823 8.16896 11.3823 8.02656 11.4429L6.18946 12.2397C5.80091 12.4077 5.37208 12.1011 5.41481 11.687L5.61708 9.72217C5.6327 9.56982 5.58259 9.41943 5.47895 9.3042L4.14137 7.8335C4.01088 7.69092 3.97541 7.50732 4.01576 7.34326C4.06294 7.15186 4.21363 6.98584 4.43727 6.93896L6.39936 6.521C6.55134 6.48779 6.68257 6.39404 6.76081 6.26318L7.77125 4.55811ZM4.00001 18.2866H20V20.2866H4.00001V18.2866ZM4.00001 14.2866H20V16.2866H4.00001V14.2866Z" fill="#0E9AFF"></path>
</svg>